<?xml version="1.0" encoding="UTF-8"?>
<svg xmlns="http://www.w3.org/2000/svg" width="2480" height="3508" viewBox="0 0 210 297" data-format="A4" data-physical-width-mm="210" data-physical-height-mm="297" data-process-ppi="600" data-canonical-ppi="300" data-entry-process="photocopy-toner"><g id="paper-stock"><defs><linearGradient id="edgeTone" x1="0" x2="1" y1="0" y2="1"><stop offset="0" stop-color="#5B574F" stop-opacity="0.013"/><stop offset=".08" stop-color="#FFFFFF" stop-opacity="0"/><stop offset=".90" stop-color="#FFFFFF" stop-opacity="0"/><stop offset="1" stop-color="#4E4B45" stop-opacity="0.016"/></linearGradient><filter id="stockGrain" x="0" y="0" width="100%" height="100%"><feTurbulence type="fractalNoise" baseFrequency="0.045 0.11" numOctaves="2" seed="9550"/><feColorMatrix type="matrix" values="0 0 0 0 0.35  0 0 0 0 0.33  0 0 0 0 0.29  0 0 0 .010 0"/></filter></defs><rect width="210" height="297" fill="#ECEBE6"/><rect width="210" height="297" filter="url(#stockGrain)" opacity=".40"/><path d="M 0.82 258.52 C 55 258.26, 155 258.45, 206.24 258.51" stroke="#6D685F" stroke-opacity="0.0099" stroke-width="0.056" fill="none"/><path d="M -2.90 202.53 C 55 202.51, 155 202.50, 213.27 202.64" stroke="#6D685F" stroke-opacity="0.0097" stroke-width="0.065" fill="none"/><path d="M 11.82 111.24 C 55 110.98, 155 111.19, 191.52 111.38" stroke="#6D685F" stroke-opacity="0.0068" stroke-width="0.042" fill="none"/><path d="M 4.81 202.79 C 55 203.15, 155 202.63, 200.94 202.79" stroke="#6D685F" stroke-opacity="0.0041" stroke-width="0.051" fill="none"/><path d="M -1.29 205.49 C 55 205.70, 155 205.27, 201.44 205.34" stroke="#6D685F" stroke-opacity="0.0062" stroke-width="0.043" fill="none"/><path d="M 9.93 290.63 C 55 290.70, 155 290.49, 198.87 290.82" stroke="#6D685F" stroke-opacity="0.0063" stroke-width="0.072" fill="none"/><path d="M 19.57 14.99 C 55 14.95, 155 14.76, 221.89 14.99" stroke="#6D685F" stroke-opacity="0.0086" stroke-width="0.068" fill="none"/><path d="M 9.27 193.51 C 55 193.16, 155 193.36, 210.34 193.72" stroke="#6D685F" stroke-opacity="0.0083" stroke-width="0.063" fill="none"/><path d="M 10.58 82.26 C 55 82.33, 155 81.98, 209.70 82.40" stroke="#6D685F" stroke-opacity="0.0075" stroke-width="0.042" fill="none"/><path d="M 6.59 266.53 C 55 266.64, 155 266.15, 203.39 266.54" stroke="#6D685F" stroke-opacity="0.0043" stroke-width="0.085" fill="none"/><path d="M 13.77 40.71 C 55 41.02, 155 40.77, 191.73 40.85" stroke="#6D685F" stroke-opacity="0.0094" stroke-width="0.042" fill="none"/><path d="M 18.27 249.96 C 55 250.08, 155 250.02, 209.29 250.11" stroke="#6D685F" stroke-opacity="0.0048" stroke-width="0.055" fill="none"/><path d="M 6.31 194.42 C 55 194.09, 155 194.10, 210.14 194.42" stroke="#6D685F" stroke-opacity="0.0063" stroke-width="0.036" fill="none"/><path d="M 16.94 181.58 C 55 181.52, 155 181.54, 207.16 181.60" stroke="#6D685F" stroke-opacity="0.0074" stroke-width="0.067" fill="none"/><path d="M 2.95 248.04 C 55 247.66, 155 247.93, 221.80 248.08" stroke="#6D685F" stroke-opacity="0.0093" stroke-width="0.070" fill="none"/><path d="M 12.64 185.98 C 55 185.89, 155 186.03, 216.27 186.13" stroke="#6D685F" stroke-opacity="0.0067" stroke-width="0.071" fill="none"/><path d="M 7.32 263.87 C 55 263.85, 155 264.12, 205.91 263.93" stroke="#6D685F" stroke-opacity="0.0075" stroke-width="0.080" fill="none"/><path d="M 8.43 295.05 C 55 295.32, 155 295.22, 196.84 295.23" stroke="#6D685F" stroke-opacity="0.0073" stroke-width="0.055" fill="none"/><path d="M 2.21 146.74 C 55 146.91, 155 146.97, 222.02 146.83" stroke="#6D685F" stroke-opacity="0.0053" stroke-width="0.054" fill="none"/><path d="M -3.93 192.76 C 55 193.03, 155 192.43, 216.01 192.74" stroke="#6D685F" stroke-opacity="0.0043" stroke-width="0.068" fill="none"/><path d="M 1.44 97.37 C 55 97.56, 155 97.66, 212.43 97.19" stroke="#6D685F" stroke-opacity="0.0041" stroke-width="0.041" fill="none"/><path d="M 2.82 187.73 C 55 187.89, 155 187.75, 215.05 187.61" stroke="#6D685F" stroke-opacity="0.0078" stroke-width="0.070" fill="none"/><path d="M 8.75 143.36 C 55 143.52, 155 143.13, 190.55 143.54" stroke="#6D685F" stroke-opacity="0.0083" stroke-width="0.056" fill="none"/><path d="M 16.90 20.13 C 55 20.47, 155 20.44, 213.04 20.19" stroke="#6D685F" stroke-opacity="0.0086" stroke-width="0.056" fill="none"/><path d="M 13.12 252.16 C 55 251.98, 155 252.15, 200.46 252.37" stroke="#6D685F" stroke-opacity="0.0076" stroke-width="0.061" fill="none"/><path d="M 9.14 261.57 C 55 261.41, 155 261.53, 191.79 261.76" stroke="#6D685F" stroke-opacity="0.0074" stroke-width="0.068" fill="none"/><rect width="210" height="297" fill="url(#edgeTone)"/></g><g id="process-content" data-process="photocopy-toner" transform="rotate(-0.082 105 148.5)"><g id="ellery-works-seal" data-process="photocopy-toner">
      <circle cx="24" cy="12.8" r="7.2" fill="none" stroke="#2E2E2D" stroke-opacity="0.765" stroke-width=".34"/>
      <circle cx="24" cy="12.8" r="6.2" fill="none" stroke="#2E2E2D" stroke-opacity="0.525" stroke-width=".19"/>
      <text x="24.000" y="13.800" data-process="photocopy-toner" font-family="'Nimbus Roman',serif" font-size="3.0339" font-weight="700" letter-spacing="0.0000" fill="#2E2E2D" fill-opacity="0.865" text-anchor="middle">WE</text>
      <text x="24.000" y="18.000" data-process="photocopy-toner" font-family="'Nimbus Roman',serif" font-size="1.4817" font-weight="600" letter-spacing="0.0000" fill="#2E2E2D" fill-opacity="0.565" text-anchor="middle">WORKS</text>
    </g><text x="34.000" y="11.800" data-process="photocopy-toner" font-family="'Nimbus Roman',serif" font-size="5.7150" font-weight="700" letter-spacing="0.0106" fill="#2E2E2D" fill-opacity="0.945" text-anchor="start">W. ELLERY / WORKS</text><text x="34.000" y="17.000" data-process="photocopy-toner" font-family="'Nimbus Roman',serif" font-size="2.9633" font-weight="600" letter-spacing="0.0423" fill="#2E2E2D" fill-opacity="0.765" text-anchor="start">ACOUSTIC RECORDING · TECHNICAL SERVICES</text><text x="193.000" y="10.000" data-process="photocopy-toner" font-family="'Nimbus Roman',serif" font-size="2.6458" font-weight="400" letter-spacing="0.0000" fill="#2E2E2D" fill-opacity="0.715" text-anchor="end">Calder Works, Bradford Road</text><text x="193.000" y="14.000" data-process="photocopy-toner" font-family="'Nimbus Roman',serif" font-size="2.6458" font-weight="400" letter-spacing="0.0000" fill="#2E2E2D" fill-opacity="0.715" text-anchor="end">Brighouse, West Yorkshire  HD6 4AA</text><text x="193.000" y="18.000" data-process="photocopy-toner" font-family="'Nimbus Roman',serif" font-size="2.5047" font-weight="400" letter-spacing="0.0000" fill="#2E2E2D" fill-opacity="0.665" text-anchor="end">Telephone 01484 214 417   Fax 01484 214 418</text><line x1="17" y1="23" x2="193" y2="23" data-process="photocopy-toner" stroke="#2E2E2D" stroke-opacity="0.4155" stroke-width="0.26"/><text x="17.000" y="34.200" data-process="photocopy-toner" font-family="'Nimbus Roman',serif" font-size="4.7978" font-weight="700" letter-spacing="0.0088" fill="#2C2A26" fill-opacity="1.000" text-anchor="start">FIELD RECORDING LOG</text><text x="193.000" y="34.200" data-process="photocopy-toner" font-family="'Nimbus Roman',serif" font-size="2.6106" font-weight="400" letter-spacing="0.0000" fill="#252525" fill-opacity="0.620" text-anchor="end">Form W.E./FR-17</text><line x1="17" y1="37" x2="193" y2="37" data-process="photocopy-toner" stroke="#494846" stroke-opacity="0.38" stroke-width="0.22"/><text x="17.000" y="43.100" data-process="photocopy-toner" font-family="'Nimbus Roman',serif" font-size="3.1750" font-weight="600" letter-spacing="0.0282" fill="#403E39" fill-opacity="1.000" text-anchor="start">JOB REF.</text><text x="40.000" y="43.100" font-family="'Nimbus Mono PS',monospace" font-size="4.0217" font-weight="400" letter-spacing="0.0000" fill="#232321" fill-opacity="1.000" text-anchor="start">4417-C</text><text x="88.000" y="43.100" data-process="photocopy-toner" font-family="'Nimbus Roman',serif" font-size="3.1750" font-weight="600" letter-spacing="0.0282" fill="#403E39" fill-opacity="1.000" text-anchor="start">SHEET</text><text x="105.000" y="43.100" font-family="'Nimbus Mono PS',monospace" font-size="4.0217" font-weight="400" letter-spacing="0.0000" fill="#232321" fill-opacity="1.000" text-anchor="start">4</text><text x="126.000" y="43.100" data-process="photocopy-toner" font-family="'Nimbus Roman',serif" font-size="3.1750" font-weight="600" letter-spacing="0.0282" fill="#403E39" fill-opacity="1.000" text-anchor="start">TIME</text><text x="142.000" y="43.100" font-family="'Nimbus Mono PS',monospace" font-size="4.0217" font-weight="400" letter-spacing="0.0000" fill="#232321" fill-opacity="1.000" text-anchor="start">00:20</text><line x1="39" y1="44.5" x2="78" y2="44.5" data-process="photocopy-toner" stroke="#494846" stroke-opacity="0.25" stroke-width="0.16"/><line x1="104" y1="44.5" x2="120" y2="44.5" data-process="photocopy-toner" stroke="#494846" stroke-opacity="0.25" stroke-width="0.16"/><line x1="141" y1="44.5" x2="193" y2="44.5" data-process="photocopy-toner" stroke="#494846" stroke-opacity="0.25" stroke-width="0.16"/><text x="17.000" y="50.900" data-process="photocopy-toner" font-family="'Nimbus Roman',serif" font-size="3.1750" font-weight="600" letter-spacing="0.0282" fill="#403E39" fill-opacity="1.000" text-anchor="start">SITE</text><text x="40.000" y="50.900" font-family="'Nimbus Roman',serif" font-size="4.0217" font-weight="400" letter-spacing="0.0000" fill="#232321" fill-opacity="1.000" text-anchor="start">Ellery Conservatoire</text><line x1="39" y1="52.3" x2="193" y2="52.3" data-process="photocopy-toner" stroke="#494846" stroke-opacity="0.25" stroke-width="0.16"/><text x="17.000" y="67.800" data-process="photocopy-toner" font-family="'Nimbus Roman',serif" font-size="3.5560" font-weight="600" letter-spacing="0.0282" fill="#403E39" fill-opacity="1.000" text-anchor="start">FIELD NOTES</text><line x1="17" y1="70" x2="193" y2="70" data-process="photocopy-toner" stroke="#4F4B44" stroke-opacity="0.42" stroke-width="0.24"/><line x1="17" y1="70.72" x2="193" y2="70.72" data-process="photocopy-toner" stroke="#6B665D" stroke-opacity="0.17" stroke-width="0.14"/><line x1="34" y1="77.07" x2="193" y2="77.07" data-process="photocopy-toner" stroke="#716C63" stroke-opacity="0.18" stroke-width="0.15"/><line x1="34" y1="83.41999999999999" x2="193" y2="83.41999999999999" data-process="photocopy-toner" stroke="#716C63" stroke-opacity="0.18" stroke-width="0.15"/><line x1="34" y1="89.76999999999998" x2="193" y2="89.76999999999998" data-process="photocopy-toner" stroke="#716C63" stroke-opacity="0.18" stroke-width="0.15"/><line x1="34" y1="96.11999999999998" x2="193" y2="96.11999999999998" data-process="photocopy-toner" stroke="#716C63" stroke-opacity="0.18" stroke-width="0.15"/><line x1="34" y1="102.46999999999997" x2="193" y2="102.46999999999997" data-process="photocopy-toner" stroke="#716C63" stroke-opacity="0.18" stroke-width="0.15"/><line x1="34" y1="108.81999999999996" x2="193" y2="108.81999999999996" data-process="photocopy-toner" stroke="#716C63" stroke-opacity="0.18" stroke-width="0.15"/><line x1="34" y1="115.16999999999996" x2="193" y2="115.16999999999996" data-process="photocopy-toner" stroke="#716C63" stroke-opacity="0.18" stroke-width="0.15"/><line x1="34" y1="121.51999999999995" x2="193" y2="121.51999999999995" data-process="photocopy-toner" stroke="#716C63" stroke-opacity="0.18" stroke-width="0.15"/><line x1="34" y1="127.86999999999995" x2="193" y2="127.86999999999995" data-process="photocopy-toner" stroke="#716C63" stroke-opacity="0.18" stroke-width="0.15"/><line x1="34" y1="134.21999999999994" x2="193" y2="134.21999999999994" data-process="photocopy-toner" stroke="#716C63" stroke-opacity="0.18" stroke-width="0.15"/><line x1="34" y1="140.56999999999994" x2="193" y2="140.56999999999994" data-process="photocopy-toner" stroke="#716C63" stroke-opacity="0.18" stroke-width="0.15"/><line x1="34" y1="146.91999999999993" x2="193" y2="146.91999999999993" data-process="photocopy-toner" stroke="#716C63" stroke-opacity="0.18" stroke-width="0.15"/><line x1="34" y1="153.26999999999992" x2="193" y2="153.26999999999992" data-process="photocopy-toner" stroke="#716C63" stroke-opacity="0.18" stroke-width="0.15"/><line x1="34" y1="159.61999999999992" x2="193" y2="159.61999999999992" data-process="photocopy-toner" stroke="#716C63" stroke-opacity="0.18" stroke-width="0.15"/><line x1="34" y1="165.9699999999999" x2="193" y2="165.9699999999999" data-process="photocopy-toner" stroke="#716C63" stroke-opacity="0.18" stroke-width="0.15"/><line x1="34" y1="172.3199999999999" x2="193" y2="172.3199999999999" data-process="photocopy-toner" stroke="#716C63" stroke-opacity="0.18" stroke-width="0.15"/><line x1="34" y1="178.6699999999999" x2="193" y2="178.6699999999999" data-process="photocopy-toner" stroke="#716C63" stroke-opacity="0.18" stroke-width="0.15"/><line x1="34" y1="185.0199999999999" x2="193" y2="185.0199999999999" data-process="photocopy-toner" stroke="#716C63" stroke-opacity="0.18" stroke-width="0.15"/><line x1="34" y1="191.3699999999999" x2="193" y2="191.3699999999999" data-process="photocopy-toner" stroke="#716C63" stroke-opacity="0.18" stroke-width="0.15"/><line x1="34" y1="197.71999999999989" x2="193" y2="197.71999999999989" data-process="photocopy-toner" stroke="#716C63" stroke-opacity="0.18" stroke-width="0.15"/><line x1="34" y1="204.06999999999988" x2="193" y2="204.06999999999988" data-process="photocopy-toner" stroke="#716C63" stroke-opacity="0.18" stroke-width="0.15"/><line x1="34" y1="210.41999999999987" x2="193" y2="210.41999999999987" data-process="photocopy-toner" stroke="#716C63" stroke-opacity="0.18" stroke-width="0.15"/><line x1="34" y1="216.76999999999987" x2="193" y2="216.76999999999987" data-process="photocopy-toner" stroke="#716C63" stroke-opacity="0.18" stroke-width="0.15"/><line x1="34" y1="223.11999999999986" x2="193" y2="223.11999999999986" data-process="photocopy-toner" stroke="#716C63" stroke-opacity="0.18" stroke-width="0.15"/><line x1="34" y1="229.46999999999986" x2="193" y2="229.46999999999986" data-process="photocopy-toner" stroke="#716C63" stroke-opacity="0.18" stroke-width="0.15"/><line x1="34" y1="235.81999999999985" x2="193" y2="235.81999999999985" data-process="photocopy-toner" stroke="#716C63" stroke-opacity="0.18" stroke-width="0.15"/><line x1="34" y1="242.16999999999985" x2="193" y2="242.16999999999985" data-process="photocopy-toner" stroke="#716C63" stroke-opacity="0.18" stroke-width="0.15"/><line x1="34" y1="248.51999999999984" x2="193" y2="248.51999999999984" data-process="photocopy-toner" stroke="#716C63" stroke-opacity="0.18" stroke-width="0.15"/><line x1="34" y1="254.86999999999983" x2="193" y2="254.86999999999983" data-process="photocopy-toner" stroke="#716C63" stroke-opacity="0.18" stroke-width="0.15"/><line x1="34" y1="261.21999999999986" x2="193" y2="261.21999999999986" data-process="photocopy-toner" stroke="#716C63" stroke-opacity="0.18" stroke-width="0.15"/><line x1="34" y1="267.5699999999999" x2="193" y2="267.5699999999999" data-process="photocopy-toner" stroke="#716C63" stroke-opacity="0.18" stroke-width="0.15"/><line x1="34" y1="70.72" x2="34" y2="271" data-process="photocopy-toner" stroke="#716C63" stroke-opacity="0.2" stroke-width="0.16"/><text x="38.000" y="77.070" data-process="photocopy-toner" font-family="'Nimbus Roman',serif" font-size="3.6830" font-weight="600" letter-spacing="0.0282" fill="#403E39" fill-opacity="1.000" text-anchor="start">HALL</text><text x="75.000" y="77.070" font-family="'Nimbus Mono PS',monospace" font-size="4.2757" font-weight="400" letter-spacing="0.0000" fill="#232321" fill-opacity="1.000" text-anchor="start">take 2. Clean. 60s.</text><text x="38.000" y="89.770" font-family="'Nimbus Mono PS',monospace" font-size="4.2333" font-weight="400" letter-spacing="0.0000" fill="#242321" fill-opacity="0.940" text-anchor="start">Nine metres and every one of them full of nothing. I sat in</text><text x="38.000" y="96.120" font-family="'Nimbus Mono PS',monospace" font-size="4.2333" font-weight="400" letter-spacing="0.0000" fill="#242321" fill-opacity="0.940" text-anchor="start">the fourth row with the recorder on my knees and did not</text><text x="38.000" y="102.470" font-family="'Nimbus Mono PS',monospace" font-size="4.2333" font-weight="400" letter-spacing="0.0000" fill="#242321" fill-opacity="0.940" text-anchor="start">move for a minute and ten.</text><text x="38.000" y="121.520" font-family="'Nimbus Mono PS',monospace" font-size="4.2333" font-weight="400" letter-spacing="0.0000" fill="#242321" fill-opacity="0.940" text-anchor="start">I want to write down that I heard the hall breathe, so I am</text><text x="38.000" y="127.870" font-family="'Nimbus Mono PS',monospace" font-size="4.2333" font-weight="400" letter-spacing="0.0000" fill="#242321" fill-opacity="0.940" text-anchor="start">writing it down and then I am writing down that a hall of</text><text x="38.000" y="134.220" font-family="'Nimbus Mono PS',monospace" font-size="4.2333" font-weight="400" letter-spacing="0.0000" fill="#242321" fill-opacity="0.940" text-anchor="start">this size has a thermal cycle and the seats are horsehair</text><text x="38.000" y="140.570" font-family="'Nimbus Mono PS',monospace" font-size="4.2333" font-weight="400" letter-spacing="0.0000" fill="#242321" fill-opacity="0.940" text-anchor="start">and it was breathing in the sense that a building breathes.</text><text x="38.000" y="159.620" font-family="'Nimbus Mono PS',monospace" font-size="4.2333" font-weight="400" letter-spacing="0.0000" fill="#242321" fill-opacity="0.940" text-anchor="start">Practice wing next. Through the open stair hall off the</text><text x="38.000" y="165.970" font-family="'Nimbus Mono PS',monospace" font-size="4.2333" font-weight="400" letter-spacing="0.0000" fill="#242321" fill-opacity="0.940" text-anchor="start">ground spine, then straight across the upper landing. Four</text><text x="38.000" y="172.320" font-family="'Nimbus Mono PS',monospace" font-size="4.2333" font-weight="400" letter-spacing="0.0000" fill="#242321" fill-opacity="0.940" text-anchor="start">minutes if you know where you are going.</text><text x="38.000" y="191.370" font-family="'Nimbus Mono PS',monospace" font-size="4.2333" font-weight="400" letter-spacing="0.0000" fill="#242321" fill-opacity="0.940" text-anchor="start">Radio check missed. I will get the next one.</text><text x="17.000" y="278.000" data-process="photocopy-toner" font-family="'Nimbus Roman',serif" font-size="2.6458" font-weight="400" letter-spacing="0.0000" fill="#252525" fill-opacity="0.640" text-anchor="start">Continued over  YES / NO</text><line x1="17" y1="282" x2="193" y2="282" data-process="photocopy-toner" stroke="#56534E" stroke-opacity="0.237" stroke-width="0.18"/><text x="17.000" y="286.400" data-process="photocopy-toner" font-family="'Nimbus Roman',serif" font-size="2.3636" font-weight="400" letter-spacing="0.0000" fill="#56534E" fill-opacity="0.525" text-anchor="start">W. ELLERY / WORKS · JOB 4417-C</text><text x="193.000" y="286.400" data-process="photocopy-toner" font-family="'Nimbus Roman',serif" font-size="2.3636" font-weight="400" letter-spacing="0.0000" fill="#56534E" fill-opacity="0.525" text-anchor="end">SHEET 1 OF 1</text></g><g id="process-manual" data-process="biro"></g><g id="process-handling" data-process="handling"><rect x="3" y="98.38" width="204" height="1.35" data-process="handling" fill="#6A645A" fill-opacity="0.024"/><line x1="2.5" y1="98.76" x2="207.5" y2="98.76" data-process="handling" stroke="#5D574D" stroke-opacity="0.0979" stroke-width="0.2"/><line x1="2.5" y1="99.17" x2="207.5" y2="99.17" data-process="handling" stroke="#FFFFFF" stroke-opacity="0.1413" stroke-width="0.22"/><line x1="6" y1="99.58" x2="204" y2="99.58" data-process="handling" stroke="#81796C" stroke-opacity="0.0407" stroke-width="0.12"/><rect x="3" y="197.38" width="204" height="1.35" data-process="handling" fill="#6A645A" fill-opacity="0.021"/><line x1="2.5" y1="198.24" x2="207.5" y2="198.24" data-process="handling" stroke="#5D574D" stroke-opacity="0.08410000000000001" stroke-width="0.2"/><line x1="2.5" y1="197.83" x2="207.5" y2="197.83" data-process="handling" stroke="#FFFFFF" stroke-opacity="0.1227" stroke-width="0.22"/><line x1="6" y1="197.42" x2="204" y2="197.42" data-process="handling" stroke="#81796C" stroke-opacity="0.0353" stroke-width="0.12"/><circle cx="16" cy="278" r="30" data-process="handling" fill="#8A806B" fill-opacity="0.021" stroke="#766B57" stroke-opacity="0.064" stroke-width=".34"/><circle cx="19" cy="274" r="22.20" data-process="handling" fill="none" stroke="#8B8068" stroke-opacity="0.038" stroke-width=".22"/><circle cx="22" cy="271" r="12.90" data-process="handling" fill="none" stroke="#A39A87" stroke-opacity="0.030" stroke-width=".16"/><line x1="1.2" y1="38" x2="4.2" y2="38.45" data-process="handling" stroke="#6B6458" stroke-opacity="0.03" stroke-width="0.17"/><line x1="205.8" y1="46" x2="208.4" y2="45.5" data-process="handling" stroke="#FFFFFF" stroke-opacity="0.0296" stroke-width="0.16"/><line x1="1.75" y1="69.4" x2="4.75" y2="69.85000000000001" data-process="handling" stroke="#6B6458" stroke-opacity="0.03" stroke-width="0.17"/><line x1="205.25" y1="77.4" x2="207.85" y2="76.9" data-process="handling" stroke="#FFFFFF" stroke-opacity="0.0296" stroke-width="0.16"/><line x1="2.3" y1="100.8" x2="5.300000000000001" y2="101.25" data-process="handling" stroke="#6B6458" stroke-opacity="0.03" stroke-width="0.17"/><line x1="204.70000000000002" y1="108.8" x2="207.3" y2="108.3" data-process="handling" stroke="#FFFFFF" stroke-opacity="0.0296" stroke-width="0.16"/><line x1="1.2" y1="132.2" x2="4.2" y2="132.64999999999998" data-process="handling" stroke="#6B6458" stroke-opacity="0.03" stroke-width="0.17"/><line x1="205.8" y1="140.2" x2="208.4" y2="139.7" data-process="handling" stroke="#FFFFFF" stroke-opacity="0.0296" stroke-width="0.16"/><line x1="1.75" y1="163.6" x2="4.75" y2="164.04999999999998" data-process="handling" stroke="#6B6458" stroke-opacity="0.03" stroke-width="0.17"/><line x1="205.25" y1="171.6" x2="207.85" y2="171.1" data-process="handling" stroke="#FFFFFF" stroke-opacity="0.0296" stroke-width="0.16"/><line x1="2.3" y1="195" x2="5.300000000000001" y2="195.45" data-process="handling" stroke="#6B6458" stroke-opacity="0.03" stroke-width="0.17"/><line x1="204.70000000000002" y1="203" x2="207.3" y2="202.5" data-process="handling" stroke="#FFFFFF" stroke-opacity="0.0296" stroke-width="0.16"/><line x1="1.2" y1="226.39999999999998" x2="4.2" y2="226.84999999999997" data-process="handling" stroke="#6B6458" stroke-opacity="0.03" stroke-width="0.17"/><line x1="205.8" y1="234.39999999999998" x2="208.4" y2="233.89999999999998" data-process="handling" stroke="#FFFFFF" stroke-opacity="0.0296" stroke-width="0.16"/><line x1="210" y1="286" x2="209.5" y2="284.8" data-process="handling" stroke="#756E62" stroke-opacity="0.055" stroke-width="0.13"/><line x1="208.992" y1="283.3" x2="209.5" y2="282.1" data-process="handling" stroke="#FFFFFF" stroke-opacity="0.073" stroke-width="0.13"/><line x1="207.984" y1="280.6" x2="209.5" y2="279.40000000000003" data-process="handling" stroke="#756E62" stroke-opacity="0.091" stroke-width="0.13"/><line x1="206.976" y1="277.9" x2="209.5" y2="276.7" data-process="handling" stroke="#FFFFFF" stroke-opacity="0.10899999999999999" stroke-width="0.13"/><line x1="205.968" y1="275.2" x2="209.5" y2="274" data-process="handling" stroke="#756E62" stroke-opacity="0.127" stroke-width="0.13"/><line x1="204.96" y1="272.5" x2="209.5" y2="271.3" data-process="handling" stroke="#FFFFFF" stroke-opacity="0.145" stroke-width="0.13"/></g><g id="reproduction-defects" data-process="photocopy-toner"><rect x="140.38" y="0" width="0.095" height="297" fill="#222" fill-opacity="0.005"/><circle cx="5.61" cy="161.04" r="0.116" fill="#242424" fill-opacity="0.013"/><circle cx="161.93" cy="276.76" r="0.143" fill="#242424" fill-opacity="0.010"/><circle cx="36.51" cy="145.48" r="0.043" fill="#242424" fill-opacity="0.012"/><circle cx="169.92" cy="226.42" r="0.071" fill="#242424" fill-opacity="0.015"/><circle cx="193.29" cy="216.92" r="0.071" fill="#242424" fill-opacity="0.013"/><circle cx="28.05" cy="28.55" r="0.073" fill="#242424" fill-opacity="0.013"/><circle cx="25.66" cy="227.74" r="0.139" fill="#242424" fill-opacity="0.013"/></g></svg>