<?xml version="1.0" encoding="UTF-8"?>
<svg xmlns="http://www.w3.org/2000/svg" width="2480" height="3508" viewBox="0 0 210 297" data-format="A4" data-physical-width-mm="210" data-physical-height-mm="297" data-process-ppi="600" data-canonical-ppi="300" data-entry-process="photocopy-toner"><g id="paper-stock"><defs><linearGradient id="edgeTone" x1="0" x2="1" y1="0" y2="1"><stop offset="0" stop-color="#5B574F" stop-opacity="0.016"/><stop offset=".08" stop-color="#FFFFFF" stop-opacity="0"/><stop offset=".90" stop-color="#FFFFFF" stop-opacity="0"/><stop offset="1" stop-color="#4E4B45" stop-opacity="0.019"/></linearGradient><filter id="stockGrain" x="0" y="0" width="100%" height="100%"><feTurbulence type="fractalNoise" baseFrequency="0.045 0.11" numOctaves="2" seed="8647"/><feColorMatrix type="matrix" values="0 0 0 0 0.35  0 0 0 0 0.33  0 0 0 0 0.29  0 0 0 .010 0"/></filter></defs><rect width="210" height="297" fill="#ECEBE6"/><rect width="210" height="297" filter="url(#stockGrain)" opacity=".40"/><path d="M 16.30 68.55 C 55 68.65, 155 68.63, 223.54 68.72" stroke="#6D685F" stroke-opacity="0.0056" stroke-width="0.072" fill="none"/><path d="M 1.51 276.15 C 55 276.31, 155 276.55, 209.38 276.25" stroke="#6D685F" stroke-opacity="0.0050" stroke-width="0.036" fill="none"/><path d="M 11.28 216.22 C 55 216.02, 155 216.45, 221.22 216.20" stroke="#6D685F" stroke-opacity="0.0064" stroke-width="0.057" fill="none"/><path d="M -3.79 29.21 C 55 29.59, 155 29.43, 191.95 29.31" stroke="#6D685F" stroke-opacity="0.0096" stroke-width="0.077" fill="none"/><path d="M 8.69 265.67 C 55 265.56, 155 265.51, 195.01 265.73" stroke="#6D685F" stroke-opacity="0.0046" stroke-width="0.039" fill="none"/><path d="M -4.60 26.07 C 55 26.39, 155 26.29, 210.64 25.97" stroke="#6D685F" stroke-opacity="0.0057" stroke-width="0.079" fill="none"/><path d="M 6.05 196.99 C 55 197.34, 155 197.21, 201.65 197.12" stroke="#6D685F" stroke-opacity="0.0078" stroke-width="0.072" fill="none"/><path d="M 5.76 78.46 C 55 78.83, 155 78.07, 202.25 78.30" stroke="#6D685F" stroke-opacity="0.0074" stroke-width="0.047" fill="none"/><path d="M 7.49 36.69 C 55 36.76, 155 36.53, 195.23 36.82" stroke="#6D685F" stroke-opacity="0.0095" stroke-width="0.043" fill="none"/><path d="M 13.38 227.68 C 55 227.90, 155 227.55, 217.17 227.89" stroke="#6D685F" stroke-opacity="0.0055" stroke-width="0.072" fill="none"/><path d="M 13.85 81.45 C 55 81.69, 155 81.10, 209.23 81.65" stroke="#6D685F" stroke-opacity="0.0052" stroke-width="0.063" fill="none"/><path d="M 3.66 294.38 C 55 294.61, 155 294.46, 199.24 294.31" stroke="#6D685F" stroke-opacity="0.0098" stroke-width="0.041" fill="none"/><path d="M 1.34 226.28 C 55 226.17, 155 226.03, 222.15 226.36" stroke="#6D685F" stroke-opacity="0.0074" stroke-width="0.042" fill="none"/><path d="M -5.87 218.80 C 55 218.67, 155 218.58, 212.73 218.79" stroke="#6D685F" stroke-opacity="0.0083" stroke-width="0.072" fill="none"/><path d="M 12.47 275.63 C 55 275.51, 155 275.88, 200.53 275.48" stroke="#6D685F" stroke-opacity="0.0064" stroke-width="0.069" fill="none"/><path d="M 16.09 292.88 C 55 292.81, 155 292.52, 221.20 292.94" stroke="#6D685F" stroke-opacity="0.0050" stroke-width="0.053" fill="none"/><path d="M 16.29 44.26 C 55 44.50, 155 43.97, 206.10 44.47" stroke="#6D685F" stroke-opacity="0.0060" stroke-width="0.078" fill="none"/><path d="M -4.39 199.64 C 55 199.40, 155 199.35, 203.03 199.49" stroke="#6D685F" stroke-opacity="0.0085" stroke-width="0.067" fill="none"/><path d="M -8.22 129.18 C 55 129.36, 155 128.87, 224.87 129.09" stroke="#6D685F" stroke-opacity="0.0083" stroke-width="0.067" fill="none"/><path d="M -0.41 252.31 C 55 252.52, 155 252.27, 190.01 252.09" stroke="#6D685F" stroke-opacity="0.0080" stroke-width="0.067" fill="none"/><path d="M 19.71 21.44 C 55 21.32, 155 21.69, 198.26 21.38" stroke="#6D685F" stroke-opacity="0.0077" stroke-width="0.085" fill="none"/><path d="M -7.87 292.14 C 55 292.50, 155 292.01, 216.65 292.27" stroke="#6D685F" stroke-opacity="0.0072" stroke-width="0.040" fill="none"/><path d="M -6.53 216.28 C 55 216.34, 155 216.25, 220.85 216.47" stroke="#6D685F" stroke-opacity="0.0090" stroke-width="0.060" fill="none"/><path d="M 7.53 92.86 C 55 92.90, 155 93.14, 214.17 92.75" stroke="#6D685F" stroke-opacity="0.0079" stroke-width="0.080" fill="none"/><path d="M -1.47 287.02 C 55 287.00, 155 286.69, 220.07 287.17" stroke="#6D685F" stroke-opacity="0.0045" stroke-width="0.085" fill="none"/><path d="M 6.27 214.71 C 55 215.05, 155 214.34, 212.89 214.89" stroke="#6D685F" stroke-opacity="0.0084" stroke-width="0.046" fill="none"/><rect width="210" height="297" fill="url(#edgeTone)"/></g><g id="process-content" data-process="photocopy-toner" transform="rotate(-0.158 105 148.5)"><g id="ellery-works-seal" data-process="photocopy-toner">
      <circle cx="24" cy="12.8" r="7.2" fill="none" stroke="#2E2E2D" stroke-opacity="0.750" stroke-width=".34"/>
      <circle cx="24" cy="12.8" r="6.2" fill="none" stroke="#2E2E2D" stroke-opacity="0.510" stroke-width=".19"/>
      <text x="24.000" y="13.800" data-process="photocopy-toner" font-family="'Nimbus Roman',serif" font-size="3.0339" font-weight="700" letter-spacing="0.0000" fill="#2E2E2D" fill-opacity="0.850" text-anchor="middle">WE</text>
      <text x="24.000" y="18.000" data-process="photocopy-toner" font-family="'Nimbus Roman',serif" font-size="1.4817" font-weight="600" letter-spacing="0.0000" fill="#2E2E2D" fill-opacity="0.550" text-anchor="middle">WORKS</text>
    </g><text x="34.000" y="11.800" data-process="photocopy-toner" font-family="'Nimbus Roman',serif" font-size="5.7150" font-weight="700" letter-spacing="0.0106" fill="#2E2E2D" fill-opacity="0.930" text-anchor="start">W. ELLERY / WORKS</text><text x="34.000" y="17.000" data-process="photocopy-toner" font-family="'Nimbus Roman',serif" font-size="2.9633" font-weight="600" letter-spacing="0.0423" fill="#2E2E2D" fill-opacity="0.750" text-anchor="start">ACOUSTIC RECORDING · TECHNICAL SERVICES</text><text x="193.000" y="10.000" data-process="photocopy-toner" font-family="'Nimbus Roman',serif" font-size="2.6458" font-weight="400" letter-spacing="0.0000" fill="#2E2E2D" fill-opacity="0.700" text-anchor="end">Calder Works, Bradford Road</text><text x="193.000" y="14.000" data-process="photocopy-toner" font-family="'Nimbus Roman',serif" font-size="2.6458" font-weight="400" letter-spacing="0.0000" fill="#2E2E2D" fill-opacity="0.700" text-anchor="end">Brighouse, West Yorkshire  HD6 4AA</text><text x="193.000" y="18.000" data-process="photocopy-toner" font-family="'Nimbus Roman',serif" font-size="2.5047" font-weight="400" letter-spacing="0.0000" fill="#2E2E2D" fill-opacity="0.650" text-anchor="end">Telephone 01484 214 417   Fax 01484 214 418</text><line x1="17" y1="23" x2="193" y2="23" data-process="photocopy-toner" stroke="#2E2E2D" stroke-opacity="0.411" stroke-width="0.26"/><text x="17.000" y="34.200" data-process="photocopy-toner" font-family="'Nimbus Roman',serif" font-size="4.7978" font-weight="700" letter-spacing="0.0088" fill="#2C2A26" fill-opacity="1.000" text-anchor="start">FIELD RECORDING LOG</text><text x="193.000" y="34.200" data-process="photocopy-toner" font-family="'Nimbus Roman',serif" font-size="2.6106" font-weight="400" letter-spacing="0.0000" fill="#252525" fill-opacity="0.620" text-anchor="end">Form W.E./FR-17</text><line x1="17" y1="37" x2="193" y2="37" data-process="photocopy-toner" stroke="#494846" stroke-opacity="0.38" stroke-width="0.22"/><text x="17.000" y="43.100" data-process="photocopy-toner" font-family="'Nimbus Roman',serif" font-size="3.1750" font-weight="600" letter-spacing="0.0282" fill="#403E39" fill-opacity="1.000" text-anchor="start">JOB REF.</text><text x="40.000" y="43.100" font-family="'Nimbus Mono PS',monospace" font-size="4.0217" font-weight="400" letter-spacing="0.0000" fill="#232321" fill-opacity="1.000" text-anchor="start">4417-C</text><text x="88.000" y="43.100" data-process="photocopy-toner" font-family="'Nimbus Roman',serif" font-size="3.1750" font-weight="600" letter-spacing="0.0282" fill="#403E39" fill-opacity="1.000" text-anchor="start">SHEET</text><text x="105.000" y="43.100" font-family="'Nimbus Mono PS',monospace" font-size="4.0217" font-weight="400" letter-spacing="0.0000" fill="#232321" fill-opacity="1.000" text-anchor="start">6</text><text x="126.000" y="43.100" data-process="photocopy-toner" font-family="'Nimbus Roman',serif" font-size="3.1750" font-weight="600" letter-spacing="0.0282" fill="#403E39" fill-opacity="1.000" text-anchor="start">TIME</text><text x="142.000" y="43.100" font-family="'Nimbus Mono PS',monospace" font-size="4.0217" font-weight="400" letter-spacing="0.0000" fill="#232321" fill-opacity="1.000" text-anchor="start">02:10</text><line x1="39" y1="44.5" x2="78" y2="44.5" data-process="photocopy-toner" stroke="#494846" stroke-opacity="0.25" stroke-width="0.16"/><line x1="104" y1="44.5" x2="120" y2="44.5" data-process="photocopy-toner" stroke="#494846" stroke-opacity="0.25" stroke-width="0.16"/><line x1="141" y1="44.5" x2="193" y2="44.5" data-process="photocopy-toner" stroke="#494846" stroke-opacity="0.25" stroke-width="0.16"/><text x="17.000" y="50.900" data-process="photocopy-toner" font-family="'Nimbus Roman',serif" font-size="3.1750" font-weight="600" letter-spacing="0.0282" fill="#403E39" fill-opacity="1.000" text-anchor="start">SITE</text><text x="40.000" y="50.900" font-family="'Nimbus Roman',serif" font-size="4.0217" font-weight="400" letter-spacing="0.0000" fill="#232321" fill-opacity="1.000" text-anchor="start">Ellery Conservatoire</text><line x1="39" y1="52.3" x2="193" y2="52.3" data-process="photocopy-toner" stroke="#494846" stroke-opacity="0.25" stroke-width="0.16"/><text x="17.000" y="67.800" data-process="photocopy-toner" font-family="'Nimbus Roman',serif" font-size="3.5560" font-weight="600" letter-spacing="0.0282" fill="#403E39" fill-opacity="1.000" text-anchor="start">FIELD NOTES</text><line x1="17" y1="70" x2="193" y2="70" data-process="photocopy-toner" stroke="#4F4B44" stroke-opacity="0.42" stroke-width="0.24"/><line x1="17" y1="70.72" x2="193" y2="70.72" data-process="photocopy-toner" stroke="#6B665D" stroke-opacity="0.17" stroke-width="0.14"/><line x1="34" y1="77.07" x2="193" y2="77.07" data-process="photocopy-toner" stroke="#716C63" stroke-opacity="0.18" stroke-width="0.15"/><line x1="34" y1="83.41999999999999" x2="193" y2="83.41999999999999" data-process="photocopy-toner" stroke="#716C63" stroke-opacity="0.18" stroke-width="0.15"/><line x1="34" y1="89.76999999999998" x2="193" y2="89.76999999999998" data-process="photocopy-toner" stroke="#716C63" stroke-opacity="0.18" stroke-width="0.15"/><line x1="34" y1="96.11999999999998" x2="193" y2="96.11999999999998" data-process="photocopy-toner" stroke="#716C63" stroke-opacity="0.18" stroke-width="0.15"/><line x1="34" y1="102.46999999999997" x2="193" y2="102.46999999999997" data-process="photocopy-toner" stroke="#716C63" stroke-opacity="0.18" stroke-width="0.15"/><line x1="34" y1="108.81999999999996" x2="193" y2="108.81999999999996" data-process="photocopy-toner" stroke="#716C63" stroke-opacity="0.18" stroke-width="0.15"/><line x1="34" y1="115.16999999999996" x2="193" y2="115.16999999999996" data-process="photocopy-toner" stroke="#716C63" stroke-opacity="0.18" stroke-width="0.15"/><line x1="34" y1="121.51999999999995" x2="193" y2="121.51999999999995" data-process="photocopy-toner" stroke="#716C63" stroke-opacity="0.18" stroke-width="0.15"/><line x1="34" y1="127.86999999999995" x2="193" y2="127.86999999999995" data-process="photocopy-toner" stroke="#716C63" stroke-opacity="0.18" stroke-width="0.15"/><line x1="34" y1="134.21999999999994" x2="193" y2="134.21999999999994" data-process="photocopy-toner" stroke="#716C63" stroke-opacity="0.18" stroke-width="0.15"/><line x1="34" y1="140.56999999999994" x2="193" y2="140.56999999999994" data-process="photocopy-toner" stroke="#716C63" stroke-opacity="0.18" stroke-width="0.15"/><line x1="34" y1="146.91999999999993" x2="193" y2="146.91999999999993" data-process="photocopy-toner" stroke="#716C63" stroke-opacity="0.18" stroke-width="0.15"/><line x1="34" y1="153.26999999999992" x2="193" y2="153.26999999999992" data-process="photocopy-toner" stroke="#716C63" stroke-opacity="0.18" stroke-width="0.15"/><line x1="34" y1="159.61999999999992" x2="193" y2="159.61999999999992" data-process="photocopy-toner" stroke="#716C63" stroke-opacity="0.18" stroke-width="0.15"/><line x1="34" y1="165.9699999999999" x2="193" y2="165.9699999999999" data-process="photocopy-toner" stroke="#716C63" stroke-opacity="0.18" stroke-width="0.15"/><line x1="34" y1="172.3199999999999" x2="193" y2="172.3199999999999" data-process="photocopy-toner" stroke="#716C63" stroke-opacity="0.18" stroke-width="0.15"/><line x1="34" y1="178.6699999999999" x2="193" y2="178.6699999999999" data-process="photocopy-toner" stroke="#716C63" stroke-opacity="0.18" stroke-width="0.15"/><line x1="34" y1="185.0199999999999" x2="193" y2="185.0199999999999" data-process="photocopy-toner" stroke="#716C63" stroke-opacity="0.18" stroke-width="0.15"/><line x1="34" y1="191.3699999999999" x2="193" y2="191.3699999999999" data-process="photocopy-toner" stroke="#716C63" stroke-opacity="0.18" stroke-width="0.15"/><line x1="34" y1="197.71999999999989" x2="193" y2="197.71999999999989" data-process="photocopy-toner" stroke="#716C63" stroke-opacity="0.18" stroke-width="0.15"/><line x1="34" y1="204.06999999999988" x2="193" y2="204.06999999999988" data-process="photocopy-toner" stroke="#716C63" stroke-opacity="0.18" stroke-width="0.15"/><line x1="34" y1="210.41999999999987" x2="193" y2="210.41999999999987" data-process="photocopy-toner" stroke="#716C63" stroke-opacity="0.18" stroke-width="0.15"/><line x1="34" y1="216.76999999999987" x2="193" y2="216.76999999999987" data-process="photocopy-toner" stroke="#716C63" stroke-opacity="0.18" stroke-width="0.15"/><line x1="34" y1="223.11999999999986" x2="193" y2="223.11999999999986" data-process="photocopy-toner" stroke="#716C63" stroke-opacity="0.18" stroke-width="0.15"/><line x1="34" y1="229.46999999999986" x2="193" y2="229.46999999999986" data-process="photocopy-toner" stroke="#716C63" stroke-opacity="0.18" stroke-width="0.15"/><line x1="34" y1="235.81999999999985" x2="193" y2="235.81999999999985" data-process="photocopy-toner" stroke="#716C63" stroke-opacity="0.18" stroke-width="0.15"/><line x1="34" y1="242.16999999999985" x2="193" y2="242.16999999999985" data-process="photocopy-toner" stroke="#716C63" stroke-opacity="0.18" stroke-width="0.15"/><line x1="34" y1="248.51999999999984" x2="193" y2="248.51999999999984" data-process="photocopy-toner" stroke="#716C63" stroke-opacity="0.18" stroke-width="0.15"/><line x1="34" y1="254.86999999999983" x2="193" y2="254.86999999999983" data-process="photocopy-toner" stroke="#716C63" stroke-opacity="0.18" stroke-width="0.15"/><line x1="34" y1="261.21999999999986" x2="193" y2="261.21999999999986" data-process="photocopy-toner" stroke="#716C63" stroke-opacity="0.18" stroke-width="0.15"/><line x1="34" y1="267.5699999999999" x2="193" y2="267.5699999999999" data-process="photocopy-toner" stroke="#716C63" stroke-opacity="0.18" stroke-width="0.15"/><line x1="34" y1="70.72" x2="34" y2="271" data-process="photocopy-toner" stroke="#716C63" stroke-opacity="0.2" stroke-width="0.16"/><text x="38.000" y="77.070" font-family="'Nimbus Mono PS',monospace" font-size="4.2333" font-weight="400" letter-spacing="0.0000" fill="#242321" fill-opacity="0.940" text-anchor="start">Rang the client. Told them the chapel is locked and the key</text><text x="38.000" y="83.420" font-family="'Nimbus Mono PS',monospace" font-size="4.2333" font-weight="400" letter-spacing="0.0000" fill="#242321" fill-opacity="0.940" text-anchor="start">on the key ring is for the original chapel lock, not the</text><text x="38.000" y="89.770" font-family="'Nimbus Mono PS',monospace" font-size="4.2333" font-weight="400" letter-spacing="0.0000" fill="#242321" fill-opacity="0.940" text-anchor="start">replacement lock.</text><text x="38.000" y="108.820" font-family="'Nimbus Mono PS',monospace" font-size="4.2333" font-weight="400" letter-spacing="0.0000" fill="#242321" fill-opacity="0.940" text-anchor="start">Front of house kept the new spare under key control. Box</text><text x="38.000" y="115.170" font-family="'Nimbus Mono PS',monospace" font-size="4.2333" font-weight="400" letter-spacing="0.0000" fill="#242321" fill-opacity="0.940" text-anchor="start">office cabinet, according to the rekey invoice. The tag is</text><text x="38.000" y="121.520" font-family="'Nimbus Mono PS',monospace" font-size="4.2333" font-weight="400" letter-spacing="0.0000" fill="#242321" fill-opacity="0.940" text-anchor="start">in their ledger, not on this sheet.</text><text x="38.000" y="140.570" font-family="'Nimbus Mono PS',monospace" font-size="4.2333" font-weight="400" letter-spacing="0.0000" fill="#242321" fill-opacity="0.940" text-anchor="start">The box office staff door should still answer to the</text><text x="38.000" y="146.920" font-family="'Nimbus Mono PS',monospace" font-size="4.2333" font-weight="400" letter-spacing="0.0000" fill="#242321" fill-opacity="0.940" text-anchor="start">building master key, if the lock has not swollen.</text><text x="38.000" y="165.970" font-family="'Nimbus Mono PS',monospace" font-size="4.2333" font-weight="400" letter-spacing="0.0000" fill="#242321" fill-opacity="0.940" text-anchor="start">I have started leaving these where I turn around. The plan</text><text x="38.000" y="172.320" font-family="'Nimbus Mono PS',monospace" font-size="4.2333" font-weight="400" letter-spacing="0.0000" fill="#242321" fill-opacity="0.940" text-anchor="start">I was given does not match the floor.</text><text x="17.000" y="278.000" data-process="photocopy-toner" font-family="'Nimbus Roman',serif" font-size="2.6458" font-weight="400" letter-spacing="0.0000" fill="#252525" fill-opacity="0.640" text-anchor="start">Continued over  YES / NO</text><line x1="17" y1="282" x2="193" y2="282" data-process="photocopy-toner" stroke="#56534E" stroke-opacity="0.23399999999999999" stroke-width="0.18"/><text x="17.000" y="286.400" data-process="photocopy-toner" font-family="'Nimbus Roman',serif" font-size="2.3636" font-weight="400" letter-spacing="0.0000" fill="#56534E" fill-opacity="0.510" text-anchor="start">W. ELLERY / WORKS · JOB 4417-C</text><text x="193.000" y="286.400" data-process="photocopy-toner" font-family="'Nimbus Roman',serif" font-size="2.3636" font-weight="400" letter-spacing="0.0000" fill="#56534E" fill-opacity="0.510" text-anchor="end">SHEET 1 OF 1</text></g><g id="process-manual" data-process="biro"></g><g id="process-handling" data-process="handling"><rect x="3" y="98.38" width="204" height="1.35" data-process="handling" fill="#6A645A" fill-opacity="0.024"/><line x1="2.5" y1="98.76" x2="207.5" y2="98.76" data-process="handling" stroke="#5D574D" stroke-opacity="0.0979" stroke-width="0.2"/><line x1="2.5" y1="99.17" x2="207.5" y2="99.17" data-process="handling" stroke="#FFFFFF" stroke-opacity="0.1413" stroke-width="0.22"/><line x1="6" y1="99.58" x2="204" y2="99.58" data-process="handling" stroke="#81796C" stroke-opacity="0.0407" stroke-width="0.12"/><rect x="3" y="197.38" width="204" height="1.35" data-process="handling" fill="#6A645A" fill-opacity="0.021"/><line x1="2.5" y1="198.24" x2="207.5" y2="198.24" data-process="handling" stroke="#5D574D" stroke-opacity="0.08410000000000001" stroke-width="0.2"/><line x1="2.5" y1="197.83" x2="207.5" y2="197.83" data-process="handling" stroke="#FFFFFF" stroke-opacity="0.1227" stroke-width="0.22"/><line x1="6" y1="197.42" x2="204" y2="197.42" data-process="handling" stroke="#81796C" stroke-opacity="0.0353" stroke-width="0.12"/><circle cx="16" cy="278" r="30" data-process="handling" fill="#8A806B" fill-opacity="0.021" stroke="#766B57" stroke-opacity="0.064" stroke-width=".34"/><circle cx="19" cy="274" r="22.20" data-process="handling" fill="none" stroke="#8B8068" stroke-opacity="0.038" stroke-width=".22"/><circle cx="22" cy="271" r="12.90" data-process="handling" fill="none" stroke="#A39A87" stroke-opacity="0.030" stroke-width=".16"/><line x1="1.2" y1="38" x2="4.2" y2="38.45" data-process="handling" stroke="#6B6458" stroke-opacity="0.03" stroke-width="0.17"/><line x1="205.8" y1="46" x2="208.4" y2="45.5" data-process="handling" stroke="#FFFFFF" stroke-opacity="0.0296" stroke-width="0.16"/><line x1="1.75" y1="69.4" x2="4.75" y2="69.85000000000001" data-process="handling" stroke="#6B6458" stroke-opacity="0.03" stroke-width="0.17"/><line x1="205.25" y1="77.4" x2="207.85" y2="76.9" data-process="handling" stroke="#FFFFFF" stroke-opacity="0.0296" stroke-width="0.16"/><line x1="2.3" y1="100.8" x2="5.300000000000001" y2="101.25" data-process="handling" stroke="#6B6458" stroke-opacity="0.03" stroke-width="0.17"/><line x1="204.70000000000002" y1="108.8" x2="207.3" y2="108.3" data-process="handling" stroke="#FFFFFF" stroke-opacity="0.0296" stroke-width="0.16"/><line x1="1.2" y1="132.2" x2="4.2" y2="132.64999999999998" data-process="handling" stroke="#6B6458" stroke-opacity="0.03" stroke-width="0.17"/><line x1="205.8" y1="140.2" x2="208.4" y2="139.7" data-process="handling" stroke="#FFFFFF" stroke-opacity="0.0296" stroke-width="0.16"/><line x1="1.75" y1="163.6" x2="4.75" y2="164.04999999999998" data-process="handling" stroke="#6B6458" stroke-opacity="0.03" stroke-width="0.17"/><line x1="205.25" y1="171.6" x2="207.85" y2="171.1" data-process="handling" stroke="#FFFFFF" stroke-opacity="0.0296" stroke-width="0.16"/><line x1="2.3" y1="195" x2="5.300000000000001" y2="195.45" data-process="handling" stroke="#6B6458" stroke-opacity="0.03" stroke-width="0.17"/><line x1="204.70000000000002" y1="203" x2="207.3" y2="202.5" data-process="handling" stroke="#FFFFFF" stroke-opacity="0.0296" stroke-width="0.16"/><line x1="1.2" y1="226.39999999999998" x2="4.2" y2="226.84999999999997" data-process="handling" stroke="#6B6458" stroke-opacity="0.03" stroke-width="0.17"/><line x1="205.8" y1="234.39999999999998" x2="208.4" y2="233.89999999999998" data-process="handling" stroke="#FFFFFF" stroke-opacity="0.0296" stroke-width="0.16"/><line x1="210" y1="286" x2="209.5" y2="284.8" data-process="handling" stroke="#756E62" stroke-opacity="0.055" stroke-width="0.13"/><line x1="208.992" y1="283.3" x2="209.5" y2="282.1" data-process="handling" stroke="#FFFFFF" stroke-opacity="0.073" stroke-width="0.13"/><line x1="207.984" y1="280.6" x2="209.5" y2="279.40000000000003" data-process="handling" stroke="#756E62" stroke-opacity="0.091" stroke-width="0.13"/><line x1="206.976" y1="277.9" x2="209.5" y2="276.7" data-process="handling" stroke="#FFFFFF" stroke-opacity="0.10899999999999999" stroke-width="0.13"/><line x1="205.968" y1="275.2" x2="209.5" y2="274" data-process="handling" stroke="#756E62" stroke-opacity="0.127" stroke-width="0.13"/><line x1="204.96" y1="272.5" x2="209.5" y2="271.3" data-process="handling" stroke="#FFFFFF" stroke-opacity="0.145" stroke-width="0.13"/></g><g id="reproduction-defects" data-process="photocopy-toner"><rect x="139.32" y="0" width="0.110" height="297" fill="#222" fill-opacity="0.007"/><circle cx="168.33" cy="252.39" r="0.045" fill="#242424" fill-opacity="0.010"/><circle cx="93.22" cy="51.26" r="0.073" fill="#242424" fill-opacity="0.013"/><circle cx="141.63" cy="95.83" r="0.103" fill="#242424" fill-opacity="0.012"/><circle cx="16.56" cy="269.02" r="0.041" fill="#242424" fill-opacity="0.014"/><circle cx="142.68" cy="178.69" r="0.084" fill="#242424" fill-opacity="0.015"/><circle cx="177.91" cy="266.12" r="0.126" fill="#242424" fill-opacity="0.012"/><circle cx="201.46" cy="66.16" r="0.123" fill="#242424" fill-opacity="0.015"/><circle cx="136.98" cy="69.87" r="0.048" fill="#242424" fill-opacity="0.012"/><circle cx="125.70" cy="44.59" r="0.119" fill="#242424" fill-opacity="0.016"/><circle cx="168.93" cy="40.06" r="0.121" fill="#242424" fill-opacity="0.012"/><circle cx="63.66" cy="149.73" r="0.036" fill="#242424" fill-opacity="0.012"/></g></svg>