<?xml version="1.0" encoding="UTF-8"?>
<svg xmlns="http://www.w3.org/2000/svg" width="2480" height="3508" viewBox="0 0 210 297" data-format="A4" data-physical-width-mm="210" data-physical-height-mm="297" data-process-ppi="600" data-canonical-ppi="300" data-entry-process="photocopy-toner"><g id="paper-stock"><defs><linearGradient id="edgeTone" x1="0" x2="1" y1="0" y2="1"><stop offset="0" stop-color="#5B574F" stop-opacity="0.028"/><stop offset=".08" stop-color="#FFFFFF" stop-opacity="0"/><stop offset=".90" stop-color="#FFFFFF" stop-opacity="0"/><stop offset="1" stop-color="#4E4B45" stop-opacity="0.035"/></linearGradient><filter id="stockGrain" x="0" y="0" width="100%" height="100%"><feTurbulence type="fractalNoise" baseFrequency="0.045 0.11" numOctaves="2" seed="9833"/><feColorMatrix type="matrix" values="0 0 0 0 0.35  0 0 0 0 0.33  0 0 0 0 0.29  0 0 0 .010 0"/></filter></defs><rect width="210" height="297" fill="#E8E7E2"/><rect width="210" height="297" filter="url(#stockGrain)" opacity=".40"/><path d="M 1.62 283.22 C 55 282.94, 155 283.57, 207.26 283.14" stroke="#6D685F" stroke-opacity="0.0089" stroke-width="0.045" fill="none"/><path d="M 18.55 73.64 C 55 73.30, 155 73.97, 215.13 73.44" stroke="#6D685F" stroke-opacity="0.0091" stroke-width="0.065" fill="none"/><path d="M 2.91 133.14 C 55 133.24, 155 132.84, 190.23 132.97" stroke="#6D685F" stroke-opacity="0.0052" stroke-width="0.050" fill="none"/><path d="M 17.16 40.74 C 55 40.63, 155 40.77, 215.86 40.63" stroke="#6D685F" stroke-opacity="0.0075" stroke-width="0.079" fill="none"/><path d="M 18.44 81.90 C 55 81.94, 155 82.25, 207.89 81.78" stroke="#6D685F" stroke-opacity="0.0082" stroke-width="0.076" fill="none"/><path d="M 1.61 196.76 C 55 196.68, 155 196.78, 212.42 196.94" stroke="#6D685F" stroke-opacity="0.0080" stroke-width="0.058" fill="none"/><path d="M -6.11 283.92 C 55 283.95, 155 284.21, 207.42 283.90" stroke="#6D685F" stroke-opacity="0.0046" stroke-width="0.066" fill="none"/><path d="M -1.59 147.99 C 55 148.38, 155 147.62, 201.05 148.11" stroke="#6D685F" stroke-opacity="0.0047" stroke-width="0.048" fill="none"/><path d="M 13.54 94.62 C 55 94.52, 155 94.51, 214.02 94.52" stroke="#6D685F" stroke-opacity="0.0097" stroke-width="0.067" fill="none"/><path d="M 7.76 251.46 C 55 251.32, 155 251.80, 221.76 251.60" stroke="#6D685F" stroke-opacity="0.0099" stroke-width="0.076" fill="none"/><path d="M 14.90 173.97 C 55 173.66, 155 173.71, 216.02 173.90" stroke="#6D685F" stroke-opacity="0.0042" stroke-width="0.083" fill="none"/><path d="M 0.92 148.41 C 55 148.15, 155 148.49, 196.69 148.43" stroke="#6D685F" stroke-opacity="0.0057" stroke-width="0.054" fill="none"/><path d="M 18.53 156.65 C 55 157.02, 155 156.35, 205.33 156.52" stroke="#6D685F" stroke-opacity="0.0074" stroke-width="0.053" fill="none"/><path d="M 19.05 247.86 C 55 248.18, 155 247.61, 204.44 247.89" stroke="#6D685F" stroke-opacity="0.0051" stroke-width="0.079" fill="none"/><path d="M 18.50 0.02 C 55 -0.26, 155 0.08, 201.26 -0.04" stroke="#6D685F" stroke-opacity="0.0096" stroke-width="0.085" fill="none"/><path d="M -7.87 239.86 C 55 239.70, 155 239.71, 195.73 239.92" stroke="#6D685F" stroke-opacity="0.0077" stroke-width="0.079" fill="none"/><path d="M -8.82 273.15 C 55 273.40, 155 273.04, 218.08 273.10" stroke="#6D685F" stroke-opacity="0.0096" stroke-width="0.074" fill="none"/><path d="M 5.63 56.29 C 55 56.09, 155 56.09, 201.14 56.22" stroke="#6D685F" stroke-opacity="0.0083" stroke-width="0.084" fill="none"/><path d="M 9.01 117.95 C 55 117.96, 155 117.76, 200.77 118.11" stroke="#6D685F" stroke-opacity="0.0081" stroke-width="0.053" fill="none"/><path d="M -1.17 65.04 C 55 65.27, 155 65.33, 209.26 64.92" stroke="#6D685F" stroke-opacity="0.0057" stroke-width="0.040" fill="none"/><path d="M 4.91 42.85 C 55 43.08, 155 42.96, 203.83 42.91" stroke="#6D685F" stroke-opacity="0.0070" stroke-width="0.080" fill="none"/><path d="M -6.35 167.30 C 55 167.43, 155 167.31, 221.31 167.48" stroke="#6D685F" stroke-opacity="0.0043" stroke-width="0.042" fill="none"/><path d="M 18.77 133.59 C 55 133.51, 155 133.94, 211.74 133.64" stroke="#6D685F" stroke-opacity="0.0098" stroke-width="0.037" fill="none"/><path d="M -9.42 239.48 C 55 239.12, 155 239.08, 194.50 239.34" stroke="#6D685F" stroke-opacity="0.0076" stroke-width="0.084" fill="none"/><path d="M 19.38 58.24 C 55 58.01, 155 58.02, 217.78 58.10" stroke="#6D685F" stroke-opacity="0.0060" stroke-width="0.070" fill="none"/><path d="M 18.39 37.04 C 55 37.41, 155 36.98, 195.08 37.25" stroke="#6D685F" stroke-opacity="0.0076" stroke-width="0.049" fill="none"/><rect width="210" height="297" fill="url(#edgeTone)"/></g><g id="process-content" data-process="photocopy-toner" transform="rotate(0.217 105 148.5)"><g id="ellery-works-seal" data-process="photocopy-toner">
      <circle cx="24" cy="12.8" r="7.2" fill="none" stroke="#2E2E2D" stroke-opacity="0.660" stroke-width=".34"/>
      <circle cx="24" cy="12.8" r="6.2" fill="none" stroke="#2E2E2D" stroke-opacity="0.420" stroke-width=".19"/>
      <text x="24.000" y="13.800" data-process="photocopy-toner" font-family="'Nimbus Roman',serif" font-size="3.0339" font-weight="700" letter-spacing="0.0000" fill="#2E2E2D" fill-opacity="0.760" text-anchor="middle">WE</text>
      <text x="24.000" y="18.000" data-process="photocopy-toner" font-family="'Nimbus Roman',serif" font-size="1.4817" font-weight="600" letter-spacing="0.0000" fill="#2E2E2D" fill-opacity="0.460" text-anchor="middle">WORKS</text>
    </g><text x="17.000" y="11.800" data-process="photocopy-toner" font-family="'Nimbus Roman',serif" font-size="4.5861" font-weight="700" letter-spacing="0.0106" fill="#2E2E2D" fill-opacity="0.840" text-anchor="start">W. ELLERY / WORKS</text><line x1="17" y1="18.2" x2="193" y2="18.2" data-process="photocopy-toner" stroke="#2E2E2D" stroke-opacity="0.384" stroke-width="0.26"/><text x="17.000" y="27.600" data-process="photocopy-toner" font-family="'Nimbus Roman',serif" font-size="3.8100" font-weight="700" letter-spacing="0.0088" fill="#2C2A26" fill-opacity="1.000" text-anchor="start">FIELD NOTE</text><text x="193.000" y="25.500" font-family="'Nimbus Mono PS',monospace" font-size="1.9756" font-weight="400" letter-spacing="0.0000" fill="#252525" fill-opacity="0.460" text-anchor="end">THIS-PAGE</text><line x1="17" y1="31" x2="193" y2="31" data-process="photocopy-toner" stroke="#5B574F" stroke-opacity="0.3" stroke-width="0.18"/><line x1="29" y1="37.35" x2="193" y2="37.35" data-process="photocopy-toner" stroke="#716C63" stroke-opacity="0.18" stroke-width="0.15"/><line x1="29" y1="43.7" x2="193" y2="43.7" data-process="photocopy-toner" stroke="#716C63" stroke-opacity="0.18" stroke-width="0.15"/><line x1="29" y1="50.050000000000004" x2="193" y2="50.050000000000004" data-process="photocopy-toner" stroke="#716C63" stroke-opacity="0.18" stroke-width="0.15"/><line x1="29" y1="56.400000000000006" x2="193" y2="56.400000000000006" data-process="photocopy-toner" stroke="#716C63" stroke-opacity="0.18" stroke-width="0.15"/><line x1="29" y1="62.75000000000001" x2="193" y2="62.75000000000001" data-process="photocopy-toner" stroke="#716C63" stroke-opacity="0.18" stroke-width="0.15"/><line x1="29" y1="69.10000000000001" x2="193" y2="69.10000000000001" data-process="photocopy-toner" stroke="#716C63" stroke-opacity="0.18" stroke-width="0.15"/><line x1="29" y1="75.45" x2="193" y2="75.45" data-process="photocopy-toner" stroke="#716C63" stroke-opacity="0.18" stroke-width="0.15"/><line x1="29" y1="81.8" x2="193" y2="81.8" data-process="photocopy-toner" stroke="#716C63" stroke-opacity="0.18" stroke-width="0.15"/><line x1="29" y1="88.14999999999999" x2="193" y2="88.14999999999999" data-process="photocopy-toner" stroke="#716C63" stroke-opacity="0.18" stroke-width="0.15"/><line x1="29" y1="94.49999999999999" x2="193" y2="94.49999999999999" data-process="photocopy-toner" stroke="#716C63" stroke-opacity="0.18" stroke-width="0.15"/><line x1="29" y1="100.84999999999998" x2="193" y2="100.84999999999998" data-process="photocopy-toner" stroke="#716C63" stroke-opacity="0.18" stroke-width="0.15"/><line x1="29" y1="107.19999999999997" x2="193" y2="107.19999999999997" data-process="photocopy-toner" stroke="#716C63" stroke-opacity="0.18" stroke-width="0.15"/><line x1="29" y1="113.54999999999997" x2="193" y2="113.54999999999997" data-process="photocopy-toner" stroke="#716C63" stroke-opacity="0.18" stroke-width="0.15"/><line x1="29" y1="119.89999999999996" x2="193" y2="119.89999999999996" data-process="photocopy-toner" stroke="#716C63" stroke-opacity="0.18" stroke-width="0.15"/><line x1="29" y1="126.24999999999996" x2="193" y2="126.24999999999996" data-process="photocopy-toner" stroke="#716C63" stroke-opacity="0.18" stroke-width="0.15"/><line x1="29" y1="132.59999999999997" x2="193" y2="132.59999999999997" data-process="photocopy-toner" stroke="#716C63" stroke-opacity="0.18" stroke-width="0.15"/><line x1="29" y1="138.94999999999996" x2="193" y2="138.94999999999996" data-process="photocopy-toner" stroke="#716C63" stroke-opacity="0.18" stroke-width="0.15"/><line x1="29" y1="145.29999999999995" x2="193" y2="145.29999999999995" data-process="photocopy-toner" stroke="#716C63" stroke-opacity="0.18" stroke-width="0.15"/><line x1="29" y1="151.64999999999995" x2="193" y2="151.64999999999995" data-process="photocopy-toner" stroke="#716C63" stroke-opacity="0.18" stroke-width="0.15"/><line x1="29" y1="157.99999999999994" x2="193" y2="157.99999999999994" data-process="photocopy-toner" stroke="#716C63" stroke-opacity="0.18" stroke-width="0.15"/><line x1="29" y1="164.34999999999994" x2="193" y2="164.34999999999994" data-process="photocopy-toner" stroke="#716C63" stroke-opacity="0.18" stroke-width="0.15"/><line x1="29" y1="170.69999999999993" x2="193" y2="170.69999999999993" data-process="photocopy-toner" stroke="#716C63" stroke-opacity="0.18" stroke-width="0.15"/><line x1="29" y1="177.04999999999993" x2="193" y2="177.04999999999993" data-process="photocopy-toner" stroke="#716C63" stroke-opacity="0.18" stroke-width="0.15"/><line x1="29" y1="183.39999999999992" x2="193" y2="183.39999999999992" data-process="photocopy-toner" stroke="#716C63" stroke-opacity="0.18" stroke-width="0.15"/><line x1="29" y1="189.74999999999991" x2="193" y2="189.74999999999991" data-process="photocopy-toner" stroke="#716C63" stroke-opacity="0.18" stroke-width="0.15"/><line x1="29" y1="196.0999999999999" x2="193" y2="196.0999999999999" data-process="photocopy-toner" stroke="#716C63" stroke-opacity="0.18" stroke-width="0.15"/><line x1="29" y1="202.4499999999999" x2="193" y2="202.4499999999999" data-process="photocopy-toner" stroke="#716C63" stroke-opacity="0.18" stroke-width="0.15"/><line x1="29" y1="208.7999999999999" x2="193" y2="208.7999999999999" data-process="photocopy-toner" stroke="#716C63" stroke-opacity="0.18" stroke-width="0.15"/><line x1="29" y1="215.1499999999999" x2="193" y2="215.1499999999999" data-process="photocopy-toner" stroke="#716C63" stroke-opacity="0.18" stroke-width="0.15"/><line x1="29" y1="221.4999999999999" x2="193" y2="221.4999999999999" data-process="photocopy-toner" stroke="#716C63" stroke-opacity="0.18" stroke-width="0.15"/><line x1="29" y1="227.84999999999988" x2="193" y2="227.84999999999988" data-process="photocopy-toner" stroke="#716C63" stroke-opacity="0.18" stroke-width="0.15"/><line x1="29" y1="234.19999999999987" x2="193" y2="234.19999999999987" data-process="photocopy-toner" stroke="#716C63" stroke-opacity="0.18" stroke-width="0.15"/><line x1="29" y1="240.54999999999987" x2="193" y2="240.54999999999987" data-process="photocopy-toner" stroke="#716C63" stroke-opacity="0.18" stroke-width="0.15"/><line x1="29" y1="246.89999999999986" x2="193" y2="246.89999999999986" data-process="photocopy-toner" stroke="#716C63" stroke-opacity="0.18" stroke-width="0.15"/><line x1="29" y1="253.24999999999986" x2="193" y2="253.24999999999986" data-process="photocopy-toner" stroke="#716C63" stroke-opacity="0.18" stroke-width="0.15"/><line x1="29" y1="259.59999999999985" x2="193" y2="259.59999999999985" data-process="photocopy-toner" stroke="#716C63" stroke-opacity="0.18" stroke-width="0.15"/><line x1="29" y1="265.9499999999999" x2="193" y2="265.9499999999999" data-process="photocopy-toner" stroke="#716C63" stroke-opacity="0.18" stroke-width="0.15"/><line x1="29" y1="31" x2="29" y2="270" data-process="photocopy-toner" stroke="#716C63" stroke-opacity="0.2" stroke-width="0.16"/><text x="33.000" y="37.350" font-family="'Nimbus Mono PS',monospace" font-size="4.2333" font-weight="400" letter-spacing="0.0000" fill="#242321" fill-opacity="0.940" text-anchor="start">I used the backs because I ran out of clean forms.</text><text x="33.000" y="43.700" font-family="'Nimbus Mono PS',monospace" font-size="4.2333" font-weight="400" letter-spacing="0.0000" fill="#242321" fill-opacity="0.940" text-anchor="start">That is why there is writing under this.</text><text x="33.000" y="50.050" font-family="'Nimbus Mono PS',monospace" font-size="4.2333" font-weight="400" letter-spacing="0.0000" fill="#242321" fill-opacity="0.940" text-anchor="start">I don't remember the writing under this.</text><line x1="17" y1="282" x2="193" y2="282" data-process="photocopy-toner" stroke="#56534E" stroke-opacity="0.216" stroke-width="0.18"/><text x="17.000" y="286.400" data-process="photocopy-toner" font-family="'Nimbus Roman',serif" font-size="2.3636" font-weight="400" letter-spacing="0.0000" fill="#56534E" fill-opacity="0.420" text-anchor="start">W. ELLERY / WORKS · WEST YORKSHIRE</text><text x="193.000" y="286.400" data-process="photocopy-toner" font-family="'Nimbus Roman',serif" font-size="2.3636" font-weight="400" letter-spacing="0.0000" fill="#56534E" fill-opacity="0.420" text-anchor="end">SHEET 1 OF 1</text></g><g id="process-manual" data-process="biro"></g><g id="process-handling" data-process="handling"><rect x="3" y="150.38" width="204" height="1.35" data-process="handling" fill="#6A645A" fill-opacity="0.021"/><line x1="2.5" y1="150.76" x2="207.5" y2="150.76" data-process="handling" stroke="#5D574D" stroke-opacity="0.08410000000000001" stroke-width="0.2"/><line x1="2.5" y1="151.17" x2="207.5" y2="151.17" data-process="handling" stroke="#FFFFFF" stroke-opacity="0.1227" stroke-width="0.22"/><line x1="6" y1="151.58" x2="204" y2="151.58" data-process="handling" stroke="#81796C" stroke-opacity="0.0353" stroke-width="0.12"/><circle cx="16" cy="278" r="34" data-process="handling" fill="#8A806B" fill-opacity="0.026" stroke="#766B57" stroke-opacity="0.074" stroke-width=".34"/><circle cx="19" cy="274" r="25.16" data-process="handling" fill="none" stroke="#8B8068" stroke-opacity="0.046" stroke-width=".22"/><circle cx="22" cy="271" r="14.62" data-process="handling" fill="none" stroke="#A39A87" stroke-opacity="0.035" stroke-width=".16"/><line x1="1.2" y1="38" x2="4.2" y2="38.45" data-process="handling" stroke="#6B6458" stroke-opacity="0.039" stroke-width="0.17"/><line x1="205.8" y1="46" x2="208.4" y2="45.5" data-process="handling" stroke="#FFFFFF" stroke-opacity="0.0368" stroke-width="0.16"/><line x1="1.75" y1="69.4" x2="4.75" y2="69.85000000000001" data-process="handling" stroke="#6B6458" stroke-opacity="0.039" stroke-width="0.17"/><line x1="205.25" y1="77.4" x2="207.85" y2="76.9" data-process="handling" stroke="#FFFFFF" stroke-opacity="0.0368" stroke-width="0.16"/><line x1="2.3" y1="100.8" x2="5.300000000000001" y2="101.25" data-process="handling" stroke="#6B6458" stroke-opacity="0.039" stroke-width="0.17"/><line x1="204.70000000000002" y1="108.8" x2="207.3" y2="108.3" data-process="handling" stroke="#FFFFFF" stroke-opacity="0.0368" stroke-width="0.16"/><line x1="1.2" y1="132.2" x2="4.2" y2="132.64999999999998" data-process="handling" stroke="#6B6458" stroke-opacity="0.039" stroke-width="0.17"/><line x1="205.8" y1="140.2" x2="208.4" y2="139.7" data-process="handling" stroke="#FFFFFF" stroke-opacity="0.0368" stroke-width="0.16"/><line x1="1.75" y1="163.6" x2="4.75" y2="164.04999999999998" data-process="handling" stroke="#6B6458" stroke-opacity="0.039" stroke-width="0.17"/><line x1="205.25" y1="171.6" x2="207.85" y2="171.1" data-process="handling" stroke="#FFFFFF" stroke-opacity="0.0368" stroke-width="0.16"/><line x1="2.3" y1="195" x2="5.300000000000001" y2="195.45" data-process="handling" stroke="#6B6458" stroke-opacity="0.039" stroke-width="0.17"/><line x1="204.70000000000002" y1="203" x2="207.3" y2="202.5" data-process="handling" stroke="#FFFFFF" stroke-opacity="0.0368" stroke-width="0.16"/><line x1="1.2" y1="226.39999999999998" x2="4.2" y2="226.84999999999997" data-process="handling" stroke="#6B6458" stroke-opacity="0.039" stroke-width="0.17"/><line x1="205.8" y1="234.39999999999998" x2="208.4" y2="233.89999999999998" data-process="handling" stroke="#FFFFFF" stroke-opacity="0.0368" stroke-width="0.16"/><line x1="210" y1="286" x2="209.5" y2="284.8" data-process="handling" stroke="#756E62" stroke-opacity="0.055" stroke-width="0.13"/><line x1="207.84" y1="283.3" x2="209.5" y2="282.1" data-process="handling" stroke="#FFFFFF" stroke-opacity="0.073" stroke-width="0.13"/><line x1="205.68" y1="280.6" x2="208.98000000000002" y2="279.40000000000003" data-process="handling" stroke="#756E62" stroke-opacity="0.091" stroke-width="0.13"/><line x1="203.52" y1="277.9" x2="207.27" y2="276.7" data-process="handling" stroke="#FFFFFF" stroke-opacity="0.10899999999999999" stroke-width="0.13"/><line x1="201.36" y1="275.2" x2="205.56000000000003" y2="274" data-process="handling" stroke="#756E62" stroke-opacity="0.127" stroke-width="0.13"/><line x1="199.2" y1="272.5" x2="203.85" y2="271.3" data-process="handling" stroke="#FFFFFF" stroke-opacity="0.145" stroke-width="0.13"/></g><g id="reproduction-defects" data-process="photocopy-toner"><rect x="113.16" y="0" width="0.200" height="297" fill="#222" fill-opacity="0.016"/><circle cx="35.69" cy="135.70" r="0.095" fill="#242424" fill-opacity="0.021"/><circle cx="153.19" cy="264.78" r="0.037" fill="#242424" fill-opacity="0.022"/><circle cx="207.62" cy="112.94" r="0.134" fill="#242424" fill-opacity="0.019"/><circle cx="140.71" cy="123.49" r="0.123" fill="#242424" fill-opacity="0.024"/><circle cx="22.86" cy="143.63" r="0.107" fill="#242424" fill-opacity="0.018"/><circle cx="31.98" cy="249.80" r="0.043" fill="#242424" fill-opacity="0.026"/><circle cx="165.57" cy="117.13" r="0.037" fill="#242424" fill-opacity="0.024"/><circle cx="11.82" cy="258.26" r="0.063" fill="#242424" fill-opacity="0.025"/><circle cx="150.05" cy="102.84" r="0.116" fill="#242424" fill-opacity="0.022"/><circle cx="144.14" cy="248.73" r="0.049" fill="#242424" fill-opacity="0.019"/><circle cx="108.06" cy="27.00" r="0.104" fill="#242424" fill-opacity="0.025"/><circle cx="202.80" cy="62.34" r="0.062" fill="#242424" fill-opacity="0.025"/><circle cx="46.08" cy="223.97" r="0.062" fill="#242424" fill-opacity="0.023"/><circle cx="84.04" cy="252.12" r="0.072" fill="#242424" fill-opacity="0.025"/><circle cx="107.80" cy="38.72" r="0.043" fill="#242424" fill-opacity="0.023"/><circle cx="182.89" cy="193.28" r="0.139" fill="#242424" fill-opacity="0.020"/><circle cx="37.35" cy="202.90" r="0.109" fill="#242424" fill-opacity="0.026"/><circle cx="102.96" cy="35.25" r="0.054" fill="#242424" fill-opacity="0.018"/><circle cx="118.22" cy="193.54" r="0.065" fill="#242424" fill-opacity="0.019"/><circle cx="26.54" cy="41.58" r="0.042" fill="#242424" fill-opacity="0.026"/><circle cx="186.12" cy="111.27" r="0.073" fill="#242424" fill-opacity="0.019"/><circle cx="28.59" cy="280.49" r="0.040" fill="#242424" fill-opacity="0.022"/><circle cx="171.54" cy="120.82" r="0.111" fill="#242424" fill-opacity="0.019"/><circle cx="147.47" cy="86.68" r="0.102" fill="#242424" fill-opacity="0.018"/><circle cx="56.56" cy="23.00" r="0.132" fill="#242424" fill-opacity="0.026"/><circle cx="165.78" cy="275.50" r="0.091" fill="#242424" fill-opacity="0.022"/><circle cx="114.44" cy="244.01" r="0.144" fill="#242424" fill-opacity="0.021"/><circle cx="23.39" cy="229.59" r="0.063" fill="#242424" fill-opacity="0.025"/><circle cx="37.48" cy="177.24" r="0.069" fill="#242424" fill-opacity="0.022"/><circle cx="33.79" cy="108.16" r="0.145" fill="#242424" fill-opacity="0.020"/><circle cx="127.65" cy="125.12" r="0.094" fill="#242424" fill-opacity="0.024"/><circle cx="86.64" cy="177.06" r="0.138" fill="#242424" fill-opacity="0.020"/><circle cx="4.83" cy="250.69" r="0.137" fill="#242424" fill-opacity="0.022"/><circle cx="65.40" cy="229.29" r="0.074" fill="#242424" fill-opacity="0.024"/><circle cx="134.95" cy="30.69" r="0.113" fill="#242424" fill-opacity="0.024"/><rect x="0" y="0" width="210" height="297" fill="#333" fill-opacity="0.022"/></g></svg>