<?xml version="1.0" encoding="UTF-8"?>
<svg xmlns="http://www.w3.org/2000/svg" width="2480" height="3508" viewBox="0 0 210 297" data-format="A4" data-physical-width-mm="210" data-physical-height-mm="297" data-process-ppi="600" data-canonical-ppi="300" data-entry-process="photocopy-toner"><g id="paper-stock"><defs><linearGradient id="edgeTone" x1="0" x2="1" y1="0" y2="1"><stop offset="0" stop-color="#5B574F" stop-opacity="0.021"/><stop offset=".08" stop-color="#FFFFFF" stop-opacity="0"/><stop offset=".90" stop-color="#FFFFFF" stop-opacity="0"/><stop offset="1" stop-color="#4E4B45" stop-opacity="0.026"/></linearGradient><filter id="stockGrain" x="0" y="0" width="100%" height="100%"><feTurbulence type="fractalNoise" baseFrequency="0.045 0.11" numOctaves="2" seed="2866"/><feColorMatrix type="matrix" values="0 0 0 0 0.35  0 0 0 0 0.33  0 0 0 0 0.29  0 0 0 .010 0"/></filter></defs><rect width="210" height="297" fill="#E8E7E2"/><rect width="210" height="297" filter="url(#stockGrain)" opacity=".40"/><path d="M -4.36 279.19 C 55 279.57, 155 279.57, 202.66 279.41" stroke="#6D685F" stroke-opacity="0.0091" stroke-width="0.068" fill="none"/><path d="M -5.26 91.60 C 55 91.75, 155 91.79, 196.57 91.73" stroke="#6D685F" stroke-opacity="0.0072" stroke-width="0.072" fill="none"/><path d="M 4.63 177.24 C 55 177.29, 155 176.88, 223.93 177.40" stroke="#6D685F" stroke-opacity="0.0086" stroke-width="0.074" fill="none"/><path d="M -3.78 277.38 C 55 277.56, 155 277.08, 207.68 277.52" stroke="#6D685F" stroke-opacity="0.0050" stroke-width="0.083" fill="none"/><path d="M -1.66 30.43 C 55 30.66, 155 30.69, 199.32 30.47" stroke="#6D685F" stroke-opacity="0.0069" stroke-width="0.049" fill="none"/><path d="M -2.52 245.32 C 55 245.01, 155 245.15, 203.56 245.41" stroke="#6D685F" stroke-opacity="0.0050" stroke-width="0.055" fill="none"/><path d="M 14.94 55.61 C 55 55.63, 155 55.46, 195.19 55.60" stroke="#6D685F" stroke-opacity="0.0079" stroke-width="0.057" fill="none"/><path d="M 9.82 99.95 C 55 100.22, 155 100.20, 215.63 99.73" stroke="#6D685F" stroke-opacity="0.0043" stroke-width="0.061" fill="none"/><path d="M -9.89 47.42 C 55 47.74, 155 47.23, 218.44 47.31" stroke="#6D685F" stroke-opacity="0.0052" stroke-width="0.044" fill="none"/><path d="M 7.22 241.91 C 55 241.88, 155 241.82, 195.93 241.90" stroke="#6D685F" stroke-opacity="0.0057" stroke-width="0.052" fill="none"/><path d="M 8.61 48.32 C 55 48.40, 155 48.48, 196.10 48.20" stroke="#6D685F" stroke-opacity="0.0064" stroke-width="0.037" fill="none"/><path d="M -0.74 88.68 C 55 88.38, 155 89.05, 195.11 88.69" stroke="#6D685F" stroke-opacity="0.0099" stroke-width="0.062" fill="none"/><path d="M 0.52 64.19 C 55 64.42, 155 64.18, 223.30 64.17" stroke="#6D685F" stroke-opacity="0.0078" stroke-width="0.066" fill="none"/><path d="M 15.71 140.95 C 55 141.34, 155 140.75, 190.79 141.01" stroke="#6D685F" stroke-opacity="0.0051" stroke-width="0.063" fill="none"/><path d="M -7.35 59.44 C 55 59.14, 155 59.08, 193.82 59.27" stroke="#6D685F" stroke-opacity="0.0065" stroke-width="0.039" fill="none"/><path d="M 17.37 200.14 C 55 199.79, 155 200.31, 212.25 200.10" stroke="#6D685F" stroke-opacity="0.0053" stroke-width="0.045" fill="none"/><path d="M 0.25 189.75 C 55 189.39, 155 189.54, 224.71 189.79" stroke="#6D685F" stroke-opacity="0.0100" stroke-width="0.072" fill="none"/><path d="M 5.94 214.24 C 55 213.96, 155 213.90, 207.09 214.27" stroke="#6D685F" stroke-opacity="0.0057" stroke-width="0.060" fill="none"/><path d="M 17.56 179.42 C 55 179.49, 155 179.42, 222.76 179.40" stroke="#6D685F" stroke-opacity="0.0067" stroke-width="0.052" fill="none"/><path d="M 17.09 112.21 C 55 112.17, 155 111.83, 208.16 112.18" stroke="#6D685F" stroke-opacity="0.0094" stroke-width="0.071" fill="none"/><path d="M 12.05 164.12 C 55 164.08, 155 163.87, 201.17 164.30" stroke="#6D685F" stroke-opacity="0.0063" stroke-width="0.072" fill="none"/><path d="M 5.47 168.23 C 55 168.46, 155 168.61, 210.12 168.08" stroke="#6D685F" stroke-opacity="0.0041" stroke-width="0.037" fill="none"/><path d="M -6.09 42.56 C 55 42.33, 155 42.93, 210.27 42.60" stroke="#6D685F" stroke-opacity="0.0063" stroke-width="0.048" fill="none"/><path d="M -6.01 26.37 C 55 26.43, 155 26.35, 223.31 26.41" stroke="#6D685F" stroke-opacity="0.0066" stroke-width="0.081" fill="none"/><path d="M 7.95 268.35 C 55 268.28, 155 268.03, 221.90 268.14" stroke="#6D685F" stroke-opacity="0.0097" stroke-width="0.082" fill="none"/><path d="M 4.12 1.08 C 55 0.97, 155 0.76, 211.95 0.97" stroke="#6D685F" stroke-opacity="0.0042" stroke-width="0.071" fill="none"/><rect width="210" height="297" fill="url(#edgeTone)"/></g><g id="process-content" data-process="photocopy-toner" transform="rotate(0.221 105 148.5)"><g id="ellery-works-seal" data-process="photocopy-toner">
      <circle cx="24" cy="12.8" r="7.2" fill="none" stroke="#2E2E2D" stroke-opacity="0.720" stroke-width=".34"/>
      <circle cx="24" cy="12.8" r="6.2" fill="none" stroke="#2E2E2D" stroke-opacity="0.480" stroke-width=".19"/>
      <text x="24.000" y="13.800" data-process="photocopy-toner" font-family="'Nimbus Roman',serif" font-size="3.0339" font-weight="700" letter-spacing="0.0000" fill="#2E2E2D" fill-opacity="0.820" text-anchor="middle">WE</text>
      <text x="24.000" y="18.000" data-process="photocopy-toner" font-family="'Nimbus Roman',serif" font-size="1.4817" font-weight="600" letter-spacing="0.0000" fill="#2E2E2D" fill-opacity="0.520" text-anchor="middle">WORKS</text>
    </g><text x="17.000" y="11.800" data-process="photocopy-toner" font-family="'Nimbus Roman',serif" font-size="4.5861" font-weight="700" letter-spacing="0.0106" fill="#2E2E2D" fill-opacity="0.900" text-anchor="start">W. ELLERY / WORKS</text><line x1="17" y1="18.2" x2="193" y2="18.2" data-process="photocopy-toner" stroke="#2E2E2D" stroke-opacity="0.40199999999999997" stroke-width="0.26"/><text x="17.000" y="27.600" data-process="photocopy-toner" font-family="'Nimbus Roman',serif" font-size="3.8100" font-weight="700" letter-spacing="0.0088" fill="#2C2A26" fill-opacity="1.000" text-anchor="start">FIELD NOTE</text><text x="193.000" y="25.500" font-family="'Nimbus Mono PS',monospace" font-size="1.9756" font-weight="400" letter-spacing="0.0000" fill="#252525" fill-opacity="0.460" text-anchor="end">CALL-04</text><line x1="17" y1="31" x2="193" y2="31" data-process="photocopy-toner" stroke="#5B574F" stroke-opacity="0.3" stroke-width="0.18"/><line x1="29" y1="37.35" x2="193" y2="37.35" data-process="photocopy-toner" stroke="#716C63" stroke-opacity="0.18" stroke-width="0.15"/><line x1="29" y1="43.7" x2="193" y2="43.7" data-process="photocopy-toner" stroke="#716C63" stroke-opacity="0.18" stroke-width="0.15"/><line x1="29" y1="50.050000000000004" x2="193" y2="50.050000000000004" data-process="photocopy-toner" stroke="#716C63" stroke-opacity="0.18" stroke-width="0.15"/><line x1="29" y1="56.400000000000006" x2="193" y2="56.400000000000006" data-process="photocopy-toner" stroke="#716C63" stroke-opacity="0.18" stroke-width="0.15"/><line x1="29" y1="62.75000000000001" x2="193" y2="62.75000000000001" data-process="photocopy-toner" stroke="#716C63" stroke-opacity="0.18" stroke-width="0.15"/><line x1="29" y1="69.10000000000001" x2="193" y2="69.10000000000001" data-process="photocopy-toner" stroke="#716C63" stroke-opacity="0.18" stroke-width="0.15"/><line x1="29" y1="75.45" x2="193" y2="75.45" data-process="photocopy-toner" stroke="#716C63" stroke-opacity="0.18" stroke-width="0.15"/><line x1="29" y1="81.8" x2="193" y2="81.8" data-process="photocopy-toner" stroke="#716C63" stroke-opacity="0.18" stroke-width="0.15"/><line x1="29" y1="88.14999999999999" x2="193" y2="88.14999999999999" data-process="photocopy-toner" stroke="#716C63" stroke-opacity="0.18" stroke-width="0.15"/><line x1="29" y1="94.49999999999999" x2="193" y2="94.49999999999999" data-process="photocopy-toner" stroke="#716C63" stroke-opacity="0.18" stroke-width="0.15"/><line x1="29" y1="100.84999999999998" x2="193" y2="100.84999999999998" data-process="photocopy-toner" stroke="#716C63" stroke-opacity="0.18" stroke-width="0.15"/><line x1="29" y1="107.19999999999997" x2="193" y2="107.19999999999997" data-process="photocopy-toner" stroke="#716C63" stroke-opacity="0.18" stroke-width="0.15"/><line x1="29" y1="113.54999999999997" x2="193" y2="113.54999999999997" data-process="photocopy-toner" stroke="#716C63" stroke-opacity="0.18" stroke-width="0.15"/><line x1="29" y1="119.89999999999996" x2="193" y2="119.89999999999996" data-process="photocopy-toner" stroke="#716C63" stroke-opacity="0.18" stroke-width="0.15"/><line x1="29" y1="126.24999999999996" x2="193" y2="126.24999999999996" data-process="photocopy-toner" stroke="#716C63" stroke-opacity="0.18" stroke-width="0.15"/><line x1="29" y1="132.59999999999997" x2="193" y2="132.59999999999997" data-process="photocopy-toner" stroke="#716C63" stroke-opacity="0.18" stroke-width="0.15"/><line x1="29" y1="138.94999999999996" x2="193" y2="138.94999999999996" data-process="photocopy-toner" stroke="#716C63" stroke-opacity="0.18" stroke-width="0.15"/><line x1="29" y1="145.29999999999995" x2="193" y2="145.29999999999995" data-process="photocopy-toner" stroke="#716C63" stroke-opacity="0.18" stroke-width="0.15"/><line x1="29" y1="151.64999999999995" x2="193" y2="151.64999999999995" data-process="photocopy-toner" stroke="#716C63" stroke-opacity="0.18" stroke-width="0.15"/><line x1="29" y1="157.99999999999994" x2="193" y2="157.99999999999994" data-process="photocopy-toner" stroke="#716C63" stroke-opacity="0.18" stroke-width="0.15"/><line x1="29" y1="164.34999999999994" x2="193" y2="164.34999999999994" data-process="photocopy-toner" stroke="#716C63" stroke-opacity="0.18" stroke-width="0.15"/><line x1="29" y1="170.69999999999993" x2="193" y2="170.69999999999993" data-process="photocopy-toner" stroke="#716C63" stroke-opacity="0.18" stroke-width="0.15"/><line x1="29" y1="177.04999999999993" x2="193" y2="177.04999999999993" data-process="photocopy-toner" stroke="#716C63" stroke-opacity="0.18" stroke-width="0.15"/><line x1="29" y1="183.39999999999992" x2="193" y2="183.39999999999992" data-process="photocopy-toner" stroke="#716C63" stroke-opacity="0.18" stroke-width="0.15"/><line x1="29" y1="189.74999999999991" x2="193" y2="189.74999999999991" data-process="photocopy-toner" stroke="#716C63" stroke-opacity="0.18" stroke-width="0.15"/><line x1="29" y1="196.0999999999999" x2="193" y2="196.0999999999999" data-process="photocopy-toner" stroke="#716C63" stroke-opacity="0.18" stroke-width="0.15"/><line x1="29" y1="202.4499999999999" x2="193" y2="202.4499999999999" data-process="photocopy-toner" stroke="#716C63" stroke-opacity="0.18" stroke-width="0.15"/><line x1="29" y1="208.7999999999999" x2="193" y2="208.7999999999999" data-process="photocopy-toner" stroke="#716C63" stroke-opacity="0.18" stroke-width="0.15"/><line x1="29" y1="215.1499999999999" x2="193" y2="215.1499999999999" data-process="photocopy-toner" stroke="#716C63" stroke-opacity="0.18" stroke-width="0.15"/><line x1="29" y1="221.4999999999999" x2="193" y2="221.4999999999999" data-process="photocopy-toner" stroke="#716C63" stroke-opacity="0.18" stroke-width="0.15"/><line x1="29" y1="227.84999999999988" x2="193" y2="227.84999999999988" data-process="photocopy-toner" stroke="#716C63" stroke-opacity="0.18" stroke-width="0.15"/><line x1="29" y1="234.19999999999987" x2="193" y2="234.19999999999987" data-process="photocopy-toner" stroke="#716C63" stroke-opacity="0.18" stroke-width="0.15"/><line x1="29" y1="240.54999999999987" x2="193" y2="240.54999999999987" data-process="photocopy-toner" stroke="#716C63" stroke-opacity="0.18" stroke-width="0.15"/><line x1="29" y1="246.89999999999986" x2="193" y2="246.89999999999986" data-process="photocopy-toner" stroke="#716C63" stroke-opacity="0.18" stroke-width="0.15"/><line x1="29" y1="253.24999999999986" x2="193" y2="253.24999999999986" data-process="photocopy-toner" stroke="#716C63" stroke-opacity="0.18" stroke-width="0.15"/><line x1="29" y1="259.59999999999985" x2="193" y2="259.59999999999985" data-process="photocopy-toner" stroke="#716C63" stroke-opacity="0.18" stroke-width="0.15"/><line x1="29" y1="265.9499999999999" x2="193" y2="265.9499999999999" data-process="photocopy-toner" stroke="#716C63" stroke-opacity="0.18" stroke-width="0.15"/><line x1="29" y1="31" x2="29" y2="270" data-process="photocopy-toner" stroke="#716C63" stroke-opacity="0.2" stroke-width="0.16"/><text x="33.000" y="37.350" font-family="'Nimbus Mono PS',monospace" font-size="4.2333" font-weight="400" letter-spacing="0.0000" fill="#242321" fill-opacity="0.940" text-anchor="start">I watched it</text><text x="33.000" y="43.700" font-family="'Nimbus Mono PS',monospace" font-size="4.2333" font-weight="400" letter-spacing="0.0000" fill="#242321" fill-opacity="0.940" text-anchor="start">I could have stopped the take</text><text x="33.000" y="50.050" font-family="'Nimbus Mono PS',monospace" font-size="4.2333" font-weight="400" letter-spacing="0.0000" fill="#242321" fill-opacity="0.940" text-anchor="start">I could have stopped.</text><line x1="17" y1="282" x2="193" y2="282" data-process="photocopy-toner" stroke="#56534E" stroke-opacity="0.22799999999999998" stroke-width="0.18"/><text x="17.000" y="286.400" data-process="photocopy-toner" font-family="'Nimbus Roman',serif" font-size="2.3636" font-weight="400" letter-spacing="0.0000" fill="#56534E" fill-opacity="0.480" text-anchor="start">W. ELLERY / WORKS · WEST YORKSHIRE</text><text x="193.000" y="286.400" data-process="photocopy-toner" font-family="'Nimbus Roman',serif" font-size="2.3636" font-weight="400" letter-spacing="0.0000" fill="#56534E" fill-opacity="0.480" text-anchor="end">SHEET 1 OF 1</text></g><g id="process-manual" data-process="biro"></g><g id="process-handling" data-process="handling"><rect x="3" y="150.38" width="204" height="1.35" data-process="handling" fill="#6A645A" fill-opacity="0.021"/><line x1="2.5" y1="150.76" x2="207.5" y2="150.76" data-process="handling" stroke="#5D574D" stroke-opacity="0.08410000000000001" stroke-width="0.2"/><line x1="2.5" y1="151.17" x2="207.5" y2="151.17" data-process="handling" stroke="#FFFFFF" stroke-opacity="0.1227" stroke-width="0.22"/><line x1="6" y1="151.58" x2="204" y2="151.58" data-process="handling" stroke="#81796C" stroke-opacity="0.0353" stroke-width="0.12"/><circle cx="16" cy="278" r="34" data-process="handling" fill="#8A806B" fill-opacity="0.026" stroke="#766B57" stroke-opacity="0.074" stroke-width=".34"/><circle cx="19" cy="274" r="25.16" data-process="handling" fill="none" stroke="#8B8068" stroke-opacity="0.046" stroke-width=".22"/><circle cx="22" cy="271" r="14.62" data-process="handling" fill="none" stroke="#A39A87" stroke-opacity="0.035" stroke-width=".16"/><line x1="1.2" y1="38" x2="4.2" y2="38.45" data-process="handling" stroke="#6B6458" stroke-opacity="0.039" stroke-width="0.17"/><line x1="205.8" y1="46" x2="208.4" y2="45.5" data-process="handling" stroke="#FFFFFF" stroke-opacity="0.0368" stroke-width="0.16"/><line x1="1.75" y1="69.4" x2="4.75" y2="69.85000000000001" data-process="handling" stroke="#6B6458" stroke-opacity="0.039" stroke-width="0.17"/><line x1="205.25" y1="77.4" x2="207.85" y2="76.9" data-process="handling" stroke="#FFFFFF" stroke-opacity="0.0368" stroke-width="0.16"/><line x1="2.3" y1="100.8" x2="5.300000000000001" y2="101.25" data-process="handling" stroke="#6B6458" stroke-opacity="0.039" stroke-width="0.17"/><line x1="204.70000000000002" y1="108.8" x2="207.3" y2="108.3" data-process="handling" stroke="#FFFFFF" stroke-opacity="0.0368" stroke-width="0.16"/><line x1="1.2" y1="132.2" x2="4.2" y2="132.64999999999998" data-process="handling" stroke="#6B6458" stroke-opacity="0.039" stroke-width="0.17"/><line x1="205.8" y1="140.2" x2="208.4" y2="139.7" data-process="handling" stroke="#FFFFFF" stroke-opacity="0.0368" stroke-width="0.16"/><line x1="1.75" y1="163.6" x2="4.75" y2="164.04999999999998" data-process="handling" stroke="#6B6458" stroke-opacity="0.039" stroke-width="0.17"/><line x1="205.25" y1="171.6" x2="207.85" y2="171.1" data-process="handling" stroke="#FFFFFF" stroke-opacity="0.0368" stroke-width="0.16"/><line x1="2.3" y1="195" x2="5.300000000000001" y2="195.45" data-process="handling" stroke="#6B6458" stroke-opacity="0.039" stroke-width="0.17"/><line x1="204.70000000000002" y1="203" x2="207.3" y2="202.5" data-process="handling" stroke="#FFFFFF" stroke-opacity="0.0368" stroke-width="0.16"/><line x1="1.2" y1="226.39999999999998" x2="4.2" y2="226.84999999999997" data-process="handling" stroke="#6B6458" stroke-opacity="0.039" stroke-width="0.17"/><line x1="205.8" y1="234.39999999999998" x2="208.4" y2="233.89999999999998" data-process="handling" stroke="#FFFFFF" stroke-opacity="0.0368" stroke-width="0.16"/><line x1="210" y1="286" x2="209.5" y2="284.8" data-process="handling" stroke="#756E62" stroke-opacity="0.055" stroke-width="0.13"/><line x1="207.84" y1="283.3" x2="209.5" y2="282.1" data-process="handling" stroke="#FFFFFF" stroke-opacity="0.073" stroke-width="0.13"/><line x1="205.68" y1="280.6" x2="208.98000000000002" y2="279.40000000000003" data-process="handling" stroke="#756E62" stroke-opacity="0.091" stroke-width="0.13"/><line x1="203.52" y1="277.9" x2="207.27" y2="276.7" data-process="handling" stroke="#FFFFFF" stroke-opacity="0.10899999999999999" stroke-width="0.13"/><line x1="201.36" y1="275.2" x2="205.56000000000003" y2="274" data-process="handling" stroke="#756E62" stroke-opacity="0.127" stroke-width="0.13"/><line x1="199.2" y1="272.5" x2="203.85" y2="271.3" data-process="handling" stroke="#FFFFFF" stroke-opacity="0.145" stroke-width="0.13"/></g><g id="reproduction-defects" data-process="photocopy-toner"><rect x="137.99" y="0" width="0.140" height="297" fill="#222" fill-opacity="0.010"/><circle cx="180.69" cy="235.62" r="0.098" fill="#242424" fill-opacity="0.014"/><circle cx="15.15" cy="276.10" r="0.111" fill="#242424" fill-opacity="0.015"/><circle cx="15.28" cy="79.36" r="0.078" fill="#242424" fill-opacity="0.018"/><circle cx="160.64" cy="114.97" r="0.065" fill="#242424" fill-opacity="0.015"/><circle cx="5.66" cy="156.01" r="0.096" fill="#242424" fill-opacity="0.015"/><circle cx="170.27" cy="182.72" r="0.134" fill="#242424" fill-opacity="0.018"/><circle cx="49.89" cy="25.12" r="0.061" fill="#242424" fill-opacity="0.020"/><circle cx="100.34" cy="247.38" r="0.065" fill="#242424" fill-opacity="0.017"/><circle cx="196.80" cy="178.41" r="0.075" fill="#242424" fill-opacity="0.016"/><circle cx="91.80" cy="280.57" r="0.116" fill="#242424" fill-opacity="0.013"/><circle cx="188.94" cy="135.89" r="0.110" fill="#242424" fill-opacity="0.015"/><circle cx="4.81" cy="59.54" r="0.123" fill="#242424" fill-opacity="0.015"/><circle cx="96.34" cy="66.77" r="0.095" fill="#242424" fill-opacity="0.016"/><circle cx="165.52" cy="116.27" r="0.125" fill="#242424" fill-opacity="0.019"/><circle cx="39.50" cy="82.37" r="0.104" fill="#242424" fill-opacity="0.013"/><circle cx="57.76" cy="14.23" r="0.048" fill="#242424" fill-opacity="0.019"/><circle cx="32.52" cy="58.75" r="0.115" fill="#242424" fill-opacity="0.018"/><circle cx="166.43" cy="227.34" r="0.088" fill="#242424" fill-opacity="0.015"/><circle cx="195.50" cy="220.11" r="0.118" fill="#242424" fill-opacity="0.018"/><rect x="0" y="0" width="210" height="297" fill="#333" fill-opacity="0.014"/></g></svg>