<?xml version="1.0" encoding="UTF-8"?>
<svg xmlns="http://www.w3.org/2000/svg" width="2480" height="3508" viewBox="0 0 210 297" data-format="A4" data-physical-width-mm="210" data-physical-height-mm="297" data-process-ppi="600" data-canonical-ppi="300" data-entry-process="photocopy-toner"><g id="paper-stock"><defs><linearGradient id="edgeTone" x1="0" x2="1" y1="0" y2="1"><stop offset="0" stop-color="#5B574F" stop-opacity="0.016"/><stop offset=".08" stop-color="#FFFFFF" stop-opacity="0"/><stop offset=".90" stop-color="#FFFFFF" stop-opacity="0"/><stop offset="1" stop-color="#4E4B45" stop-opacity="0.019"/></linearGradient><filter id="stockGrain" x="0" y="0" width="100%" height="100%"><feTurbulence type="fractalNoise" baseFrequency="0.045 0.11" numOctaves="2" seed="2146"/><feColorMatrix type="matrix" values="0 0 0 0 0.35  0 0 0 0 0.33  0 0 0 0 0.29  0 0 0 .010 0"/></filter></defs><rect width="210" height="297" fill="#ECEBE6"/><rect width="210" height="297" filter="url(#stockGrain)" opacity=".40"/><path d="M -4.29 131.06 C 55 131.03, 155 131.14, 219.02 130.86" stroke="#6D685F" stroke-opacity="0.0077" stroke-width="0.066" fill="none"/><path d="M 1.71 138.89 C 55 138.53, 155 138.49, 220.11 138.92" stroke="#6D685F" stroke-opacity="0.0072" stroke-width="0.066" fill="none"/><path d="M -6.02 213.69 C 55 213.36, 155 213.66, 212.18 213.82" stroke="#6D685F" stroke-opacity="0.0094" stroke-width="0.054" fill="none"/><path d="M 10.42 142.04 C 55 142.23, 155 142.00, 214.51 142.24" stroke="#6D685F" stroke-opacity="0.0096" stroke-width="0.036" fill="none"/><path d="M 5.48 25.70 C 55 26.02, 155 25.61, 200.76 25.50" stroke="#6D685F" stroke-opacity="0.0071" stroke-width="0.070" fill="none"/><path d="M 4.84 188.08 C 55 188.21, 155 188.29, 223.23 188.00" stroke="#6D685F" stroke-opacity="0.0083" stroke-width="0.036" fill="none"/><path d="M -3.45 272.76 C 55 272.51, 155 272.62, 215.42 272.62" stroke="#6D685F" stroke-opacity="0.0076" stroke-width="0.045" fill="none"/><path d="M 2.06 15.58 C 55 15.28, 155 15.51, 197.12 15.37" stroke="#6D685F" stroke-opacity="0.0065" stroke-width="0.051" fill="none"/><path d="M -2.60 135.25 C 55 135.53, 155 135.07, 201.77 135.27" stroke="#6D685F" stroke-opacity="0.0098" stroke-width="0.077" fill="none"/><path d="M 15.49 220.87 C 55 221.06, 155 221.10, 209.00 220.75" stroke="#6D685F" stroke-opacity="0.0041" stroke-width="0.075" fill="none"/><path d="M 4.23 289.14 C 55 288.93, 155 289.47, 203.79 289.35" stroke="#6D685F" stroke-opacity="0.0047" stroke-width="0.037" fill="none"/><path d="M 0.58 280.10 C 55 280.32, 155 279.87, 206.79 279.94" stroke="#6D685F" stroke-opacity="0.0089" stroke-width="0.038" fill="none"/><path d="M 7.96 163.33 C 55 163.32, 155 163.13, 203.04 163.55" stroke="#6D685F" stroke-opacity="0.0087" stroke-width="0.037" fill="none"/><path d="M 10.47 227.62 C 55 228.01, 155 227.75, 219.75 227.43" stroke="#6D685F" stroke-opacity="0.0067" stroke-width="0.063" fill="none"/><path d="M 11.40 32.00 C 55 32.19, 155 31.96, 210.04 31.84" stroke="#6D685F" stroke-opacity="0.0088" stroke-width="0.084" fill="none"/><path d="M -2.90 267.86 C 55 268.15, 155 268.08, 222.24 267.66" stroke="#6D685F" stroke-opacity="0.0097" stroke-width="0.065" fill="none"/><path d="M -0.01 255.89 C 55 255.69, 155 255.65, 216.11 255.85" stroke="#6D685F" stroke-opacity="0.0097" stroke-width="0.081" fill="none"/><path d="M 15.71 233.96 C 55 234.06, 155 233.92, 218.26 234.08" stroke="#6D685F" stroke-opacity="0.0054" stroke-width="0.073" fill="none"/><path d="M 18.99 162.21 C 55 162.27, 155 162.17, 198.95 162.29" stroke="#6D685F" stroke-opacity="0.0073" stroke-width="0.061" fill="none"/><path d="M -1.78 4.16 C 55 4.19, 155 4.30, 213.81 4.08" stroke="#6D685F" stroke-opacity="0.0099" stroke-width="0.084" fill="none"/><path d="M 19.78 276.35 C 55 276.41, 155 276.36, 202.23 276.14" stroke="#6D685F" stroke-opacity="0.0051" stroke-width="0.036" fill="none"/><path d="M 17.36 36.82 C 55 36.91, 155 36.63, 221.48 36.74" stroke="#6D685F" stroke-opacity="0.0081" stroke-width="0.059" fill="none"/><path d="M 15.54 20.54 C 55 20.26, 155 20.56, 212.53 20.71" stroke="#6D685F" stroke-opacity="0.0088" stroke-width="0.076" fill="none"/><path d="M 19.24 200.76 C 55 201.15, 155 200.53, 200.83 200.78" stroke="#6D685F" stroke-opacity="0.0085" stroke-width="0.042" fill="none"/><path d="M 18.82 171.08 C 55 171.00, 155 170.98, 192.12 171.25" stroke="#6D685F" stroke-opacity="0.0085" stroke-width="0.069" fill="none"/><path d="M 11.87 241.57 C 55 241.26, 155 241.19, 199.82 241.35" stroke="#6D685F" stroke-opacity="0.0042" stroke-width="0.055" fill="none"/><rect width="210" height="297" fill="url(#edgeTone)"/></g><g id="process-content" data-process="photocopy-toner" transform="rotate(0.011 105 148.5)"><g id="ellery-works-seal" data-process="photocopy-toner">
      <circle cx="24" cy="12.8" r="7.2" fill="none" stroke="#2E2E2D" stroke-opacity="0.750" stroke-width=".34"/>
      <circle cx="24" cy="12.8" r="6.2" fill="none" stroke="#2E2E2D" stroke-opacity="0.510" stroke-width=".19"/>
      <text x="24.000" y="13.800" data-process="photocopy-toner" font-family="'Nimbus Roman',serif" font-size="3.0339" font-weight="700" letter-spacing="0.0000" fill="#2E2E2D" fill-opacity="0.850" text-anchor="middle">WE</text>
      <text x="24.000" y="18.000" data-process="photocopy-toner" font-family="'Nimbus Roman',serif" font-size="1.4817" font-weight="600" letter-spacing="0.0000" fill="#2E2E2D" fill-opacity="0.550" text-anchor="middle">WORKS</text>
    </g><text x="34.000" y="11.800" data-process="photocopy-toner" font-family="'Nimbus Roman',serif" font-size="5.7150" font-weight="700" letter-spacing="0.0106" fill="#2E2E2D" fill-opacity="0.930" text-anchor="start">W. ELLERY / WORKS</text><text x="34.000" y="17.000" data-process="photocopy-toner" font-family="'Nimbus Roman',serif" font-size="2.9633" font-weight="600" letter-spacing="0.0423" fill="#2E2E2D" fill-opacity="0.750" text-anchor="start">ACOUSTIC RECORDING · TECHNICAL SERVICES</text><text x="193.000" y="10.000" data-process="photocopy-toner" font-family="'Nimbus Roman',serif" font-size="2.6458" font-weight="400" letter-spacing="0.0000" fill="#2E2E2D" fill-opacity="0.700" text-anchor="end">Calder Works, Bradford Road</text><text x="193.000" y="14.000" data-process="photocopy-toner" font-family="'Nimbus Roman',serif" font-size="2.6458" font-weight="400" letter-spacing="0.0000" fill="#2E2E2D" fill-opacity="0.700" text-anchor="end">Brighouse, West Yorkshire  HD6 4AA</text><text x="193.000" y="18.000" data-process="photocopy-toner" font-family="'Nimbus Roman',serif" font-size="2.5047" font-weight="400" letter-spacing="0.0000" fill="#2E2E2D" fill-opacity="0.650" text-anchor="end">Telephone 01484 214 417   Fax 01484 214 418</text><line x1="17" y1="23" x2="193" y2="23" data-process="photocopy-toner" stroke="#2E2E2D" stroke-opacity="0.411" stroke-width="0.26"/><text x="17.000" y="32.400" data-process="photocopy-toner" font-family="'Nimbus Roman',serif" font-size="4.1628" font-weight="700" letter-spacing="0.0088" fill="#2C2A26" fill-opacity="1.000" text-anchor="start">SITE ATTENDANCE / TIME SHEET</text><text x="17.000" y="43.900" data-process="photocopy-toner" font-family="'Nimbus Roman',serif" font-size="3.6830" font-weight="600" letter-spacing="0.0282" fill="#403E39" fill-opacity="1.000" text-anchor="start">START</text><line x1="39" y1="45.25" x2="75" y2="45.25" data-process="photocopy-toner" stroke="#5E5A52" stroke-opacity="0.31" stroke-width="0.17"/><text x="40.400" y="43.900" font-family="'Nimbus Mono PS',monospace" font-size="4.2757" font-weight="400" letter-spacing="0.0000" fill="#232321" fill-opacity="1.000" text-anchor="start">18:00</text><text x="75.000" y="43.900" data-process="photocopy-toner" font-family="'Nimbus Roman',serif" font-size="3.6830" font-weight="600" letter-spacing="0.0282" fill="#403E39" fill-opacity="1.000" text-anchor="start">END</text><line x1="97" y1="45.25" x2="133" y2="45.25" data-process="photocopy-toner" stroke="#5E5A52" stroke-opacity="0.31" stroke-width="0.17"/><text x="98.400" y="43.900" font-family="'Nimbus Mono PS',monospace" font-size="4.2757" font-weight="400" letter-spacing="0.0000" fill="#232321" fill-opacity="1.000" text-anchor="start">03:00</text><text x="133.000" y="43.900" data-process="photocopy-toner" font-family="'Nimbus Roman',serif" font-size="3.6830" font-weight="600" letter-spacing="0.0282" fill="#403E39" fill-opacity="1.000" text-anchor="start">HOURS</text><line x1="157" y1="45.25" x2="193" y2="45.25" data-process="photocopy-toner" stroke="#5E5A52" stroke-opacity="0.31" stroke-width="0.17"/><text x="158.400" y="43.900" font-family="'Nimbus Mono PS',monospace" font-size="4.2757" font-weight="400" letter-spacing="0.0000" fill="#232321" fill-opacity="1.000" text-anchor="start">9.0 h</text><text x="17.000" y="58.900" data-process="photocopy-toner" font-family="'Nimbus Roman',serif" font-size="3.6830" font-weight="600" letter-spacing="0.0282" fill="#403E39" fill-opacity="1.000" text-anchor="start">NOTE</text><line x1="55" y1="60.25" x2="193" y2="60.25" data-process="photocopy-toner" stroke="#5E5A52" stroke-opacity="0.31" stroke-width="0.17"/><text x="56.400" y="58.900" font-family="'Nimbus Sans',serif" font-size="4.2757" font-weight="400" letter-spacing="0.0000" fill="#232321" fill-opacity="1.000" text-anchor="start">travel excluded</text><text x="17.000" y="72.800" data-process="photocopy-toner" font-family="'Nimbus Roman',serif" font-size="3.5560" font-weight="600" letter-spacing="0.0282" fill="#403E39" fill-opacity="1.000" text-anchor="start">NOTES / ADDITIONAL WORKS</text><line x1="17" y1="75" x2="193" y2="75" data-process="photocopy-toner" stroke="#4F4B44" stroke-opacity="0.42" stroke-width="0.24"/><line x1="17" y1="75.72" x2="193" y2="75.72" data-process="photocopy-toner" stroke="#6B665D" stroke-opacity="0.17" stroke-width="0.14"/><line x1="17" y1="82.07" x2="193" y2="82.07" data-process="photocopy-toner" stroke="#716C63" stroke-opacity="0.18" stroke-width="0.15"/><line x1="17" y1="88.41999999999999" x2="193" y2="88.41999999999999" data-process="photocopy-toner" stroke="#716C63" stroke-opacity="0.18" stroke-width="0.15"/><line x1="17" y1="94.76999999999998" x2="193" y2="94.76999999999998" data-process="photocopy-toner" stroke="#716C63" stroke-opacity="0.18" stroke-width="0.15"/><line x1="17" y1="101.11999999999998" x2="193" y2="101.11999999999998" data-process="photocopy-toner" stroke="#716C63" stroke-opacity="0.18" stroke-width="0.15"/><line x1="17" y1="107.46999999999997" x2="193" y2="107.46999999999997" data-process="photocopy-toner" stroke="#716C63" stroke-opacity="0.18" stroke-width="0.15"/><line x1="17" y1="113.81999999999996" x2="193" y2="113.81999999999996" data-process="photocopy-toner" stroke="#716C63" stroke-opacity="0.18" stroke-width="0.15"/><line x1="17" y1="120.16999999999996" x2="193" y2="120.16999999999996" data-process="photocopy-toner" stroke="#716C63" stroke-opacity="0.18" stroke-width="0.15"/><line x1="17" y1="126.51999999999995" x2="193" y2="126.51999999999995" data-process="photocopy-toner" stroke="#716C63" stroke-opacity="0.18" stroke-width="0.15"/><line x1="17" y1="132.86999999999995" x2="193" y2="132.86999999999995" data-process="photocopy-toner" stroke="#716C63" stroke-opacity="0.18" stroke-width="0.15"/><line x1="17" y1="139.21999999999994" x2="193" y2="139.21999999999994" data-process="photocopy-toner" stroke="#716C63" stroke-opacity="0.18" stroke-width="0.15"/><line x1="17" y1="145.56999999999994" x2="193" y2="145.56999999999994" data-process="photocopy-toner" stroke="#716C63" stroke-opacity="0.18" stroke-width="0.15"/><line x1="17" y1="151.91999999999993" x2="193" y2="151.91999999999993" data-process="photocopy-toner" stroke="#716C63" stroke-opacity="0.18" stroke-width="0.15"/><line x1="17" y1="158.26999999999992" x2="193" y2="158.26999999999992" data-process="photocopy-toner" stroke="#716C63" stroke-opacity="0.18" stroke-width="0.15"/><line x1="17" y1="164.61999999999992" x2="193" y2="164.61999999999992" data-process="photocopy-toner" stroke="#716C63" stroke-opacity="0.18" stroke-width="0.15"/><line x1="17" y1="170.9699999999999" x2="193" y2="170.9699999999999" data-process="photocopy-toner" stroke="#716C63" stroke-opacity="0.18" stroke-width="0.15"/><line x1="17" y1="177.3199999999999" x2="193" y2="177.3199999999999" data-process="photocopy-toner" stroke="#716C63" stroke-opacity="0.18" stroke-width="0.15"/><line x1="17" y1="183.6699999999999" x2="193" y2="183.6699999999999" data-process="photocopy-toner" stroke="#716C63" stroke-opacity="0.18" stroke-width="0.15"/><line x1="17" y1="190.0199999999999" x2="193" y2="190.0199999999999" data-process="photocopy-toner" stroke="#716C63" stroke-opacity="0.18" stroke-width="0.15"/><line x1="17" y1="196.3699999999999" x2="193" y2="196.3699999999999" data-process="photocopy-toner" stroke="#716C63" stroke-opacity="0.18" stroke-width="0.15"/><line x1="17" y1="202.71999999999989" x2="193" y2="202.71999999999989" data-process="photocopy-toner" stroke="#716C63" stroke-opacity="0.18" stroke-width="0.15"/><line x1="17" y1="209.06999999999988" x2="193" y2="209.06999999999988" data-process="photocopy-toner" stroke="#716C63" stroke-opacity="0.18" stroke-width="0.15"/><line x1="17" y1="215.41999999999987" x2="193" y2="215.41999999999987" data-process="photocopy-toner" stroke="#716C63" stroke-opacity="0.18" stroke-width="0.15"/><line x1="17" y1="221.76999999999987" x2="193" y2="221.76999999999987" data-process="photocopy-toner" stroke="#716C63" stroke-opacity="0.18" stroke-width="0.15"/><line x1="17" y1="228.11999999999986" x2="193" y2="228.11999999999986" data-process="photocopy-toner" stroke="#716C63" stroke-opacity="0.18" stroke-width="0.15"/><line x1="17" y1="234.46999999999986" x2="193" y2="234.46999999999986" data-process="photocopy-toner" stroke="#716C63" stroke-opacity="0.18" stroke-width="0.15"/><line x1="17" y1="240.81999999999985" x2="193" y2="240.81999999999985" data-process="photocopy-toner" stroke="#716C63" stroke-opacity="0.18" stroke-width="0.15"/><line x1="17" y1="247.16999999999985" x2="193" y2="247.16999999999985" data-process="photocopy-toner" stroke="#716C63" stroke-opacity="0.18" stroke-width="0.15"/><line x1="17" y1="253.51999999999984" x2="193" y2="253.51999999999984" data-process="photocopy-toner" stroke="#716C63" stroke-opacity="0.18" stroke-width="0.15"/><line x1="17" y1="259.86999999999983" x2="193" y2="259.86999999999983" data-process="photocopy-toner" stroke="#716C63" stroke-opacity="0.18" stroke-width="0.15"/><line x1="17" y1="282" x2="193" y2="282" data-process="photocopy-toner" stroke="#56534E" stroke-opacity="0.23399999999999999" stroke-width="0.18"/><text x="17.000" y="286.400" data-process="photocopy-toner" font-family="'Nimbus Roman',serif" font-size="2.3636" font-weight="400" letter-spacing="0.0000" fill="#56534E" fill-opacity="0.510" text-anchor="start">W. ELLERY / WORKS · WEST YORKSHIRE</text><text x="193.000" y="286.400" data-process="photocopy-toner" font-family="'Nimbus Roman',serif" font-size="2.3636" font-weight="400" letter-spacing="0.0000" fill="#56534E" fill-opacity="0.510" text-anchor="end">SHEET 1 OF 1</text></g><g id="process-manual" data-process="biro"></g><g id="process-handling" data-process="handling"><rect x="3" y="147.88" width="204" height="1.35" data-process="handling" fill="#6A645A" fill-opacity="0.020"/><line x1="2.5" y1="148.26" x2="207.5" y2="148.26" data-process="handling" stroke="#5D574D" stroke-opacity="0.0795" stroke-width="0.2"/><line x1="2.5" y1="148.67" x2="207.5" y2="148.67" data-process="handling" stroke="#FFFFFF" stroke-opacity="0.1165" stroke-width="0.22"/><line x1="6" y1="149.08" x2="204" y2="149.08" data-process="handling" stroke="#81796C" stroke-opacity="0.0335" stroke-width="0.12"/><line x1="17.8" y1="5.3" x2="17.8" y2="20.6" data-process="handling" stroke="#5F594F" stroke-opacity="0.10300000000000001" stroke-width="0.2"/><line x1="20.1" y1="6.4" x2="20.1" y2="18.8" data-process="handling" stroke="#FFFFFF" stroke-opacity="0.06386" stroke-width="0.22"/><line x1="22" y1="7.2" x2="22" y2="17.7" data-process="handling" stroke="#777066" stroke-opacity="0.04326" stroke-width="0.13"/><circle cx="16" cy="278" r="22" data-process="handling" fill="#8A806B" fill-opacity="0.016" stroke="#766B57" stroke-opacity="0.053" stroke-width=".34"/><circle cx="19" cy="274" r="16.28" data-process="handling" fill="none" stroke="#8B8068" stroke-opacity="0.031" stroke-width=".22"/><circle cx="22" cy="271" r="9.46" data-process="handling" fill="none" stroke="#A39A87" stroke-opacity="0.024" stroke-width=".16"/><line x1="1.2" y1="38" x2="4.2" y2="38.45" data-process="handling" stroke="#6B6458" stroke-opacity="0.024" stroke-width="0.17"/><line x1="205.8" y1="46" x2="208.4" y2="45.5" data-process="handling" stroke="#FFFFFF" stroke-opacity="0.0248" stroke-width="0.16"/><line x1="1.75" y1="69.4" x2="4.75" y2="69.85000000000001" data-process="handling" stroke="#6B6458" stroke-opacity="0.024" stroke-width="0.17"/><line x1="205.25" y1="77.4" x2="207.85" y2="76.9" data-process="handling" stroke="#FFFFFF" stroke-opacity="0.0248" stroke-width="0.16"/><line x1="2.3" y1="100.8" x2="5.300000000000001" y2="101.25" data-process="handling" stroke="#6B6458" stroke-opacity="0.024" stroke-width="0.17"/><line x1="204.70000000000002" y1="108.8" x2="207.3" y2="108.3" data-process="handling" stroke="#FFFFFF" stroke-opacity="0.0248" stroke-width="0.16"/><line x1="1.2" y1="132.2" x2="4.2" y2="132.64999999999998" data-process="handling" stroke="#6B6458" stroke-opacity="0.024" stroke-width="0.17"/><line x1="205.8" y1="140.2" x2="208.4" y2="139.7" data-process="handling" stroke="#FFFFFF" stroke-opacity="0.0248" stroke-width="0.16"/><line x1="1.75" y1="163.6" x2="4.75" y2="164.04999999999998" data-process="handling" stroke="#6B6458" stroke-opacity="0.024" stroke-width="0.17"/><line x1="205.25" y1="171.6" x2="207.85" y2="171.1" data-process="handling" stroke="#FFFFFF" stroke-opacity="0.0248" stroke-width="0.16"/><line x1="2.3" y1="195" x2="5.300000000000001" y2="195.45" data-process="handling" stroke="#6B6458" stroke-opacity="0.024" stroke-width="0.17"/><line x1="204.70000000000002" y1="203" x2="207.3" y2="202.5" data-process="handling" stroke="#FFFFFF" stroke-opacity="0.0248" stroke-width="0.16"/><line x1="1.2" y1="226.39999999999998" x2="4.2" y2="226.84999999999997" data-process="handling" stroke="#6B6458" stroke-opacity="0.024" stroke-width="0.17"/><line x1="205.8" y1="234.39999999999998" x2="208.4" y2="233.89999999999998" data-process="handling" stroke="#FFFFFF" stroke-opacity="0.0248" stroke-width="0.16"/></g><g id="reproduction-defects" data-process="photocopy-toner"><rect x="28.24" y="0" width="0.110" height="297" fill="#222" fill-opacity="0.007"/><circle cx="48.16" cy="48.28" r="0.050" fill="#242424" fill-opacity="0.014"/><circle cx="34.83" cy="189.13" r="0.091" fill="#242424" fill-opacity="0.009"/><circle cx="203.06" cy="35.32" r="0.082" fill="#242424" fill-opacity="0.012"/><circle cx="191.38" cy="33.12" r="0.076" fill="#242424" fill-opacity="0.014"/><circle cx="135.24" cy="19.11" r="0.091" fill="#242424" fill-opacity="0.015"/><circle cx="150.17" cy="135.45" r="0.043" fill="#242424" fill-opacity="0.015"/><circle cx="16.02" cy="42.28" r="0.068" fill="#242424" fill-opacity="0.013"/><circle cx="35.40" cy="100.15" r="0.121" fill="#242424" fill-opacity="0.017"/><circle cx="155.60" cy="244.06" r="0.091" fill="#242424" fill-opacity="0.013"/><circle cx="2.77" cy="49.41" r="0.098" fill="#242424" fill-opacity="0.013"/><circle cx="117.00" cy="236.27" r="0.129" fill="#242424" fill-opacity="0.015"/></g></svg>