<?xml version="1.0" encoding="UTF-8"?>
<svg xmlns="http://www.w3.org/2000/svg" width="2480" height="3508" viewBox="0 0 210 297" data-format="A4" data-physical-width-mm="210" data-physical-height-mm="297" data-process-ppi="600" data-canonical-ppi="300" data-entry-process="photocopy-toner"><g id="paper-stock"><defs><linearGradient id="edgeTone" x1="0" x2="1" y1="0" y2="1"><stop offset="0" stop-color="#5B574F" stop-opacity="0.028"/><stop offset=".08" stop-color="#FFFFFF" stop-opacity="0"/><stop offset=".90" stop-color="#FFFFFF" stop-opacity="0"/><stop offset="1" stop-color="#4E4B45" stop-opacity="0.035"/></linearGradient><filter id="stockGrain" x="0" y="0" width="100%" height="100%"><feTurbulence type="fractalNoise" baseFrequency="0.045 0.11" numOctaves="2" seed="187"/><feColorMatrix type="matrix" values="0 0 0 0 0.35  0 0 0 0 0.33  0 0 0 0 0.29  0 0 0 .010 0"/></filter></defs><rect width="210" height="297" fill="#E8E7E2"/><rect width="210" height="297" filter="url(#stockGrain)" opacity=".40"/><path d="M -1.02 102.47 C 55 102.14, 155 102.79, 204.69 102.36" stroke="#6D685F" stroke-opacity="0.0063" stroke-width="0.063" fill="none"/><path d="M -9.85 246.74 C 55 246.55, 155 247.11, 207.59 246.60" stroke="#6D685F" stroke-opacity="0.0096" stroke-width="0.044" fill="none"/><path d="M 11.99 134.14 C 55 134.04, 155 134.11, 199.48 134.16" stroke="#6D685F" stroke-opacity="0.0099" stroke-width="0.075" fill="none"/><path d="M 18.79 119.68 C 55 119.96, 155 119.80, 215.07 119.73" stroke="#6D685F" stroke-opacity="0.0071" stroke-width="0.043" fill="none"/><path d="M 1.04 124.53 C 55 124.51, 155 124.60, 202.58 124.33" stroke="#6D685F" stroke-opacity="0.0045" stroke-width="0.065" fill="none"/><path d="M 15.04 249.00 C 55 248.82, 155 248.61, 195.90 248.79" stroke="#6D685F" stroke-opacity="0.0084" stroke-width="0.075" fill="none"/><path d="M 17.71 41.59 C 55 41.56, 155 41.91, 218.30 41.47" stroke="#6D685F" stroke-opacity="0.0084" stroke-width="0.084" fill="none"/><path d="M -9.84 20.93 C 55 21.19, 155 20.85, 208.35 20.80" stroke="#6D685F" stroke-opacity="0.0091" stroke-width="0.040" fill="none"/><path d="M -7.56 215.66 C 55 215.56, 155 215.82, 196.30 215.56" stroke="#6D685F" stroke-opacity="0.0077" stroke-width="0.044" fill="none"/><path d="M 10.90 75.39 C 55 75.41, 155 75.66, 202.84 75.56" stroke="#6D685F" stroke-opacity="0.0068" stroke-width="0.070" fill="none"/><path d="M -2.11 199.53 C 55 199.34, 155 199.65, 218.71 199.38" stroke="#6D685F" stroke-opacity="0.0081" stroke-width="0.053" fill="none"/><path d="M -5.10 279.33 C 55 279.40, 155 279.58, 194.04 279.21" stroke="#6D685F" stroke-opacity="0.0072" stroke-width="0.056" fill="none"/><path d="M 14.13 135.51 C 55 135.83, 155 135.30, 207.03 135.67" stroke="#6D685F" stroke-opacity="0.0070" stroke-width="0.044" fill="none"/><path d="M 5.21 73.06 C 55 72.87, 155 73.14, 190.59 73.18" stroke="#6D685F" stroke-opacity="0.0100" stroke-width="0.036" fill="none"/><path d="M 14.36 4.38 C 55 4.16, 155 4.48, 195.70 4.34" stroke="#6D685F" stroke-opacity="0.0067" stroke-width="0.054" fill="none"/><path d="M 15.47 183.77 C 55 183.93, 155 183.66, 199.25 183.94" stroke="#6D685F" stroke-opacity="0.0058" stroke-width="0.043" fill="none"/><path d="M -8.36 93.03 C 55 93.14, 155 93.39, 213.82 93.22" stroke="#6D685F" stroke-opacity="0.0054" stroke-width="0.054" fill="none"/><path d="M -2.39 163.77 C 55 163.79, 155 163.85, 207.56 163.89" stroke="#6D685F" stroke-opacity="0.0043" stroke-width="0.066" fill="none"/><path d="M 18.21 65.26 C 55 64.89, 155 65.10, 207.48 65.24" stroke="#6D685F" stroke-opacity="0.0057" stroke-width="0.072" fill="none"/><path d="M 15.03 202.56 C 55 202.64, 155 202.77, 208.04 202.36" stroke="#6D685F" stroke-opacity="0.0057" stroke-width="0.072" fill="none"/><path d="M -5.30 116.89 C 55 116.58, 155 116.55, 207.34 117.03" stroke="#6D685F" stroke-opacity="0.0086" stroke-width="0.073" fill="none"/><path d="M 4.84 246.80 C 55 246.94, 155 246.47, 210.36 246.60" stroke="#6D685F" stroke-opacity="0.0074" stroke-width="0.066" fill="none"/><path d="M 9.92 33.24 C 55 33.03, 155 32.98, 198.00 33.20" stroke="#6D685F" stroke-opacity="0.0088" stroke-width="0.043" fill="none"/><path d="M 4.80 34.78 C 55 34.77, 155 35.04, 212.85 34.81" stroke="#6D685F" stroke-opacity="0.0049" stroke-width="0.068" fill="none"/><path d="M 16.01 42.93 C 55 42.99, 155 42.64, 217.65 42.82" stroke="#6D685F" stroke-opacity="0.0060" stroke-width="0.064" fill="none"/><path d="M -1.04 46.93 C 55 47.28, 155 47.04, 206.05 46.74" stroke="#6D685F" stroke-opacity="0.0052" stroke-width="0.049" fill="none"/><rect width="210" height="297" fill="url(#edgeTone)"/></g><g id="process-content" data-process="photocopy-toner" transform="rotate(-0.230 105 148.5)"><g id="ellery-works-seal" data-process="photocopy-toner">
      <circle cx="24" cy="12.8" r="7.2" fill="none" stroke="#2E2E2D" stroke-opacity="0.660" stroke-width=".34"/>
      <circle cx="24" cy="12.8" r="6.2" fill="none" stroke="#2E2E2D" stroke-opacity="0.420" stroke-width=".19"/>
      <text x="24.000" y="13.800" data-process="photocopy-toner" font-family="'Nimbus Roman',serif" font-size="3.0339" font-weight="700" letter-spacing="0.0000" fill="#2E2E2D" fill-opacity="0.760" text-anchor="middle">WE</text>
      <text x="24.000" y="18.000" data-process="photocopy-toner" font-family="'Nimbus Roman',serif" font-size="1.4817" font-weight="600" letter-spacing="0.0000" fill="#2E2E2D" fill-opacity="0.460" text-anchor="middle">WORKS</text>
    </g><text x="17.000" y="11.800" data-process="photocopy-toner" font-family="'Nimbus Roman',serif" font-size="4.5861" font-weight="700" letter-spacing="0.0106" fill="#2E2E2D" fill-opacity="0.840" text-anchor="start">W. ELLERY / WORKS</text><line x1="17" y1="18.2" x2="193" y2="18.2" data-process="photocopy-toner" stroke="#2E2E2D" stroke-opacity="0.384" stroke-width="0.26"/><text x="17.000" y="27.600" data-process="photocopy-toner" font-family="'Nimbus Roman',serif" font-size="3.8100" font-weight="700" letter-spacing="0.0088" fill="#2C2A26" fill-opacity="1.000" text-anchor="start">FIELD NOTE</text><text x="193.000" y="25.500" font-family="'Nimbus Mono PS',monospace" font-size="1.9756" font-weight="400" letter-spacing="0.0000" fill="#252525" fill-opacity="0.460" text-anchor="end">DEIXIS-09</text><line x1="17" y1="31" x2="193" y2="31" data-process="photocopy-toner" stroke="#5B574F" stroke-opacity="0.3" stroke-width="0.18"/><line x1="29" y1="37.35" x2="193" y2="37.35" data-process="photocopy-toner" stroke="#716C63" stroke-opacity="0.18" stroke-width="0.15"/><line x1="29" y1="43.7" x2="193" y2="43.7" data-process="photocopy-toner" stroke="#716C63" stroke-opacity="0.18" stroke-width="0.15"/><line x1="29" y1="50.050000000000004" x2="193" y2="50.050000000000004" data-process="photocopy-toner" stroke="#716C63" stroke-opacity="0.18" stroke-width="0.15"/><line x1="29" y1="56.400000000000006" x2="193" y2="56.400000000000006" data-process="photocopy-toner" stroke="#716C63" stroke-opacity="0.18" stroke-width="0.15"/><line x1="29" y1="62.75000000000001" x2="193" y2="62.75000000000001" data-process="photocopy-toner" stroke="#716C63" stroke-opacity="0.18" stroke-width="0.15"/><line x1="29" y1="69.10000000000001" x2="193" y2="69.10000000000001" data-process="photocopy-toner" stroke="#716C63" stroke-opacity="0.18" stroke-width="0.15"/><line x1="29" y1="75.45" x2="193" y2="75.45" data-process="photocopy-toner" stroke="#716C63" stroke-opacity="0.18" stroke-width="0.15"/><line x1="29" y1="81.8" x2="193" y2="81.8" data-process="photocopy-toner" stroke="#716C63" stroke-opacity="0.18" stroke-width="0.15"/><line x1="29" y1="88.14999999999999" x2="193" y2="88.14999999999999" data-process="photocopy-toner" stroke="#716C63" stroke-opacity="0.18" stroke-width="0.15"/><line x1="29" y1="94.49999999999999" x2="193" y2="94.49999999999999" data-process="photocopy-toner" stroke="#716C63" stroke-opacity="0.18" stroke-width="0.15"/><line x1="29" y1="100.84999999999998" x2="193" y2="100.84999999999998" data-process="photocopy-toner" stroke="#716C63" stroke-opacity="0.18" stroke-width="0.15"/><line x1="29" y1="107.19999999999997" x2="193" y2="107.19999999999997" data-process="photocopy-toner" stroke="#716C63" stroke-opacity="0.18" stroke-width="0.15"/><line x1="29" y1="113.54999999999997" x2="193" y2="113.54999999999997" data-process="photocopy-toner" stroke="#716C63" stroke-opacity="0.18" stroke-width="0.15"/><line x1="29" y1="119.89999999999996" x2="193" y2="119.89999999999996" data-process="photocopy-toner" stroke="#716C63" stroke-opacity="0.18" stroke-width="0.15"/><line x1="29" y1="126.24999999999996" x2="193" y2="126.24999999999996" data-process="photocopy-toner" stroke="#716C63" stroke-opacity="0.18" stroke-width="0.15"/><line x1="29" y1="132.59999999999997" x2="193" y2="132.59999999999997" data-process="photocopy-toner" stroke="#716C63" stroke-opacity="0.18" stroke-width="0.15"/><line x1="29" y1="138.94999999999996" x2="193" y2="138.94999999999996" data-process="photocopy-toner" stroke="#716C63" stroke-opacity="0.18" stroke-width="0.15"/><line x1="29" y1="145.29999999999995" x2="193" y2="145.29999999999995" data-process="photocopy-toner" stroke="#716C63" stroke-opacity="0.18" stroke-width="0.15"/><line x1="29" y1="151.64999999999995" x2="193" y2="151.64999999999995" data-process="photocopy-toner" stroke="#716C63" stroke-opacity="0.18" stroke-width="0.15"/><line x1="29" y1="157.99999999999994" x2="193" y2="157.99999999999994" data-process="photocopy-toner" stroke="#716C63" stroke-opacity="0.18" stroke-width="0.15"/><line x1="29" y1="164.34999999999994" x2="193" y2="164.34999999999994" data-process="photocopy-toner" stroke="#716C63" stroke-opacity="0.18" stroke-width="0.15"/><line x1="29" y1="170.69999999999993" x2="193" y2="170.69999999999993" data-process="photocopy-toner" stroke="#716C63" stroke-opacity="0.18" stroke-width="0.15"/><line x1="29" y1="177.04999999999993" x2="193" y2="177.04999999999993" data-process="photocopy-toner" stroke="#716C63" stroke-opacity="0.18" stroke-width="0.15"/><line x1="29" y1="183.39999999999992" x2="193" y2="183.39999999999992" data-process="photocopy-toner" stroke="#716C63" stroke-opacity="0.18" stroke-width="0.15"/><line x1="29" y1="189.74999999999991" x2="193" y2="189.74999999999991" data-process="photocopy-toner" stroke="#716C63" stroke-opacity="0.18" stroke-width="0.15"/><line x1="29" y1="196.0999999999999" x2="193" y2="196.0999999999999" data-process="photocopy-toner" stroke="#716C63" stroke-opacity="0.18" stroke-width="0.15"/><line x1="29" y1="202.4499999999999" x2="193" y2="202.4499999999999" data-process="photocopy-toner" stroke="#716C63" stroke-opacity="0.18" stroke-width="0.15"/><line x1="29" y1="208.7999999999999" x2="193" y2="208.7999999999999" data-process="photocopy-toner" stroke="#716C63" stroke-opacity="0.18" stroke-width="0.15"/><line x1="29" y1="215.1499999999999" x2="193" y2="215.1499999999999" data-process="photocopy-toner" stroke="#716C63" stroke-opacity="0.18" stroke-width="0.15"/><line x1="29" y1="221.4999999999999" x2="193" y2="221.4999999999999" data-process="photocopy-toner" stroke="#716C63" stroke-opacity="0.18" stroke-width="0.15"/><line x1="29" y1="227.84999999999988" x2="193" y2="227.84999999999988" data-process="photocopy-toner" stroke="#716C63" stroke-opacity="0.18" stroke-width="0.15"/><line x1="29" y1="234.19999999999987" x2="193" y2="234.19999999999987" data-process="photocopy-toner" stroke="#716C63" stroke-opacity="0.18" stroke-width="0.15"/><line x1="29" y1="240.54999999999987" x2="193" y2="240.54999999999987" data-process="photocopy-toner" stroke="#716C63" stroke-opacity="0.18" stroke-width="0.15"/><line x1="29" y1="246.89999999999986" x2="193" y2="246.89999999999986" data-process="photocopy-toner" stroke="#716C63" stroke-opacity="0.18" stroke-width="0.15"/><line x1="29" y1="253.24999999999986" x2="193" y2="253.24999999999986" data-process="photocopy-toner" stroke="#716C63" stroke-opacity="0.18" stroke-width="0.15"/><line x1="29" y1="259.59999999999985" x2="193" y2="259.59999999999985" data-process="photocopy-toner" stroke="#716C63" stroke-opacity="0.18" stroke-width="0.15"/><line x1="29" y1="265.9499999999999" x2="193" y2="265.9499999999999" data-process="photocopy-toner" stroke="#716C63" stroke-opacity="0.18" stroke-width="0.15"/><line x1="29" y1="31" x2="29" y2="270" data-process="photocopy-toner" stroke="#716C63" stroke-opacity="0.2" stroke-width="0.16"/><text x="33.000" y="37.350" font-family="'Nimbus Mono PS',monospace" font-size="4.2333" font-weight="400" letter-spacing="0.0000" fill="#242321" fill-opacity="0.940" text-anchor="start">You already did.</text><text x="33.000" y="43.700" font-family="'Nimbus Mono PS',monospace" font-size="4.2333" font-weight="400" letter-spacing="0.0000" fill="#242321" fill-opacity="0.940" text-anchor="start">That could still be me answering myself.</text><line x1="17" y1="282" x2="193" y2="282" data-process="photocopy-toner" stroke="#56534E" stroke-opacity="0.216" stroke-width="0.18"/><text x="17.000" y="286.400" data-process="photocopy-toner" font-family="'Nimbus Roman',serif" font-size="2.3636" font-weight="400" letter-spacing="0.0000" fill="#56534E" fill-opacity="0.420" text-anchor="start">W. ELLERY / WORKS · WEST YORKSHIRE</text><text x="193.000" y="286.400" data-process="photocopy-toner" font-family="'Nimbus Roman',serif" font-size="2.3636" font-weight="400" letter-spacing="0.0000" fill="#56534E" fill-opacity="0.420" text-anchor="end">SHEET 1 OF 1</text></g><g id="process-manual" data-process="biro"></g><g id="process-handling" data-process="handling"><rect x="3" y="150.38" width="204" height="1.35" data-process="handling" fill="#6A645A" fill-opacity="0.021"/><line x1="2.5" y1="150.76" x2="207.5" y2="150.76" data-process="handling" stroke="#5D574D" stroke-opacity="0.08410000000000001" stroke-width="0.2"/><line x1="2.5" y1="151.17" x2="207.5" y2="151.17" data-process="handling" stroke="#FFFFFF" stroke-opacity="0.1227" stroke-width="0.22"/><line x1="6" y1="151.58" x2="204" y2="151.58" data-process="handling" stroke="#81796C" stroke-opacity="0.0353" stroke-width="0.12"/><circle cx="16" cy="278" r="34" data-process="handling" fill="#8A806B" fill-opacity="0.026" stroke="#766B57" stroke-opacity="0.074" stroke-width=".34"/><circle cx="19" cy="274" r="25.16" data-process="handling" fill="none" stroke="#8B8068" stroke-opacity="0.046" stroke-width=".22"/><circle cx="22" cy="271" r="14.62" data-process="handling" fill="none" stroke="#A39A87" stroke-opacity="0.035" stroke-width=".16"/><line x1="1.2" y1="38" x2="4.2" y2="38.45" data-process="handling" stroke="#6B6458" stroke-opacity="0.039" stroke-width="0.17"/><line x1="205.8" y1="46" x2="208.4" y2="45.5" data-process="handling" stroke="#FFFFFF" stroke-opacity="0.0368" stroke-width="0.16"/><line x1="1.75" y1="69.4" x2="4.75" y2="69.85000000000001" data-process="handling" stroke="#6B6458" stroke-opacity="0.039" stroke-width="0.17"/><line x1="205.25" y1="77.4" x2="207.85" y2="76.9" data-process="handling" stroke="#FFFFFF" stroke-opacity="0.0368" stroke-width="0.16"/><line x1="2.3" y1="100.8" x2="5.300000000000001" y2="101.25" data-process="handling" stroke="#6B6458" stroke-opacity="0.039" stroke-width="0.17"/><line x1="204.70000000000002" y1="108.8" x2="207.3" y2="108.3" data-process="handling" stroke="#FFFFFF" stroke-opacity="0.0368" stroke-width="0.16"/><line x1="1.2" y1="132.2" x2="4.2" y2="132.64999999999998" data-process="handling" stroke="#6B6458" stroke-opacity="0.039" stroke-width="0.17"/><line x1="205.8" y1="140.2" x2="208.4" y2="139.7" data-process="handling" stroke="#FFFFFF" stroke-opacity="0.0368" stroke-width="0.16"/><line x1="1.75" y1="163.6" x2="4.75" y2="164.04999999999998" data-process="handling" stroke="#6B6458" stroke-opacity="0.039" stroke-width="0.17"/><line x1="205.25" y1="171.6" x2="207.85" y2="171.1" data-process="handling" stroke="#FFFFFF" stroke-opacity="0.0368" stroke-width="0.16"/><line x1="2.3" y1="195" x2="5.300000000000001" y2="195.45" data-process="handling" stroke="#6B6458" stroke-opacity="0.039" stroke-width="0.17"/><line x1="204.70000000000002" y1="203" x2="207.3" y2="202.5" data-process="handling" stroke="#FFFFFF" stroke-opacity="0.0368" stroke-width="0.16"/><line x1="1.2" y1="226.39999999999998" x2="4.2" y2="226.84999999999997" data-process="handling" stroke="#6B6458" stroke-opacity="0.039" stroke-width="0.17"/><line x1="205.8" y1="234.39999999999998" x2="208.4" y2="233.89999999999998" data-process="handling" stroke="#FFFFFF" stroke-opacity="0.0368" stroke-width="0.16"/><line x1="210" y1="286" x2="209.5" y2="284.8" data-process="handling" stroke="#756E62" stroke-opacity="0.055" stroke-width="0.13"/><line x1="207.84" y1="283.3" x2="209.5" y2="282.1" data-process="handling" stroke="#FFFFFF" stroke-opacity="0.073" stroke-width="0.13"/><line x1="205.68" y1="280.6" x2="208.98000000000002" y2="279.40000000000003" data-process="handling" stroke="#756E62" stroke-opacity="0.091" stroke-width="0.13"/><line x1="203.52" y1="277.9" x2="207.27" y2="276.7" data-process="handling" stroke="#FFFFFF" stroke-opacity="0.10899999999999999" stroke-width="0.13"/><line x1="201.36" y1="275.2" x2="205.56000000000003" y2="274" data-process="handling" stroke="#756E62" stroke-opacity="0.127" stroke-width="0.13"/><line x1="199.2" y1="272.5" x2="203.85" y2="271.3" data-process="handling" stroke="#FFFFFF" stroke-opacity="0.145" stroke-width="0.13"/></g><g id="reproduction-defects" data-process="photocopy-toner"><rect x="155.63" y="0" width="0.200" height="297" fill="#222" fill-opacity="0.016"/><circle cx="91.61" cy="290.80" r="0.058" fill="#242424" fill-opacity="0.020"/><circle cx="66.64" cy="155.50" r="0.138" fill="#242424" fill-opacity="0.023"/><circle cx="18.94" cy="66.86" r="0.111" fill="#242424" fill-opacity="0.026"/><circle cx="73.24" cy="14.64" r="0.067" fill="#242424" fill-opacity="0.022"/><circle cx="166.79" cy="66.69" r="0.105" fill="#242424" fill-opacity="0.019"/><circle cx="82.25" cy="190.39" r="0.086" fill="#242424" fill-opacity="0.019"/><circle cx="95.26" cy="199.91" r="0.060" fill="#242424" fill-opacity="0.026"/><circle cx="141.35" cy="277.33" r="0.038" fill="#242424" fill-opacity="0.022"/><circle cx="101.19" cy="21.80" r="0.041" fill="#242424" fill-opacity="0.022"/><circle cx="5.35" cy="232.88" r="0.128" fill="#242424" fill-opacity="0.020"/><circle cx="70.24" cy="150.91" r="0.076" fill="#242424" fill-opacity="0.018"/><circle cx="199.53" cy="116.37" r="0.138" fill="#242424" fill-opacity="0.023"/><circle cx="9.65" cy="183.25" r="0.127" fill="#242424" fill-opacity="0.023"/><circle cx="55.46" cy="114.37" r="0.110" fill="#242424" fill-opacity="0.019"/><circle cx="162.55" cy="111.26" r="0.051" fill="#242424" fill-opacity="0.023"/><circle cx="60.04" cy="93.91" r="0.101" fill="#242424" fill-opacity="0.025"/><circle cx="88.77" cy="120.75" r="0.078" fill="#242424" fill-opacity="0.019"/><circle cx="10.76" cy="288.78" r="0.036" fill="#242424" fill-opacity="0.022"/><circle cx="179.00" cy="32.80" r="0.063" fill="#242424" fill-opacity="0.023"/><circle cx="149.05" cy="169.86" r="0.121" fill="#242424" fill-opacity="0.024"/><circle cx="41.67" cy="160.24" r="0.071" fill="#242424" fill-opacity="0.023"/><circle cx="46.28" cy="213.93" r="0.047" fill="#242424" fill-opacity="0.026"/><circle cx="117.53" cy="72.26" r="0.103" fill="#242424" fill-opacity="0.023"/><circle cx="148.28" cy="155.41" r="0.068" fill="#242424" fill-opacity="0.021"/><circle cx="105.32" cy="213.95" r="0.122" fill="#242424" fill-opacity="0.025"/><circle cx="79.85" cy="267.87" r="0.086" fill="#242424" fill-opacity="0.024"/><circle cx="176.69" cy="97.14" r="0.101" fill="#242424" fill-opacity="0.024"/><circle cx="153.34" cy="199.35" r="0.088" fill="#242424" fill-opacity="0.021"/><circle cx="138.04" cy="75.08" r="0.096" fill="#242424" fill-opacity="0.024"/><circle cx="148.94" cy="134.42" r="0.046" fill="#242424" fill-opacity="0.022"/><circle cx="25.48" cy="105.98" r="0.139" fill="#242424" fill-opacity="0.024"/><circle cx="149.94" cy="11.91" r="0.085" fill="#242424" fill-opacity="0.020"/><circle cx="122.55" cy="244.39" r="0.035" fill="#242424" fill-opacity="0.023"/><circle cx="93.07" cy="56.05" r="0.071" fill="#242424" fill-opacity="0.021"/><circle cx="116.19" cy="140.31" r="0.123" fill="#242424" fill-opacity="0.022"/><rect x="0" y="0" width="210" height="297" fill="#333" fill-opacity="0.022"/></g></svg>