<?xml version="1.0" encoding="UTF-8"?>
<svg xmlns="http://www.w3.org/2000/svg" width="2480" height="3508" viewBox="0 0 210 297" data-format="A4" data-physical-width-mm="210" data-physical-height-mm="297" data-process-ppi="600" data-canonical-ppi="300" data-entry-process="photocopy-toner"><g id="paper-stock"><defs><linearGradient id="edgeTone" x1="0" x2="1" y1="0" y2="1"><stop offset="0" stop-color="#5B574F" stop-opacity="0.028"/><stop offset=".08" stop-color="#FFFFFF" stop-opacity="0"/><stop offset=".90" stop-color="#FFFFFF" stop-opacity="0"/><stop offset="1" stop-color="#4E4B45" stop-opacity="0.035"/></linearGradient><filter id="stockGrain" x="0" y="0" width="100%" height="100%"><feTurbulence type="fractalNoise" baseFrequency="0.045 0.11" numOctaves="2" seed="8656"/><feColorMatrix type="matrix" values="0 0 0 0 0.35  0 0 0 0 0.33  0 0 0 0 0.29  0 0 0 .010 0"/></filter></defs><rect width="210" height="297" fill="#E8E7E2"/><rect width="210" height="297" filter="url(#stockGrain)" opacity=".40"/><path d="M 10.28 161.95 C 55 162.26, 155 161.86, 220.93 162.16" stroke="#6D685F" stroke-opacity="0.0093" stroke-width="0.049" fill="none"/><path d="M 16.91 51.94 C 55 51.92, 155 51.93, 222.84 52.15" stroke="#6D685F" stroke-opacity="0.0056" stroke-width="0.057" fill="none"/><path d="M 0.94 92.74 C 55 92.94, 155 92.60, 200.01 92.75" stroke="#6D685F" stroke-opacity="0.0043" stroke-width="0.084" fill="none"/><path d="M -7.20 209.08 C 55 208.74, 155 208.74, 197.71 209.14" stroke="#6D685F" stroke-opacity="0.0072" stroke-width="0.072" fill="none"/><path d="M 7.89 140.40 C 55 140.78, 155 140.30, 191.75 140.35" stroke="#6D685F" stroke-opacity="0.0047" stroke-width="0.059" fill="none"/><path d="M 14.87 220.92 C 55 221.29, 155 220.99, 192.84 220.76" stroke="#6D685F" stroke-opacity="0.0087" stroke-width="0.049" fill="none"/><path d="M -8.65 145.70 C 55 145.55, 155 145.50, 219.55 145.83" stroke="#6D685F" stroke-opacity="0.0074" stroke-width="0.066" fill="none"/><path d="M 19.99 268.60 C 55 268.23, 155 268.22, 200.14 268.75" stroke="#6D685F" stroke-opacity="0.0067" stroke-width="0.053" fill="none"/><path d="M 3.68 110.60 C 55 110.28, 155 110.43, 201.90 110.43" stroke="#6D685F" stroke-opacity="0.0066" stroke-width="0.052" fill="none"/><path d="M 4.45 273.95 C 55 273.77, 155 273.69, 218.22 273.97" stroke="#6D685F" stroke-opacity="0.0079" stroke-width="0.069" fill="none"/><path d="M -3.32 0.24 C 55 0.19, 155 0.58, 219.97 0.09" stroke="#6D685F" stroke-opacity="0.0064" stroke-width="0.059" fill="none"/><path d="M -7.83 60.68 C 55 60.49, 155 60.89, 195.26 60.71" stroke="#6D685F" stroke-opacity="0.0043" stroke-width="0.046" fill="none"/><path d="M 2.93 222.27 C 55 221.97, 155 222.59, 200.49 222.17" stroke="#6D685F" stroke-opacity="0.0067" stroke-width="0.079" fill="none"/><path d="M -1.37 36.18 C 55 36.32, 155 35.91, 197.88 36.07" stroke="#6D685F" stroke-opacity="0.0057" stroke-width="0.063" fill="none"/><path d="M 4.32 259.41 C 55 259.32, 155 259.54, 217.35 259.38" stroke="#6D685F" stroke-opacity="0.0042" stroke-width="0.084" fill="none"/><path d="M -7.88 131.01 C 55 131.25, 155 130.89, 220.56 131.02" stroke="#6D685F" stroke-opacity="0.0049" stroke-width="0.067" fill="none"/><path d="M -6.49 134.54 C 55 134.25, 155 134.36, 197.54 134.45" stroke="#6D685F" stroke-opacity="0.0053" stroke-width="0.046" fill="none"/><path d="M -4.73 46.66 C 55 47.00, 155 46.89, 205.26 46.46" stroke="#6D685F" stroke-opacity="0.0051" stroke-width="0.053" fill="none"/><path d="M 13.37 75.39 C 55 75.16, 155 75.41, 196.52 75.32" stroke="#6D685F" stroke-opacity="0.0094" stroke-width="0.053" fill="none"/><path d="M -5.99 196.00 C 55 195.77, 155 195.91, 190.06 195.80" stroke="#6D685F" stroke-opacity="0.0078" stroke-width="0.061" fill="none"/><path d="M 14.26 221.89 C 55 221.65, 155 221.76, 205.97 222.06" stroke="#6D685F" stroke-opacity="0.0081" stroke-width="0.067" fill="none"/><path d="M 3.26 222.70 C 55 222.57, 155 223.04, 200.21 222.49" stroke="#6D685F" stroke-opacity="0.0061" stroke-width="0.049" fill="none"/><path d="M 17.08 43.88 C 55 43.61, 155 43.74, 191.76 43.89" stroke="#6D685F" stroke-opacity="0.0062" stroke-width="0.084" fill="none"/><path d="M 19.57 16.71 C 55 16.67, 155 16.86, 194.99 16.92" stroke="#6D685F" stroke-opacity="0.0061" stroke-width="0.038" fill="none"/><path d="M 7.60 106.45 C 55 106.80, 155 106.80, 209.16 106.39" stroke="#6D685F" stroke-opacity="0.0057" stroke-width="0.052" fill="none"/><path d="M -9.29 229.21 C 55 229.08, 155 229.00, 190.59 229.05" stroke="#6D685F" stroke-opacity="0.0043" stroke-width="0.072" fill="none"/><rect width="210" height="297" fill="url(#edgeTone)"/></g><g id="process-content" data-process="photocopy-toner" transform="rotate(0.394 105 148.5)"><g id="ellery-works-seal" data-process="photocopy-toner">
      <circle cx="24" cy="12.8" r="7.2" fill="none" stroke="#2E2E2D" stroke-opacity="0.660" stroke-width=".34"/>
      <circle cx="24" cy="12.8" r="6.2" fill="none" stroke="#2E2E2D" stroke-opacity="0.420" stroke-width=".19"/>
      <text x="24.000" y="13.800" data-process="photocopy-toner" font-family="'Nimbus Roman',serif" font-size="3.0339" font-weight="700" letter-spacing="0.0000" fill="#2E2E2D" fill-opacity="0.760" text-anchor="middle">WE</text>
      <text x="24.000" y="18.000" data-process="photocopy-toner" font-family="'Nimbus Roman',serif" font-size="1.4817" font-weight="600" letter-spacing="0.0000" fill="#2E2E2D" fill-opacity="0.460" text-anchor="middle">WORKS</text>
    </g><text x="17.000" y="11.800" data-process="photocopy-toner" font-family="'Nimbus Roman',serif" font-size="4.5861" font-weight="700" letter-spacing="0.0106" fill="#2E2E2D" fill-opacity="0.840" text-anchor="start">W. ELLERY / WORKS</text><line x1="17" y1="18.2" x2="193" y2="18.2" data-process="photocopy-toner" stroke="#2E2E2D" stroke-opacity="0.384" stroke-width="0.26"/><text x="17.000" y="27.600" data-process="photocopy-toner" font-family="'Nimbus Roman',serif" font-size="3.8100" font-weight="700" letter-spacing="0.0088" fill="#2C2A26" fill-opacity="1.000" text-anchor="start">FIELD NOTE</text><text x="193.000" y="25.500" font-family="'Nimbus Mono PS',monospace" font-size="1.9756" font-weight="400" letter-spacing="0.0000" fill="#252525" fill-opacity="0.460" text-anchor="end">DONT-WRITE-04</text><line x1="17" y1="31" x2="193" y2="31" data-process="photocopy-toner" stroke="#5B574F" stroke-opacity="0.3" stroke-width="0.18"/><line x1="29" y1="37.35" x2="193" y2="37.35" data-process="photocopy-toner" stroke="#716C63" stroke-opacity="0.18" stroke-width="0.15"/><line x1="29" y1="43.7" x2="193" y2="43.7" data-process="photocopy-toner" stroke="#716C63" stroke-opacity="0.18" stroke-width="0.15"/><line x1="29" y1="50.050000000000004" x2="193" y2="50.050000000000004" data-process="photocopy-toner" stroke="#716C63" stroke-opacity="0.18" stroke-width="0.15"/><line x1="29" y1="56.400000000000006" x2="193" y2="56.400000000000006" data-process="photocopy-toner" stroke="#716C63" stroke-opacity="0.18" stroke-width="0.15"/><line x1="29" y1="62.75000000000001" x2="193" y2="62.75000000000001" data-process="photocopy-toner" stroke="#716C63" stroke-opacity="0.18" stroke-width="0.15"/><line x1="29" y1="69.10000000000001" x2="193" y2="69.10000000000001" data-process="photocopy-toner" stroke="#716C63" stroke-opacity="0.18" stroke-width="0.15"/><line x1="29" y1="75.45" x2="193" y2="75.45" data-process="photocopy-toner" stroke="#716C63" stroke-opacity="0.18" stroke-width="0.15"/><line x1="29" y1="81.8" x2="193" y2="81.8" data-process="photocopy-toner" stroke="#716C63" stroke-opacity="0.18" stroke-width="0.15"/><line x1="29" y1="88.14999999999999" x2="193" y2="88.14999999999999" data-process="photocopy-toner" stroke="#716C63" stroke-opacity="0.18" stroke-width="0.15"/><line x1="29" y1="94.49999999999999" x2="193" y2="94.49999999999999" data-process="photocopy-toner" stroke="#716C63" stroke-opacity="0.18" stroke-width="0.15"/><line x1="29" y1="100.84999999999998" x2="193" y2="100.84999999999998" data-process="photocopy-toner" stroke="#716C63" stroke-opacity="0.18" stroke-width="0.15"/><line x1="29" y1="107.19999999999997" x2="193" y2="107.19999999999997" data-process="photocopy-toner" stroke="#716C63" stroke-opacity="0.18" stroke-width="0.15"/><line x1="29" y1="113.54999999999997" x2="193" y2="113.54999999999997" data-process="photocopy-toner" stroke="#716C63" stroke-opacity="0.18" stroke-width="0.15"/><line x1="29" y1="119.89999999999996" x2="193" y2="119.89999999999996" data-process="photocopy-toner" stroke="#716C63" stroke-opacity="0.18" stroke-width="0.15"/><line x1="29" y1="126.24999999999996" x2="193" y2="126.24999999999996" data-process="photocopy-toner" stroke="#716C63" stroke-opacity="0.18" stroke-width="0.15"/><line x1="29" y1="132.59999999999997" x2="193" y2="132.59999999999997" data-process="photocopy-toner" stroke="#716C63" stroke-opacity="0.18" stroke-width="0.15"/><line x1="29" y1="138.94999999999996" x2="193" y2="138.94999999999996" data-process="photocopy-toner" stroke="#716C63" stroke-opacity="0.18" stroke-width="0.15"/><line x1="29" y1="145.29999999999995" x2="193" y2="145.29999999999995" data-process="photocopy-toner" stroke="#716C63" stroke-opacity="0.18" stroke-width="0.15"/><line x1="29" y1="151.64999999999995" x2="193" y2="151.64999999999995" data-process="photocopy-toner" stroke="#716C63" stroke-opacity="0.18" stroke-width="0.15"/><line x1="29" y1="157.99999999999994" x2="193" y2="157.99999999999994" data-process="photocopy-toner" stroke="#716C63" stroke-opacity="0.18" stroke-width="0.15"/><line x1="29" y1="164.34999999999994" x2="193" y2="164.34999999999994" data-process="photocopy-toner" stroke="#716C63" stroke-opacity="0.18" stroke-width="0.15"/><line x1="29" y1="170.69999999999993" x2="193" y2="170.69999999999993" data-process="photocopy-toner" stroke="#716C63" stroke-opacity="0.18" stroke-width="0.15"/><line x1="29" y1="177.04999999999993" x2="193" y2="177.04999999999993" data-process="photocopy-toner" stroke="#716C63" stroke-opacity="0.18" stroke-width="0.15"/><line x1="29" y1="183.39999999999992" x2="193" y2="183.39999999999992" data-process="photocopy-toner" stroke="#716C63" stroke-opacity="0.18" stroke-width="0.15"/><line x1="29" y1="189.74999999999991" x2="193" y2="189.74999999999991" data-process="photocopy-toner" stroke="#716C63" stroke-opacity="0.18" stroke-width="0.15"/><line x1="29" y1="196.0999999999999" x2="193" y2="196.0999999999999" data-process="photocopy-toner" stroke="#716C63" stroke-opacity="0.18" stroke-width="0.15"/><line x1="29" y1="202.4499999999999" x2="193" y2="202.4499999999999" data-process="photocopy-toner" stroke="#716C63" stroke-opacity="0.18" stroke-width="0.15"/><line x1="29" y1="208.7999999999999" x2="193" y2="208.7999999999999" data-process="photocopy-toner" stroke="#716C63" stroke-opacity="0.18" stroke-width="0.15"/><line x1="29" y1="215.1499999999999" x2="193" y2="215.1499999999999" data-process="photocopy-toner" stroke="#716C63" stroke-opacity="0.18" stroke-width="0.15"/><line x1="29" y1="221.4999999999999" x2="193" y2="221.4999999999999" data-process="photocopy-toner" stroke="#716C63" stroke-opacity="0.18" stroke-width="0.15"/><line x1="29" y1="227.84999999999988" x2="193" y2="227.84999999999988" data-process="photocopy-toner" stroke="#716C63" stroke-opacity="0.18" stroke-width="0.15"/><line x1="29" y1="234.19999999999987" x2="193" y2="234.19999999999987" data-process="photocopy-toner" stroke="#716C63" stroke-opacity="0.18" stroke-width="0.15"/><line x1="29" y1="240.54999999999987" x2="193" y2="240.54999999999987" data-process="photocopy-toner" stroke="#716C63" stroke-opacity="0.18" stroke-width="0.15"/><line x1="29" y1="246.89999999999986" x2="193" y2="246.89999999999986" data-process="photocopy-toner" stroke="#716C63" stroke-opacity="0.18" stroke-width="0.15"/><line x1="29" y1="253.24999999999986" x2="193" y2="253.24999999999986" data-process="photocopy-toner" stroke="#716C63" stroke-opacity="0.18" stroke-width="0.15"/><line x1="29" y1="259.59999999999985" x2="193" y2="259.59999999999985" data-process="photocopy-toner" stroke="#716C63" stroke-opacity="0.18" stroke-width="0.15"/><line x1="29" y1="265.9499999999999" x2="193" y2="265.9499999999999" data-process="photocopy-toner" stroke="#716C63" stroke-opacity="0.18" stroke-width="0.15"/><line x1="29" y1="31" x2="29" y2="270" data-process="photocopy-toner" stroke="#716C63" stroke-opacity="0.2" stroke-width="0.16"/><line x1="17" y1="282" x2="193" y2="282" data-process="photocopy-toner" stroke="#56534E" stroke-opacity="0.216" stroke-width="0.18"/><text x="17.000" y="286.400" data-process="photocopy-toner" font-family="'Nimbus Roman',serif" font-size="2.3636" font-weight="400" letter-spacing="0.0000" fill="#56534E" fill-opacity="0.420" text-anchor="start">W. ELLERY / WORKS · WEST YORKSHIRE</text><text x="193.000" y="286.400" data-process="photocopy-toner" font-family="'Nimbus Roman',serif" font-size="2.3636" font-weight="400" letter-spacing="0.0000" fill="#56534E" fill-opacity="0.420" text-anchor="end">SHEET 1 OF 1</text></g><g id="process-manual" data-process="biro"></g><g id="process-handling" data-process="handling"><rect x="3" y="150.38" width="204" height="1.35" data-process="handling" fill="#6A645A" fill-opacity="0.021"/><line x1="2.5" y1="150.76" x2="207.5" y2="150.76" data-process="handling" stroke="#5D574D" stroke-opacity="0.08410000000000001" stroke-width="0.2"/><line x1="2.5" y1="151.17" x2="207.5" y2="151.17" data-process="handling" stroke="#FFFFFF" stroke-opacity="0.1227" stroke-width="0.22"/><line x1="6" y1="151.58" x2="204" y2="151.58" data-process="handling" stroke="#81796C" stroke-opacity="0.0353" stroke-width="0.12"/><circle cx="16" cy="278" r="34" data-process="handling" fill="#8A806B" fill-opacity="0.026" stroke="#766B57" stroke-opacity="0.074" stroke-width=".34"/><circle cx="19" cy="274" r="25.16" data-process="handling" fill="none" stroke="#8B8068" stroke-opacity="0.046" stroke-width=".22"/><circle cx="22" cy="271" r="14.62" data-process="handling" fill="none" stroke="#A39A87" stroke-opacity="0.035" stroke-width=".16"/><line x1="1.2" y1="38" x2="4.2" y2="38.45" data-process="handling" stroke="#6B6458" stroke-opacity="0.039" stroke-width="0.17"/><line x1="205.8" y1="46" x2="208.4" y2="45.5" data-process="handling" stroke="#FFFFFF" stroke-opacity="0.0368" stroke-width="0.16"/><line x1="1.75" y1="69.4" x2="4.75" y2="69.85000000000001" data-process="handling" stroke="#6B6458" stroke-opacity="0.039" stroke-width="0.17"/><line x1="205.25" y1="77.4" x2="207.85" y2="76.9" data-process="handling" stroke="#FFFFFF" stroke-opacity="0.0368" stroke-width="0.16"/><line x1="2.3" y1="100.8" x2="5.300000000000001" y2="101.25" data-process="handling" stroke="#6B6458" stroke-opacity="0.039" stroke-width="0.17"/><line x1="204.70000000000002" y1="108.8" x2="207.3" y2="108.3" data-process="handling" stroke="#FFFFFF" stroke-opacity="0.0368" stroke-width="0.16"/><line x1="1.2" y1="132.2" x2="4.2" y2="132.64999999999998" data-process="handling" stroke="#6B6458" stroke-opacity="0.039" stroke-width="0.17"/><line x1="205.8" y1="140.2" x2="208.4" y2="139.7" data-process="handling" stroke="#FFFFFF" stroke-opacity="0.0368" stroke-width="0.16"/><line x1="1.75" y1="163.6" x2="4.75" y2="164.04999999999998" data-process="handling" stroke="#6B6458" stroke-opacity="0.039" stroke-width="0.17"/><line x1="205.25" y1="171.6" x2="207.85" y2="171.1" data-process="handling" stroke="#FFFFFF" stroke-opacity="0.0368" stroke-width="0.16"/><line x1="2.3" y1="195" x2="5.300000000000001" y2="195.45" data-process="handling" stroke="#6B6458" stroke-opacity="0.039" stroke-width="0.17"/><line x1="204.70000000000002" y1="203" x2="207.3" y2="202.5" data-process="handling" stroke="#FFFFFF" stroke-opacity="0.0368" stroke-width="0.16"/><line x1="1.2" y1="226.39999999999998" x2="4.2" y2="226.84999999999997" data-process="handling" stroke="#6B6458" stroke-opacity="0.039" stroke-width="0.17"/><line x1="205.8" y1="234.39999999999998" x2="208.4" y2="233.89999999999998" data-process="handling" stroke="#FFFFFF" stroke-opacity="0.0368" stroke-width="0.16"/><line x1="210" y1="286" x2="209.5" y2="284.8" data-process="handling" stroke="#756E62" stroke-opacity="0.055" stroke-width="0.13"/><line x1="207.84" y1="283.3" x2="209.5" y2="282.1" data-process="handling" stroke="#FFFFFF" stroke-opacity="0.073" stroke-width="0.13"/><line x1="205.68" y1="280.6" x2="208.98000000000002" y2="279.40000000000003" data-process="handling" stroke="#756E62" stroke-opacity="0.091" stroke-width="0.13"/><line x1="203.52" y1="277.9" x2="207.27" y2="276.7" data-process="handling" stroke="#FFFFFF" stroke-opacity="0.10899999999999999" stroke-width="0.13"/><line x1="201.36" y1="275.2" x2="205.56000000000003" y2="274" data-process="handling" stroke="#756E62" stroke-opacity="0.127" stroke-width="0.13"/><line x1="199.2" y1="272.5" x2="203.85" y2="271.3" data-process="handling" stroke="#FFFFFF" stroke-opacity="0.145" stroke-width="0.13"/></g><g id="reproduction-defects" data-process="photocopy-toner"><rect x="78.38" y="0" width="0.200" height="297" fill="#222" fill-opacity="0.016"/><circle cx="22.50" cy="226.43" r="0.106" fill="#242424" fill-opacity="0.023"/><circle cx="84.23" cy="58.59" r="0.071" fill="#242424" fill-opacity="0.021"/><circle cx="124.78" cy="30.65" r="0.117" fill="#242424" fill-opacity="0.020"/><circle cx="71.27" cy="90.21" r="0.099" fill="#242424" fill-opacity="0.024"/><circle cx="125.34" cy="175.48" r="0.051" fill="#242424" fill-opacity="0.025"/><circle cx="71.07" cy="273.61" r="0.141" fill="#242424" fill-opacity="0.020"/><circle cx="115.81" cy="213.51" r="0.074" fill="#242424" fill-opacity="0.019"/><circle cx="88.96" cy="89.52" r="0.134" fill="#242424" fill-opacity="0.022"/><circle cx="47.09" cy="203.25" r="0.099" fill="#242424" fill-opacity="0.026"/><circle cx="9.07" cy="218.42" r="0.114" fill="#242424" fill-opacity="0.024"/><circle cx="76.09" cy="263.87" r="0.049" fill="#242424" fill-opacity="0.024"/><circle cx="193.68" cy="132.46" r="0.093" fill="#242424" fill-opacity="0.019"/><circle cx="102.13" cy="46.66" r="0.079" fill="#242424" fill-opacity="0.021"/><circle cx="180.74" cy="89.24" r="0.088" fill="#242424" fill-opacity="0.023"/><circle cx="49.33" cy="14.46" r="0.055" fill="#242424" fill-opacity="0.026"/><circle cx="112.18" cy="137.24" r="0.112" fill="#242424" fill-opacity="0.023"/><circle cx="167.81" cy="195.06" r="0.053" fill="#242424" fill-opacity="0.020"/><circle cx="3.08" cy="19.40" r="0.062" fill="#242424" fill-opacity="0.026"/><circle cx="176.48" cy="70.61" r="0.128" fill="#242424" fill-opacity="0.020"/><circle cx="91.52" cy="281.09" r="0.088" fill="#242424" fill-opacity="0.026"/><circle cx="195.04" cy="264.78" r="0.041" fill="#242424" fill-opacity="0.023"/><circle cx="129.24" cy="211.45" r="0.036" fill="#242424" fill-opacity="0.019"/><circle cx="187.38" cy="36.39" r="0.093" fill="#242424" fill-opacity="0.020"/><circle cx="184.18" cy="158.12" r="0.120" fill="#242424" fill-opacity="0.025"/><circle cx="79.40" cy="190.80" r="0.109" fill="#242424" fill-opacity="0.024"/><circle cx="142.73" cy="184.22" r="0.100" fill="#242424" fill-opacity="0.024"/><circle cx="83.14" cy="158.59" r="0.129" fill="#242424" fill-opacity="0.022"/><circle cx="23.68" cy="105.58" r="0.060" fill="#242424" fill-opacity="0.022"/><circle cx="160.44" cy="160.54" r="0.043" fill="#242424" fill-opacity="0.023"/><circle cx="33.01" cy="199.37" r="0.131" fill="#242424" fill-opacity="0.024"/><circle cx="35.51" cy="126.14" r="0.035" fill="#242424" fill-opacity="0.022"/><circle cx="52.79" cy="133.83" r="0.112" fill="#242424" fill-opacity="0.019"/><circle cx="199.96" cy="15.26" r="0.097" fill="#242424" fill-opacity="0.023"/><circle cx="170.07" cy="157.95" r="0.108" fill="#242424" fill-opacity="0.020"/><circle cx="130.51" cy="139.19" r="0.134" fill="#242424" fill-opacity="0.025"/><rect x="0" y="0" width="210" height="297" fill="#333" fill-opacity="0.022"/></g></svg>