<?xml version="1.0" encoding="UTF-8"?>
<svg xmlns="http://www.w3.org/2000/svg" width="2480" height="3508" viewBox="0 0 210 297" data-format="A4" data-physical-width-mm="210" data-physical-height-mm="297" data-process-ppi="600" data-canonical-ppi="300" data-entry-process="photocopy-toner"><g id="paper-stock"><defs><linearGradient id="edgeTone" x1="0" x2="1" y1="0" y2="1"><stop offset="0" stop-color="#5B574F" stop-opacity="0.028"/><stop offset=".08" stop-color="#FFFFFF" stop-opacity="0"/><stop offset=".90" stop-color="#FFFFFF" stop-opacity="0"/><stop offset="1" stop-color="#4E4B45" stop-opacity="0.035"/></linearGradient><filter id="stockGrain" x="0" y="0" width="100%" height="100%"><feTurbulence type="fractalNoise" baseFrequency="0.045 0.11" numOctaves="2" seed="8090"/><feColorMatrix type="matrix" values="0 0 0 0 0.35  0 0 0 0 0.33  0 0 0 0 0.29  0 0 0 .010 0"/></filter></defs><rect width="210" height="297" fill="#E8E7E2"/><rect width="210" height="297" filter="url(#stockGrain)" opacity=".40"/><path d="M -0.48 6.09 C 55 6.03, 155 5.85, 217.90 6.20" stroke="#6D685F" stroke-opacity="0.0075" stroke-width="0.079" fill="none"/><path d="M 0.22 87.80 C 55 87.50, 155 87.89, 218.71 87.85" stroke="#6D685F" stroke-opacity="0.0078" stroke-width="0.071" fill="none"/><path d="M 7.04 46.93 C 55 47.32, 155 47.31, 219.03 46.96" stroke="#6D685F" stroke-opacity="0.0099" stroke-width="0.074" fill="none"/><path d="M 0.01 289.18 C 55 289.39, 155 289.40, 224.23 289.05" stroke="#6D685F" stroke-opacity="0.0088" stroke-width="0.048" fill="none"/><path d="M 2.41 99.52 C 55 99.66, 155 99.18, 213.30 99.35" stroke="#6D685F" stroke-opacity="0.0041" stroke-width="0.085" fill="none"/><path d="M 7.19 276.64 C 55 276.43, 155 277.03, 198.49 276.56" stroke="#6D685F" stroke-opacity="0.0063" stroke-width="0.045" fill="none"/><path d="M -7.38 27.24 C 55 27.52, 155 26.99, 196.56 27.30" stroke="#6D685F" stroke-opacity="0.0052" stroke-width="0.047" fill="none"/><path d="M 13.84 65.99 C 55 65.93, 155 66.23, 202.22 65.97" stroke="#6D685F" stroke-opacity="0.0098" stroke-width="0.035" fill="none"/><path d="M -8.61 52.24 C 55 51.88, 155 52.39, 203.88 52.06" stroke="#6D685F" stroke-opacity="0.0083" stroke-width="0.060" fill="none"/><path d="M -1.02 246.76 C 55 247.11, 155 246.84, 196.39 246.83" stroke="#6D685F" stroke-opacity="0.0077" stroke-width="0.036" fill="none"/><path d="M 3.94 22.36 C 55 22.40, 155 22.43, 209.92 22.52" stroke="#6D685F" stroke-opacity="0.0049" stroke-width="0.047" fill="none"/><path d="M 14.48 87.82 C 55 88.03, 155 88.06, 207.48 87.94" stroke="#6D685F" stroke-opacity="0.0045" stroke-width="0.052" fill="none"/><path d="M -2.58 36.02 C 55 35.99, 155 35.92, 224.31 36.06" stroke="#6D685F" stroke-opacity="0.0050" stroke-width="0.071" fill="none"/><path d="M 19.39 217.79 C 55 217.60, 155 217.56, 201.56 217.70" stroke="#6D685F" stroke-opacity="0.0051" stroke-width="0.076" fill="none"/><path d="M -1.84 18.77 C 55 18.51, 155 18.60, 197.83 18.80" stroke="#6D685F" stroke-opacity="0.0052" stroke-width="0.051" fill="none"/><path d="M -2.06 35.79 C 55 35.88, 155 35.73, 193.21 35.97" stroke="#6D685F" stroke-opacity="0.0067" stroke-width="0.049" fill="none"/><path d="M 12.45 193.26 C 55 193.18, 155 193.24, 218.30 193.46" stroke="#6D685F" stroke-opacity="0.0088" stroke-width="0.068" fill="none"/><path d="M 3.26 24.35 C 55 24.29, 155 24.32, 204.47 24.34" stroke="#6D685F" stroke-opacity="0.0072" stroke-width="0.046" fill="none"/><path d="M 6.14 265.67 C 55 265.84, 155 265.28, 215.35 265.51" stroke="#6D685F" stroke-opacity="0.0045" stroke-width="0.045" fill="none"/><path d="M 6.56 190.00 C 55 189.88, 155 189.69, 199.74 189.83" stroke="#6D685F" stroke-opacity="0.0094" stroke-width="0.068" fill="none"/><path d="M 18.06 213.46 C 55 213.61, 155 213.58, 215.45 213.38" stroke="#6D685F" stroke-opacity="0.0093" stroke-width="0.045" fill="none"/><path d="M -0.19 97.11 C 55 96.83, 155 97.39, 199.06 97.21" stroke="#6D685F" stroke-opacity="0.0072" stroke-width="0.038" fill="none"/><path d="M 5.11 109.68 C 55 109.51, 155 109.80, 218.58 109.74" stroke="#6D685F" stroke-opacity="0.0084" stroke-width="0.062" fill="none"/><path d="M 2.42 149.18 C 55 148.91, 155 149.42, 200.91 149.11" stroke="#6D685F" stroke-opacity="0.0084" stroke-width="0.055" fill="none"/><path d="M 0.68 139.96 C 55 139.61, 155 139.64, 222.07 139.82" stroke="#6D685F" stroke-opacity="0.0057" stroke-width="0.068" fill="none"/><path d="M 8.25 267.31 C 55 267.68, 155 267.29, 201.14 267.45" stroke="#6D685F" stroke-opacity="0.0061" stroke-width="0.041" fill="none"/><rect width="210" height="297" fill="url(#edgeTone)"/></g><g id="process-content" data-process="photocopy-toner" transform="rotate(0.042 105 148.5)"><g id="ellery-works-seal" data-process="photocopy-toner">
      <circle cx="24" cy="12.8" r="7.2" fill="none" stroke="#2E2E2D" stroke-opacity="0.660" stroke-width=".34"/>
      <circle cx="24" cy="12.8" r="6.2" fill="none" stroke="#2E2E2D" stroke-opacity="0.420" stroke-width=".19"/>
      <text x="24.000" y="13.800" data-process="photocopy-toner" font-family="'Nimbus Roman',serif" font-size="3.0339" font-weight="700" letter-spacing="0.0000" fill="#2E2E2D" fill-opacity="0.760" text-anchor="middle">WE</text>
      <text x="24.000" y="18.000" data-process="photocopy-toner" font-family="'Nimbus Roman',serif" font-size="1.4817" font-weight="600" letter-spacing="0.0000" fill="#2E2E2D" fill-opacity="0.460" text-anchor="middle">WORKS</text>
    </g><text x="17.000" y="11.800" data-process="photocopy-toner" font-family="'Nimbus Roman',serif" font-size="4.5861" font-weight="700" letter-spacing="0.0106" fill="#2E2E2D" fill-opacity="0.840" text-anchor="start">W. ELLERY / WORKS</text><line x1="17" y1="18.2" x2="193" y2="18.2" data-process="photocopy-toner" stroke="#2E2E2D" stroke-opacity="0.384" stroke-width="0.26"/><text x="17.000" y="27.600" data-process="photocopy-toner" font-family="'Nimbus Roman',serif" font-size="3.8100" font-weight="700" letter-spacing="0.0088" fill="#2C2A26" fill-opacity="1.000" text-anchor="start">FIELD NOTE</text><text x="193.000" y="25.500" font-family="'Nimbus Mono PS',monospace" font-size="1.9756" font-weight="400" letter-spacing="0.0000" fill="#252525" fill-opacity="0.460" text-anchor="end">CONT-STOOD-STILL</text><line x1="17" y1="31" x2="193" y2="31" data-process="photocopy-toner" stroke="#5B574F" stroke-opacity="0.3" stroke-width="0.18"/><line x1="29" y1="37.35" x2="193" y2="37.35" data-process="photocopy-toner" stroke="#716C63" stroke-opacity="0.18" stroke-width="0.15"/><line x1="29" y1="43.7" x2="193" y2="43.7" data-process="photocopy-toner" stroke="#716C63" stroke-opacity="0.18" stroke-width="0.15"/><line x1="29" y1="50.050000000000004" x2="193" y2="50.050000000000004" data-process="photocopy-toner" stroke="#716C63" stroke-opacity="0.18" stroke-width="0.15"/><line x1="29" y1="56.400000000000006" x2="193" y2="56.400000000000006" data-process="photocopy-toner" stroke="#716C63" stroke-opacity="0.18" stroke-width="0.15"/><line x1="29" y1="62.75000000000001" x2="193" y2="62.75000000000001" data-process="photocopy-toner" stroke="#716C63" stroke-opacity="0.18" stroke-width="0.15"/><line x1="29" y1="69.10000000000001" x2="193" y2="69.10000000000001" data-process="photocopy-toner" stroke="#716C63" stroke-opacity="0.18" stroke-width="0.15"/><line x1="29" y1="75.45" x2="193" y2="75.45" data-process="photocopy-toner" stroke="#716C63" stroke-opacity="0.18" stroke-width="0.15"/><line x1="29" y1="81.8" x2="193" y2="81.8" data-process="photocopy-toner" stroke="#716C63" stroke-opacity="0.18" stroke-width="0.15"/><line x1="29" y1="88.14999999999999" x2="193" y2="88.14999999999999" data-process="photocopy-toner" stroke="#716C63" stroke-opacity="0.18" stroke-width="0.15"/><line x1="29" y1="94.49999999999999" x2="193" y2="94.49999999999999" data-process="photocopy-toner" stroke="#716C63" stroke-opacity="0.18" stroke-width="0.15"/><line x1="29" y1="100.84999999999998" x2="193" y2="100.84999999999998" data-process="photocopy-toner" stroke="#716C63" stroke-opacity="0.18" stroke-width="0.15"/><line x1="29" y1="107.19999999999997" x2="193" y2="107.19999999999997" data-process="photocopy-toner" stroke="#716C63" stroke-opacity="0.18" stroke-width="0.15"/><line x1="29" y1="113.54999999999997" x2="193" y2="113.54999999999997" data-process="photocopy-toner" stroke="#716C63" stroke-opacity="0.18" stroke-width="0.15"/><line x1="29" y1="119.89999999999996" x2="193" y2="119.89999999999996" data-process="photocopy-toner" stroke="#716C63" stroke-opacity="0.18" stroke-width="0.15"/><line x1="29" y1="126.24999999999996" x2="193" y2="126.24999999999996" data-process="photocopy-toner" stroke="#716C63" stroke-opacity="0.18" stroke-width="0.15"/><line x1="29" y1="132.59999999999997" x2="193" y2="132.59999999999997" data-process="photocopy-toner" stroke="#716C63" stroke-opacity="0.18" stroke-width="0.15"/><line x1="29" y1="138.94999999999996" x2="193" y2="138.94999999999996" data-process="photocopy-toner" stroke="#716C63" stroke-opacity="0.18" stroke-width="0.15"/><line x1="29" y1="145.29999999999995" x2="193" y2="145.29999999999995" data-process="photocopy-toner" stroke="#716C63" stroke-opacity="0.18" stroke-width="0.15"/><line x1="29" y1="151.64999999999995" x2="193" y2="151.64999999999995" data-process="photocopy-toner" stroke="#716C63" stroke-opacity="0.18" stroke-width="0.15"/><line x1="29" y1="157.99999999999994" x2="193" y2="157.99999999999994" data-process="photocopy-toner" stroke="#716C63" stroke-opacity="0.18" stroke-width="0.15"/><line x1="29" y1="164.34999999999994" x2="193" y2="164.34999999999994" data-process="photocopy-toner" stroke="#716C63" stroke-opacity="0.18" stroke-width="0.15"/><line x1="29" y1="170.69999999999993" x2="193" y2="170.69999999999993" data-process="photocopy-toner" stroke="#716C63" stroke-opacity="0.18" stroke-width="0.15"/><line x1="29" y1="177.04999999999993" x2="193" y2="177.04999999999993" data-process="photocopy-toner" stroke="#716C63" stroke-opacity="0.18" stroke-width="0.15"/><line x1="29" y1="183.39999999999992" x2="193" y2="183.39999999999992" data-process="photocopy-toner" stroke="#716C63" stroke-opacity="0.18" stroke-width="0.15"/><line x1="29" y1="189.74999999999991" x2="193" y2="189.74999999999991" data-process="photocopy-toner" stroke="#716C63" stroke-opacity="0.18" stroke-width="0.15"/><line x1="29" y1="196.0999999999999" x2="193" y2="196.0999999999999" data-process="photocopy-toner" stroke="#716C63" stroke-opacity="0.18" stroke-width="0.15"/><line x1="29" y1="202.4499999999999" x2="193" y2="202.4499999999999" data-process="photocopy-toner" stroke="#716C63" stroke-opacity="0.18" stroke-width="0.15"/><line x1="29" y1="208.7999999999999" x2="193" y2="208.7999999999999" data-process="photocopy-toner" stroke="#716C63" stroke-opacity="0.18" stroke-width="0.15"/><line x1="29" y1="215.1499999999999" x2="193" y2="215.1499999999999" data-process="photocopy-toner" stroke="#716C63" stroke-opacity="0.18" stroke-width="0.15"/><line x1="29" y1="221.4999999999999" x2="193" y2="221.4999999999999" data-process="photocopy-toner" stroke="#716C63" stroke-opacity="0.18" stroke-width="0.15"/><line x1="29" y1="227.84999999999988" x2="193" y2="227.84999999999988" data-process="photocopy-toner" stroke="#716C63" stroke-opacity="0.18" stroke-width="0.15"/><line x1="29" y1="234.19999999999987" x2="193" y2="234.19999999999987" data-process="photocopy-toner" stroke="#716C63" stroke-opacity="0.18" stroke-width="0.15"/><line x1="29" y1="240.54999999999987" x2="193" y2="240.54999999999987" data-process="photocopy-toner" stroke="#716C63" stroke-opacity="0.18" stroke-width="0.15"/><line x1="29" y1="246.89999999999986" x2="193" y2="246.89999999999986" data-process="photocopy-toner" stroke="#716C63" stroke-opacity="0.18" stroke-width="0.15"/><line x1="29" y1="253.24999999999986" x2="193" y2="253.24999999999986" data-process="photocopy-toner" stroke="#716C63" stroke-opacity="0.18" stroke-width="0.15"/><line x1="29" y1="259.59999999999985" x2="193" y2="259.59999999999985" data-process="photocopy-toner" stroke="#716C63" stroke-opacity="0.18" stroke-width="0.15"/><line x1="29" y1="265.9499999999999" x2="193" y2="265.9499999999999" data-process="photocopy-toner" stroke="#716C63" stroke-opacity="0.18" stroke-width="0.15"/><line x1="29" y1="31" x2="29" y2="270" data-process="photocopy-toner" stroke="#716C63" stroke-opacity="0.2" stroke-width="0.16"/><text x="33.000" y="37.350" font-family="'Nimbus Mono PS',monospace" font-size="4.2333" font-weight="400" letter-spacing="0.0000" fill="#242321" fill-opacity="0.940" text-anchor="start">Long enough to hear my breathing.</text><text x="33.000" y="43.700" font-family="'Nimbus Mono PS',monospace" font-size="4.2333" font-weight="400" letter-spacing="0.0000" fill="#242321" fill-opacity="0.940" text-anchor="start">Not long enough to calm it.</text><line x1="17" y1="282" x2="193" y2="282" data-process="photocopy-toner" stroke="#56534E" stroke-opacity="0.216" stroke-width="0.18"/><text x="17.000" y="286.400" data-process="photocopy-toner" font-family="'Nimbus Roman',serif" font-size="2.3636" font-weight="400" letter-spacing="0.0000" fill="#56534E" fill-opacity="0.420" text-anchor="start">W. ELLERY / WORKS · WEST YORKSHIRE</text><text x="193.000" y="286.400" data-process="photocopy-toner" font-family="'Nimbus Roman',serif" font-size="2.3636" font-weight="400" letter-spacing="0.0000" fill="#56534E" fill-opacity="0.420" text-anchor="end">SHEET 1 OF 1</text></g><g id="process-manual" data-process="biro"></g><g id="process-handling" data-process="handling"><rect x="3" y="150.38" width="204" height="1.35" data-process="handling" fill="#6A645A" fill-opacity="0.021"/><line x1="2.5" y1="150.76" x2="207.5" y2="150.76" data-process="handling" stroke="#5D574D" stroke-opacity="0.08410000000000001" stroke-width="0.2"/><line x1="2.5" y1="151.17" x2="207.5" y2="151.17" data-process="handling" stroke="#FFFFFF" stroke-opacity="0.1227" stroke-width="0.22"/><line x1="6" y1="151.58" x2="204" y2="151.58" data-process="handling" stroke="#81796C" stroke-opacity="0.0353" stroke-width="0.12"/><circle cx="16" cy="278" r="34" data-process="handling" fill="#8A806B" fill-opacity="0.026" stroke="#766B57" stroke-opacity="0.074" stroke-width=".34"/><circle cx="19" cy="274" r="25.16" data-process="handling" fill="none" stroke="#8B8068" stroke-opacity="0.046" stroke-width=".22"/><circle cx="22" cy="271" r="14.62" data-process="handling" fill="none" stroke="#A39A87" stroke-opacity="0.035" stroke-width=".16"/><line x1="1.2" y1="38" x2="4.2" y2="38.45" data-process="handling" stroke="#6B6458" stroke-opacity="0.039" stroke-width="0.17"/><line x1="205.8" y1="46" x2="208.4" y2="45.5" data-process="handling" stroke="#FFFFFF" stroke-opacity="0.0368" stroke-width="0.16"/><line x1="1.75" y1="69.4" x2="4.75" y2="69.85000000000001" data-process="handling" stroke="#6B6458" stroke-opacity="0.039" stroke-width="0.17"/><line x1="205.25" y1="77.4" x2="207.85" y2="76.9" data-process="handling" stroke="#FFFFFF" stroke-opacity="0.0368" stroke-width="0.16"/><line x1="2.3" y1="100.8" x2="5.300000000000001" y2="101.25" data-process="handling" stroke="#6B6458" stroke-opacity="0.039" stroke-width="0.17"/><line x1="204.70000000000002" y1="108.8" x2="207.3" y2="108.3" data-process="handling" stroke="#FFFFFF" stroke-opacity="0.0368" stroke-width="0.16"/><line x1="1.2" y1="132.2" x2="4.2" y2="132.64999999999998" data-process="handling" stroke="#6B6458" stroke-opacity="0.039" stroke-width="0.17"/><line x1="205.8" y1="140.2" x2="208.4" y2="139.7" data-process="handling" stroke="#FFFFFF" stroke-opacity="0.0368" stroke-width="0.16"/><line x1="1.75" y1="163.6" x2="4.75" y2="164.04999999999998" data-process="handling" stroke="#6B6458" stroke-opacity="0.039" stroke-width="0.17"/><line x1="205.25" y1="171.6" x2="207.85" y2="171.1" data-process="handling" stroke="#FFFFFF" stroke-opacity="0.0368" stroke-width="0.16"/><line x1="2.3" y1="195" x2="5.300000000000001" y2="195.45" data-process="handling" stroke="#6B6458" stroke-opacity="0.039" stroke-width="0.17"/><line x1="204.70000000000002" y1="203" x2="207.3" y2="202.5" data-process="handling" stroke="#FFFFFF" stroke-opacity="0.0368" stroke-width="0.16"/><line x1="1.2" y1="226.39999999999998" x2="4.2" y2="226.84999999999997" data-process="handling" stroke="#6B6458" stroke-opacity="0.039" stroke-width="0.17"/><line x1="205.8" y1="234.39999999999998" x2="208.4" y2="233.89999999999998" data-process="handling" stroke="#FFFFFF" stroke-opacity="0.0368" stroke-width="0.16"/><line x1="210" y1="286" x2="209.5" y2="284.8" data-process="handling" stroke="#756E62" stroke-opacity="0.055" stroke-width="0.13"/><line x1="207.84" y1="283.3" x2="209.5" y2="282.1" data-process="handling" stroke="#FFFFFF" stroke-opacity="0.073" stroke-width="0.13"/><line x1="205.68" y1="280.6" x2="208.98000000000002" y2="279.40000000000003" data-process="handling" stroke="#756E62" stroke-opacity="0.091" stroke-width="0.13"/><line x1="203.52" y1="277.9" x2="207.27" y2="276.7" data-process="handling" stroke="#FFFFFF" stroke-opacity="0.10899999999999999" stroke-width="0.13"/><line x1="201.36" y1="275.2" x2="205.56000000000003" y2="274" data-process="handling" stroke="#756E62" stroke-opacity="0.127" stroke-width="0.13"/><line x1="199.2" y1="272.5" x2="203.85" y2="271.3" data-process="handling" stroke="#FFFFFF" stroke-opacity="0.145" stroke-width="0.13"/></g><g id="reproduction-defects" data-process="photocopy-toner"><rect x="135.37" y="0" width="0.200" height="297" fill="#222" fill-opacity="0.016"/><circle cx="153.28" cy="155.34" r="0.076" fill="#242424" fill-opacity="0.025"/><circle cx="117.23" cy="28.18" r="0.058" fill="#242424" fill-opacity="0.024"/><circle cx="184.55" cy="247.30" r="0.143" fill="#242424" fill-opacity="0.025"/><circle cx="137.60" cy="192.30" r="0.136" fill="#242424" fill-opacity="0.023"/><circle cx="4.90" cy="50.76" r="0.128" fill="#242424" fill-opacity="0.022"/><circle cx="47.25" cy="141.68" r="0.104" fill="#242424" fill-opacity="0.022"/><circle cx="201.93" cy="10.91" r="0.042" fill="#242424" fill-opacity="0.025"/><circle cx="110.30" cy="32.84" r="0.069" fill="#242424" fill-opacity="0.018"/><circle cx="11.87" cy="81.32" r="0.100" fill="#242424" fill-opacity="0.026"/><circle cx="135.95" cy="73.85" r="0.110" fill="#242424" fill-opacity="0.026"/><circle cx="39.91" cy="218.07" r="0.096" fill="#242424" fill-opacity="0.022"/><circle cx="182.17" cy="266.29" r="0.067" fill="#242424" fill-opacity="0.020"/><circle cx="114.49" cy="91.35" r="0.142" fill="#242424" fill-opacity="0.020"/><circle cx="170.83" cy="98.66" r="0.080" fill="#242424" fill-opacity="0.019"/><circle cx="14.86" cy="74.18" r="0.081" fill="#242424" fill-opacity="0.022"/><circle cx="102.10" cy="40.93" r="0.112" fill="#242424" fill-opacity="0.023"/><circle cx="22.08" cy="61.84" r="0.113" fill="#242424" fill-opacity="0.025"/><circle cx="190.10" cy="107.87" r="0.062" fill="#242424" fill-opacity="0.024"/><circle cx="148.64" cy="176.12" r="0.106" fill="#242424" fill-opacity="0.023"/><circle cx="34.49" cy="245.42" r="0.042" fill="#242424" fill-opacity="0.023"/><circle cx="53.75" cy="81.92" r="0.046" fill="#242424" fill-opacity="0.022"/><circle cx="181.51" cy="103.39" r="0.100" fill="#242424" fill-opacity="0.019"/><circle cx="151.15" cy="175.75" r="0.101" fill="#242424" fill-opacity="0.023"/><circle cx="46.63" cy="122.61" r="0.094" fill="#242424" fill-opacity="0.025"/><circle cx="202.11" cy="73.55" r="0.127" fill="#242424" fill-opacity="0.018"/><circle cx="167.41" cy="60.98" r="0.087" fill="#242424" fill-opacity="0.021"/><circle cx="138.89" cy="282.64" r="0.123" fill="#242424" fill-opacity="0.025"/><circle cx="191.71" cy="27.95" r="0.128" fill="#242424" fill-opacity="0.025"/><circle cx="35.99" cy="253.30" r="0.090" fill="#242424" fill-opacity="0.019"/><circle cx="143.14" cy="147.20" r="0.072" fill="#242424" fill-opacity="0.019"/><circle cx="169.06" cy="61.92" r="0.036" fill="#242424" fill-opacity="0.019"/><circle cx="205.73" cy="179.36" r="0.112" fill="#242424" fill-opacity="0.020"/><circle cx="14.71" cy="12.65" r="0.049" fill="#242424" fill-opacity="0.018"/><circle cx="5.68" cy="48.91" r="0.063" fill="#242424" fill-opacity="0.019"/><circle cx="190.38" cy="90.17" r="0.091" fill="#242424" fill-opacity="0.023"/><rect x="0" y="0" width="210" height="297" fill="#333" fill-opacity="0.022"/></g></svg>