<?xml version="1.0" encoding="UTF-8"?>
<svg xmlns="http://www.w3.org/2000/svg" width="2480" height="3508" viewBox="0 0 210 297" data-format="A4" data-physical-width-mm="210" data-physical-height-mm="297" data-process-ppi="600" data-canonical-ppi="300" data-entry-process="photocopy-toner"><g id="paper-stock"><defs><linearGradient id="edgeTone" x1="0" x2="1" y1="0" y2="1"><stop offset="0" stop-color="#5B574F" stop-opacity="0.016"/><stop offset=".08" stop-color="#FFFFFF" stop-opacity="0"/><stop offset=".90" stop-color="#FFFFFF" stop-opacity="0"/><stop offset="1" stop-color="#4E4B45" stop-opacity="0.019"/></linearGradient><filter id="stockGrain" x="0" y="0" width="100%" height="100%"><feTurbulence type="fractalNoise" baseFrequency="0.045 0.11" numOctaves="2" seed="6954"/><feColorMatrix type="matrix" values="0 0 0 0 0.35  0 0 0 0 0.33  0 0 0 0 0.29  0 0 0 .010 0"/></filter></defs><rect width="210" height="297" fill="#ECEBE6"/><rect width="210" height="297" filter="url(#stockGrain)" opacity=".40"/><path d="M -7.06 140.33 C 55 140.52, 155 140.56, 194.05 140.44" stroke="#6D685F" stroke-opacity="0.0072" stroke-width="0.046" fill="none"/><path d="M 14.86 204.25 C 55 203.93, 155 203.89, 218.27 204.32" stroke="#6D685F" stroke-opacity="0.0065" stroke-width="0.059" fill="none"/><path d="M 6.14 260.20 C 55 260.06, 155 260.46, 211.75 260.28" stroke="#6D685F" stroke-opacity="0.0096" stroke-width="0.080" fill="none"/><path d="M 10.21 67.65 C 55 68.01, 155 67.91, 194.59 67.45" stroke="#6D685F" stroke-opacity="0.0085" stroke-width="0.084" fill="none"/><path d="M 12.68 163.63 C 55 163.42, 155 163.61, 199.85 163.47" stroke="#6D685F" stroke-opacity="0.0063" stroke-width="0.063" fill="none"/><path d="M -7.80 5.41 C 55 5.76, 155 5.58, 199.38 5.30" stroke="#6D685F" stroke-opacity="0.0067" stroke-width="0.035" fill="none"/><path d="M 11.92 17.13 C 55 17.36, 155 17.36, 215.96 17.04" stroke="#6D685F" stroke-opacity="0.0085" stroke-width="0.059" fill="none"/><path d="M 7.43 176.85 C 55 177.12, 155 176.92, 212.05 176.74" stroke="#6D685F" stroke-opacity="0.0066" stroke-width="0.078" fill="none"/><path d="M 7.99 216.28 C 55 216.03, 155 216.28, 198.99 216.24" stroke="#6D685F" stroke-opacity="0.0087" stroke-width="0.068" fill="none"/><path d="M 19.19 69.82 C 55 69.43, 155 70.05, 201.25 69.96" stroke="#6D685F" stroke-opacity="0.0065" stroke-width="0.048" fill="none"/><path d="M 16.14 212.06 C 55 212.35, 155 211.95, 210.28 211.85" stroke="#6D685F" stroke-opacity="0.0052" stroke-width="0.069" fill="none"/><path d="M 4.60 158.17 C 55 158.50, 155 158.40, 197.13 158.30" stroke="#6D685F" stroke-opacity="0.0087" stroke-width="0.035" fill="none"/><path d="M 5.98 50.98 C 55 50.70, 155 50.67, 215.00 50.97" stroke="#6D685F" stroke-opacity="0.0090" stroke-width="0.057" fill="none"/><path d="M -4.01 211.72 C 55 212.00, 155 211.66, 219.41 211.83" stroke="#6D685F" stroke-opacity="0.0078" stroke-width="0.056" fill="none"/><path d="M 11.68 189.26 C 55 189.53, 155 189.29, 200.47 189.22" stroke="#6D685F" stroke-opacity="0.0098" stroke-width="0.074" fill="none"/><path d="M -2.88 24.96 C 55 24.80, 155 24.59, 222.11 25.08" stroke="#6D685F" stroke-opacity="0.0072" stroke-width="0.040" fill="none"/><path d="M 3.83 114.33 C 55 114.40, 155 114.46, 200.60 114.46" stroke="#6D685F" stroke-opacity="0.0084" stroke-width="0.067" fill="none"/><path d="M 16.60 123.76 C 55 123.40, 155 123.45, 190.41 123.58" stroke="#6D685F" stroke-opacity="0.0087" stroke-width="0.082" fill="none"/><path d="M 2.13 133.47 C 55 133.70, 155 133.69, 205.18 133.59" stroke="#6D685F" stroke-opacity="0.0090" stroke-width="0.074" fill="none"/><path d="M 4.45 107.68 C 55 108.05, 155 107.92, 219.36 107.73" stroke="#6D685F" stroke-opacity="0.0096" stroke-width="0.036" fill="none"/><path d="M 1.16 133.12 C 55 133.14, 155 133.20, 217.27 133.00" stroke="#6D685F" stroke-opacity="0.0054" stroke-width="0.064" fill="none"/><path d="M 13.93 111.65 C 55 111.44, 155 111.31, 211.66 111.64" stroke="#6D685F" stroke-opacity="0.0043" stroke-width="0.053" fill="none"/><path d="M -0.46 179.20 C 55 179.17, 155 179.24, 203.00 179.09" stroke="#6D685F" stroke-opacity="0.0062" stroke-width="0.060" fill="none"/><path d="M 10.36 143.36 C 55 143.30, 155 143.25, 221.59 143.42" stroke="#6D685F" stroke-opacity="0.0069" stroke-width="0.038" fill="none"/><path d="M 5.70 222.87 C 55 223.27, 155 222.83, 198.72 222.83" stroke="#6D685F" stroke-opacity="0.0079" stroke-width="0.069" fill="none"/><path d="M 10.94 183.94 C 55 184.30, 155 184.32, 213.48 184.03" stroke="#6D685F" stroke-opacity="0.0055" stroke-width="0.053" fill="none"/><rect width="210" height="297" fill="url(#edgeTone)"/></g><g id="process-content" data-process="photocopy-toner" transform="rotate(-0.002 105 148.5)"><g id="ellery-works-seal" data-process="photocopy-toner">
      <circle cx="24" cy="12.8" r="7.2" fill="none" stroke="#2E2E2D" stroke-opacity="0.750" stroke-width=".34"/>
      <circle cx="24" cy="12.8" r="6.2" fill="none" stroke="#2E2E2D" stroke-opacity="0.510" stroke-width=".19"/>
      <text x="24.000" y="13.800" data-process="photocopy-toner" font-family="'Nimbus Roman',serif" font-size="3.0339" font-weight="700" letter-spacing="0.0000" fill="#2E2E2D" fill-opacity="0.850" text-anchor="middle">WE</text>
      <text x="24.000" y="18.000" data-process="photocopy-toner" font-family="'Nimbus Roman',serif" font-size="1.4817" font-weight="600" letter-spacing="0.0000" fill="#2E2E2D" fill-opacity="0.550" text-anchor="middle">WORKS</text>
    </g><text x="34.000" y="11.800" data-process="photocopy-toner" font-family="'Nimbus Roman',serif" font-size="5.7150" font-weight="700" letter-spacing="0.0106" fill="#2E2E2D" fill-opacity="0.930" text-anchor="start">W. ELLERY / WORKS</text><text x="34.000" y="17.000" data-process="photocopy-toner" font-family="'Nimbus Roman',serif" font-size="2.9633" font-weight="600" letter-spacing="0.0423" fill="#2E2E2D" fill-opacity="0.750" text-anchor="start">ACOUSTIC RECORDING · TECHNICAL SERVICES</text><text x="193.000" y="10.000" data-process="photocopy-toner" font-family="'Nimbus Roman',serif" font-size="2.6458" font-weight="400" letter-spacing="0.0000" fill="#2E2E2D" fill-opacity="0.700" text-anchor="end">Calder Works, Bradford Road</text><text x="193.000" y="14.000" data-process="photocopy-toner" font-family="'Nimbus Roman',serif" font-size="2.6458" font-weight="400" letter-spacing="0.0000" fill="#2E2E2D" fill-opacity="0.700" text-anchor="end">Brighouse, West Yorkshire  HD6 4AA</text><text x="193.000" y="18.000" data-process="photocopy-toner" font-family="'Nimbus Roman',serif" font-size="2.5047" font-weight="400" letter-spacing="0.0000" fill="#2E2E2D" fill-opacity="0.650" text-anchor="end">Telephone 01484 214 417   Fax 01484 214 418</text><line x1="17" y1="23" x2="193" y2="23" data-process="photocopy-toner" stroke="#2E2E2D" stroke-opacity="0.411" stroke-width="0.26"/><text x="17.000" y="32.400" data-process="photocopy-toner" font-family="'Nimbus Roman',serif" font-size="4.1628" font-weight="700" letter-spacing="0.0088" fill="#2C2A26" fill-opacity="1.000" text-anchor="start">SITE ACCESS / MOVEMENT SHEET</text><text x="17.000" y="44.900" data-process="photocopy-toner" font-family="'Nimbus Roman',serif" font-size="3.6830" font-weight="600" letter-spacing="0.0282" fill="#403E39" fill-opacity="1.000" text-anchor="start">FROM</text><line x1="45" y1="46.25" x2="193" y2="46.25" data-process="photocopy-toner" stroke="#5E5A52" stroke-opacity="0.31" stroke-width="0.17"/><text x="46.400" y="44.900" font-family="'Nimbus Sans',serif" font-size="4.2757" font-weight="400" letter-spacing="0.0000" fill="#232321" fill-opacity="1.000" text-anchor="start">chapel vestry</text><text x="17.000" y="53.900" data-process="photocopy-toner" font-family="'Nimbus Roman',serif" font-size="3.6830" font-weight="600" letter-spacing="0.0282" fill="#403E39" fill-opacity="1.000" text-anchor="start">TO</text><line x1="45" y1="55.25" x2="193" y2="55.25" data-process="photocopy-toner" stroke="#5E5A52" stroke-opacity="0.31" stroke-width="0.17"/><text x="46.400" y="53.900" font-family="'Nimbus Sans',serif" font-size="4.2757" font-weight="400" letter-spacing="0.0000" fill="#232321" fill-opacity="1.000" text-anchor="start">west service</text><text x="17.000" y="66.800" data-process="photocopy-toner" font-family="'Nimbus Roman',serif" font-size="3.5560" font-weight="600" letter-spacing="0.0282" fill="#403E39" fill-opacity="1.000" text-anchor="start">ROUTE / ACCESS NOTES</text><line x1="17" y1="69" x2="193" y2="69" data-process="photocopy-toner" stroke="#4F4B44" stroke-opacity="0.42" stroke-width="0.24"/><line x1="17" y1="69.72" x2="193" y2="69.72" data-process="photocopy-toner" stroke="#6B665D" stroke-opacity="0.17" stroke-width="0.14"/><line x1="17" y1="76.07" x2="193" y2="76.07" data-process="photocopy-toner" stroke="#716C63" stroke-opacity="0.18" stroke-width="0.15"/><line x1="17" y1="82.41999999999999" x2="193" y2="82.41999999999999" data-process="photocopy-toner" stroke="#716C63" stroke-opacity="0.18" stroke-width="0.15"/><line x1="17" y1="88.76999999999998" x2="193" y2="88.76999999999998" data-process="photocopy-toner" stroke="#716C63" stroke-opacity="0.18" stroke-width="0.15"/><line x1="17" y1="95.11999999999998" x2="193" y2="95.11999999999998" data-process="photocopy-toner" stroke="#716C63" stroke-opacity="0.18" stroke-width="0.15"/><line x1="17" y1="101.46999999999997" x2="193" y2="101.46999999999997" data-process="photocopy-toner" stroke="#716C63" stroke-opacity="0.18" stroke-width="0.15"/><line x1="17" y1="107.81999999999996" x2="193" y2="107.81999999999996" data-process="photocopy-toner" stroke="#716C63" stroke-opacity="0.18" stroke-width="0.15"/><line x1="17" y1="114.16999999999996" x2="193" y2="114.16999999999996" data-process="photocopy-toner" stroke="#716C63" stroke-opacity="0.18" stroke-width="0.15"/><line x1="17" y1="120.51999999999995" x2="193" y2="120.51999999999995" data-process="photocopy-toner" stroke="#716C63" stroke-opacity="0.18" stroke-width="0.15"/><line x1="17" y1="126.86999999999995" x2="193" y2="126.86999999999995" data-process="photocopy-toner" stroke="#716C63" stroke-opacity="0.18" stroke-width="0.15"/><line x1="17" y1="133.21999999999994" x2="193" y2="133.21999999999994" data-process="photocopy-toner" stroke="#716C63" stroke-opacity="0.18" stroke-width="0.15"/><line x1="17" y1="139.56999999999994" x2="193" y2="139.56999999999994" data-process="photocopy-toner" stroke="#716C63" stroke-opacity="0.18" stroke-width="0.15"/><line x1="17" y1="145.91999999999993" x2="193" y2="145.91999999999993" data-process="photocopy-toner" stroke="#716C63" stroke-opacity="0.18" stroke-width="0.15"/><line x1="17" y1="152.26999999999992" x2="193" y2="152.26999999999992" data-process="photocopy-toner" stroke="#716C63" stroke-opacity="0.18" stroke-width="0.15"/><line x1="17" y1="158.61999999999992" x2="193" y2="158.61999999999992" data-process="photocopy-toner" stroke="#716C63" stroke-opacity="0.18" stroke-width="0.15"/><line x1="17" y1="164.9699999999999" x2="193" y2="164.9699999999999" data-process="photocopy-toner" stroke="#716C63" stroke-opacity="0.18" stroke-width="0.15"/><line x1="17" y1="171.3199999999999" x2="193" y2="171.3199999999999" data-process="photocopy-toner" stroke="#716C63" stroke-opacity="0.18" stroke-width="0.15"/><line x1="17" y1="177.6699999999999" x2="193" y2="177.6699999999999" data-process="photocopy-toner" stroke="#716C63" stroke-opacity="0.18" stroke-width="0.15"/><line x1="17" y1="184.0199999999999" x2="193" y2="184.0199999999999" data-process="photocopy-toner" stroke="#716C63" stroke-opacity="0.18" stroke-width="0.15"/><line x1="17" y1="190.3699999999999" x2="193" y2="190.3699999999999" data-process="photocopy-toner" stroke="#716C63" stroke-opacity="0.18" stroke-width="0.15"/><line x1="17" y1="196.71999999999989" x2="193" y2="196.71999999999989" data-process="photocopy-toner" stroke="#716C63" stroke-opacity="0.18" stroke-width="0.15"/><line x1="17" y1="203.06999999999988" x2="193" y2="203.06999999999988" data-process="photocopy-toner" stroke="#716C63" stroke-opacity="0.18" stroke-width="0.15"/><line x1="17" y1="209.41999999999987" x2="193" y2="209.41999999999987" data-process="photocopy-toner" stroke="#716C63" stroke-opacity="0.18" stroke-width="0.15"/><line x1="17" y1="215.76999999999987" x2="193" y2="215.76999999999987" data-process="photocopy-toner" stroke="#716C63" stroke-opacity="0.18" stroke-width="0.15"/><line x1="17" y1="222.11999999999986" x2="193" y2="222.11999999999986" data-process="photocopy-toner" stroke="#716C63" stroke-opacity="0.18" stroke-width="0.15"/><line x1="17" y1="228.46999999999986" x2="193" y2="228.46999999999986" data-process="photocopy-toner" stroke="#716C63" stroke-opacity="0.18" stroke-width="0.15"/><line x1="17" y1="234.81999999999985" x2="193" y2="234.81999999999985" data-process="photocopy-toner" stroke="#716C63" stroke-opacity="0.18" stroke-width="0.15"/><line x1="17" y1="241.16999999999985" x2="193" y2="241.16999999999985" data-process="photocopy-toner" stroke="#716C63" stroke-opacity="0.18" stroke-width="0.15"/><line x1="17" y1="247.51999999999984" x2="193" y2="247.51999999999984" data-process="photocopy-toner" stroke="#716C63" stroke-opacity="0.18" stroke-width="0.15"/><line x1="17" y1="253.86999999999983" x2="193" y2="253.86999999999983" data-process="photocopy-toner" stroke="#716C63" stroke-opacity="0.18" stroke-width="0.15"/><line x1="17" y1="260.21999999999986" x2="193" y2="260.21999999999986" data-process="photocopy-toner" stroke="#716C63" stroke-opacity="0.18" stroke-width="0.15"/><text x="21.000" y="76.070" font-family="'Nimbus Mono PS',monospace" font-size="4.2333" font-weight="400" letter-spacing="0.0000" fill="#242321" fill-opacity="0.940" text-anchor="start">I wrote the route before walking it.</text><text x="21.000" y="82.420" font-family="'Nimbus Mono PS',monospace" font-size="4.2333" font-weight="400" letter-spacing="0.0000" fill="#242321" fill-opacity="0.940" text-anchor="start">Normal enough.</text><line x1="17" y1="282" x2="193" y2="282" data-process="photocopy-toner" stroke="#56534E" stroke-opacity="0.23399999999999999" stroke-width="0.18"/><text x="17.000" y="286.400" data-process="photocopy-toner" font-family="'Nimbus Roman',serif" font-size="2.3636" font-weight="400" letter-spacing="0.0000" fill="#56534E" fill-opacity="0.510" text-anchor="start">W. ELLERY / WORKS · WEST YORKSHIRE</text><text x="193.000" y="286.400" data-process="photocopy-toner" font-family="'Nimbus Roman',serif" font-size="2.3636" font-weight="400" letter-spacing="0.0000" fill="#56534E" fill-opacity="0.510" text-anchor="end">SHEET 1 OF 1</text></g><g id="process-manual" data-process="biro"></g><g id="process-handling" data-process="handling"><rect x="3" y="147.88" width="204" height="1.35" data-process="handling" fill="#6A645A" fill-opacity="0.020"/><line x1="2.5" y1="148.26" x2="207.5" y2="148.26" data-process="handling" stroke="#5D574D" stroke-opacity="0.0795" stroke-width="0.2"/><line x1="2.5" y1="148.67" x2="207.5" y2="148.67" data-process="handling" stroke="#FFFFFF" stroke-opacity="0.1165" stroke-width="0.22"/><line x1="6" y1="149.08" x2="204" y2="149.08" data-process="handling" stroke="#81796C" stroke-opacity="0.0335" stroke-width="0.12"/><line x1="17.8" y1="5.3" x2="17.8" y2="20.6" data-process="handling" stroke="#5F594F" stroke-opacity="0.10300000000000001" stroke-width="0.2"/><line x1="20.1" y1="6.4" x2="20.1" y2="18.8" data-process="handling" stroke="#FFFFFF" stroke-opacity="0.06386" stroke-width="0.22"/><line x1="22" y1="7.2" x2="22" y2="17.7" data-process="handling" stroke="#777066" stroke-opacity="0.04326" stroke-width="0.13"/><circle cx="16" cy="278" r="22" data-process="handling" fill="#8A806B" fill-opacity="0.016" stroke="#766B57" stroke-opacity="0.053" stroke-width=".34"/><circle cx="19" cy="274" r="16.28" data-process="handling" fill="none" stroke="#8B8068" stroke-opacity="0.031" stroke-width=".22"/><circle cx="22" cy="271" r="9.46" data-process="handling" fill="none" stroke="#A39A87" stroke-opacity="0.024" stroke-width=".16"/><line x1="1.2" y1="38" x2="4.2" y2="38.45" data-process="handling" stroke="#6B6458" stroke-opacity="0.024" stroke-width="0.17"/><line x1="205.8" y1="46" x2="208.4" y2="45.5" data-process="handling" stroke="#FFFFFF" stroke-opacity="0.0248" stroke-width="0.16"/><line x1="1.75" y1="69.4" x2="4.75" y2="69.85000000000001" data-process="handling" stroke="#6B6458" stroke-opacity="0.024" stroke-width="0.17"/><line x1="205.25" y1="77.4" x2="207.85" y2="76.9" data-process="handling" stroke="#FFFFFF" stroke-opacity="0.0248" stroke-width="0.16"/><line x1="2.3" y1="100.8" x2="5.300000000000001" y2="101.25" data-process="handling" stroke="#6B6458" stroke-opacity="0.024" stroke-width="0.17"/><line x1="204.70000000000002" y1="108.8" x2="207.3" y2="108.3" data-process="handling" stroke="#FFFFFF" stroke-opacity="0.0248" stroke-width="0.16"/><line x1="1.2" y1="132.2" x2="4.2" y2="132.64999999999998" data-process="handling" stroke="#6B6458" stroke-opacity="0.024" stroke-width="0.17"/><line x1="205.8" y1="140.2" x2="208.4" y2="139.7" data-process="handling" stroke="#FFFFFF" stroke-opacity="0.0248" stroke-width="0.16"/><line x1="1.75" y1="163.6" x2="4.75" y2="164.04999999999998" data-process="handling" stroke="#6B6458" stroke-opacity="0.024" stroke-width="0.17"/><line x1="205.25" y1="171.6" x2="207.85" y2="171.1" data-process="handling" stroke="#FFFFFF" stroke-opacity="0.0248" stroke-width="0.16"/><line x1="2.3" y1="195" x2="5.300000000000001" y2="195.45" data-process="handling" stroke="#6B6458" stroke-opacity="0.024" stroke-width="0.17"/><line x1="204.70000000000002" y1="203" x2="207.3" y2="202.5" data-process="handling" stroke="#FFFFFF" stroke-opacity="0.0248" stroke-width="0.16"/><line x1="1.2" y1="226.39999999999998" x2="4.2" y2="226.84999999999997" data-process="handling" stroke="#6B6458" stroke-opacity="0.024" stroke-width="0.17"/><line x1="205.8" y1="234.39999999999998" x2="208.4" y2="233.89999999999998" data-process="handling" stroke="#FFFFFF" stroke-opacity="0.0248" stroke-width="0.16"/></g><g id="reproduction-defects" data-process="photocopy-toner"><rect x="180.08" y="0" width="0.110" height="297" fill="#222" fill-opacity="0.007"/><circle cx="99.73" cy="72.42" r="0.102" fill="#242424" fill-opacity="0.014"/><circle cx="87.08" cy="148.79" r="0.068" fill="#242424" fill-opacity="0.013"/><circle cx="49.00" cy="214.98" r="0.144" fill="#242424" fill-opacity="0.012"/><circle cx="3.57" cy="37.66" r="0.106" fill="#242424" fill-opacity="0.009"/><circle cx="132.91" cy="68.46" r="0.094" fill="#242424" fill-opacity="0.014"/><circle cx="168.46" cy="107.74" r="0.093" fill="#242424" fill-opacity="0.010"/><circle cx="20.04" cy="133.09" r="0.060" fill="#242424" fill-opacity="0.012"/><circle cx="206.00" cy="54.79" r="0.138" fill="#242424" fill-opacity="0.012"/><circle cx="60.40" cy="122.17" r="0.140" fill="#242424" fill-opacity="0.013"/><circle cx="35.76" cy="115.22" r="0.108" fill="#242424" fill-opacity="0.011"/><circle cx="39.47" cy="196.06" r="0.126" fill="#242424" fill-opacity="0.012"/></g></svg>