<?xml version="1.0" encoding="UTF-8"?>
<svg xmlns="http://www.w3.org/2000/svg" width="2480" height="3508" viewBox="0 0 210 297" data-format="A4" data-physical-width-mm="210" data-physical-height-mm="297" data-process-ppi="600" data-canonical-ppi="300" data-entry-process="photocopy-toner"><g id="paper-stock"><defs><linearGradient id="edgeTone" x1="0" x2="1" y1="0" y2="1"><stop offset="0" stop-color="#5B574F" stop-opacity="0.013"/><stop offset=".08" stop-color="#FFFFFF" stop-opacity="0"/><stop offset=".90" stop-color="#FFFFFF" stop-opacity="0"/><stop offset="1" stop-color="#4E4B45" stop-opacity="0.016"/></linearGradient><filter id="stockGrain" x="0" y="0" width="100%" height="100%"><feTurbulence type="fractalNoise" baseFrequency="0.045 0.11" numOctaves="2" seed="3220"/><feColorMatrix type="matrix" values="0 0 0 0 0.35  0 0 0 0 0.33  0 0 0 0 0.29  0 0 0 .010 0"/></filter></defs><rect width="210" height="297" fill="#ECEBE6"/><rect width="210" height="297" filter="url(#stockGrain)" opacity=".40"/><path d="M -5.41 132.59 C 55 132.53, 155 132.77, 202.54 132.37" stroke="#6D685F" stroke-opacity="0.0087" stroke-width="0.062" fill="none"/><path d="M -2.64 253.27 C 55 253.16, 155 253.08, 197.64 253.31" stroke="#6D685F" stroke-opacity="0.0063" stroke-width="0.082" fill="none"/><path d="M 2.88 15.88 C 55 15.54, 155 16.04, 207.25 16.01" stroke="#6D685F" stroke-opacity="0.0067" stroke-width="0.061" fill="none"/><path d="M -7.06 6.59 C 55 6.89, 155 6.73, 201.80 6.81" stroke="#6D685F" stroke-opacity="0.0062" stroke-width="0.062" fill="none"/><path d="M 16.42 50.21 C 55 50.20, 155 50.23, 219.75 50.28" stroke="#6D685F" stroke-opacity="0.0068" stroke-width="0.048" fill="none"/><path d="M 13.91 19.57 C 55 19.72, 155 19.17, 192.88 19.41" stroke="#6D685F" stroke-opacity="0.0065" stroke-width="0.067" fill="none"/><path d="M 5.14 73.62 C 55 73.90, 155 74.00, 202.28 73.55" stroke="#6D685F" stroke-opacity="0.0091" stroke-width="0.062" fill="none"/><path d="M -7.25 52.11 C 55 52.42, 155 51.81, 191.32 52.09" stroke="#6D685F" stroke-opacity="0.0085" stroke-width="0.070" fill="none"/><path d="M 6.58 287.59 C 55 287.24, 155 287.84, 195.92 287.40" stroke="#6D685F" stroke-opacity="0.0066" stroke-width="0.059" fill="none"/><path d="M 14.62 92.25 C 55 92.13, 155 92.18, 208.77 92.35" stroke="#6D685F" stroke-opacity="0.0072" stroke-width="0.084" fill="none"/><path d="M 18.98 242.36 C 55 242.53, 155 242.63, 218.87 242.23" stroke="#6D685F" stroke-opacity="0.0090" stroke-width="0.048" fill="none"/><path d="M 8.91 129.76 C 55 130.10, 155 129.62, 221.54 129.57" stroke="#6D685F" stroke-opacity="0.0098" stroke-width="0.071" fill="none"/><path d="M 8.43 234.57 C 55 234.83, 155 234.55, 209.16 234.45" stroke="#6D685F" stroke-opacity="0.0067" stroke-width="0.064" fill="none"/><path d="M 3.37 52.01 C 55 52.11, 155 51.77, 220.56 51.81" stroke="#6D685F" stroke-opacity="0.0045" stroke-width="0.050" fill="none"/><path d="M 8.26 262.43 C 55 262.09, 155 262.80, 195.19 262.31" stroke="#6D685F" stroke-opacity="0.0093" stroke-width="0.060" fill="none"/><path d="M 5.31 39.56 C 55 39.74, 155 39.92, 204.70 39.72" stroke="#6D685F" stroke-opacity="0.0074" stroke-width="0.047" fill="none"/><path d="M 18.75 204.42 C 55 204.51, 155 204.54, 201.68 204.23" stroke="#6D685F" stroke-opacity="0.0053" stroke-width="0.070" fill="none"/><path d="M 2.58 273.93 C 55 274.11, 155 274.30, 202.51 273.97" stroke="#6D685F" stroke-opacity="0.0089" stroke-width="0.081" fill="none"/><path d="M 3.84 197.91 C 55 198.11, 155 198.12, 199.11 197.97" stroke="#6D685F" stroke-opacity="0.0080" stroke-width="0.065" fill="none"/><path d="M 7.38 175.81 C 55 175.92, 155 175.98, 198.75 175.97" stroke="#6D685F" stroke-opacity="0.0095" stroke-width="0.073" fill="none"/><path d="M 2.12 251.70 C 55 251.62, 155 252.07, 198.22 251.53" stroke="#6D685F" stroke-opacity="0.0068" stroke-width="0.062" fill="none"/><path d="M -5.41 112.01 C 55 111.64, 155 111.67, 213.43 112.11" stroke="#6D685F" stroke-opacity="0.0090" stroke-width="0.053" fill="none"/><path d="M 10.49 195.67 C 55 195.35, 155 195.38, 214.67 195.66" stroke="#6D685F" stroke-opacity="0.0059" stroke-width="0.052" fill="none"/><path d="M -0.62 117.47 C 55 117.41, 155 117.84, 211.44 117.49" stroke="#6D685F" stroke-opacity="0.0072" stroke-width="0.039" fill="none"/><path d="M -2.08 117.95 C 55 118.31, 155 118.09, 194.96 117.77" stroke="#6D685F" stroke-opacity="0.0058" stroke-width="0.060" fill="none"/><path d="M 18.60 226.21 C 55 226.54, 155 225.94, 224.48 226.22" stroke="#6D685F" stroke-opacity="0.0044" stroke-width="0.041" fill="none"/><rect width="210" height="297" fill="url(#edgeTone)"/></g><g id="process-content" data-process="photocopy-toner" transform="rotate(0.024 105 148.5)"><g id="ellery-works-seal" data-process="photocopy-toner">
      <circle cx="24" cy="12.8" r="7.2" fill="none" stroke="#2E2E2D" stroke-opacity="0.765" stroke-width=".34"/>
      <circle cx="24" cy="12.8" r="6.2" fill="none" stroke="#2E2E2D" stroke-opacity="0.525" stroke-width=".19"/>
      <text x="24.000" y="13.800" data-process="photocopy-toner" font-family="'Nimbus Roman',serif" font-size="3.0339" font-weight="700" letter-spacing="0.0000" fill="#2E2E2D" fill-opacity="0.865" text-anchor="middle">WE</text>
      <text x="24.000" y="18.000" data-process="photocopy-toner" font-family="'Nimbus Roman',serif" font-size="1.4817" font-weight="600" letter-spacing="0.0000" fill="#2E2E2D" fill-opacity="0.565" text-anchor="middle">WORKS</text>
    </g><text x="34.000" y="11.800" data-process="photocopy-toner" font-family="'Nimbus Roman',serif" font-size="5.7150" font-weight="700" letter-spacing="0.0106" fill="#2E2E2D" fill-opacity="0.945" text-anchor="start">W. ELLERY / WORKS</text><text x="34.000" y="17.000" data-process="photocopy-toner" font-family="'Nimbus Roman',serif" font-size="2.9633" font-weight="600" letter-spacing="0.0423" fill="#2E2E2D" fill-opacity="0.765" text-anchor="start">ACOUSTIC RECORDING · TECHNICAL SERVICES</text><text x="193.000" y="10.000" data-process="photocopy-toner" font-family="'Nimbus Roman',serif" font-size="2.6458" font-weight="400" letter-spacing="0.0000" fill="#2E2E2D" fill-opacity="0.715" text-anchor="end">Calder Works, Bradford Road</text><text x="193.000" y="14.000" data-process="photocopy-toner" font-family="'Nimbus Roman',serif" font-size="2.6458" font-weight="400" letter-spacing="0.0000" fill="#2E2E2D" fill-opacity="0.715" text-anchor="end">Brighouse, West Yorkshire  HD6 4AA</text><text x="193.000" y="18.000" data-process="photocopy-toner" font-family="'Nimbus Roman',serif" font-size="2.5047" font-weight="400" letter-spacing="0.0000" fill="#2E2E2D" fill-opacity="0.665" text-anchor="end">Telephone 01484 214 417   Fax 01484 214 418</text><line x1="17" y1="23" x2="193" y2="23" data-process="photocopy-toner" stroke="#2E2E2D" stroke-opacity="0.4155" stroke-width="0.26"/><text x="17.000" y="32.400" data-process="photocopy-toner" font-family="'Nimbus Roman',serif" font-size="4.1628" font-weight="700" letter-spacing="0.0088" fill="#2C2A26" fill-opacity="1.000" text-anchor="start">RECORDING CONTAMINATION LOG</text><text x="17.000" y="43.900" data-process="photocopy-toner" font-family="'Nimbus Roman',serif" font-size="3.6830" font-weight="600" letter-spacing="0.0282" fill="#403E39" fill-opacity="1.000" text-anchor="start">CAUSE</text><line x1="48" y1="45.25" x2="193" y2="45.25" data-process="photocopy-toner" stroke="#5E5A52" stroke-opacity="0.31" stroke-width="0.17"/><text x="49.400" y="43.900" font-family="'Nimbus Sans',serif" font-size="4.2757" font-weight="400" letter-spacing="0.0000" fill="#232321" fill-opacity="1.000" text-anchor="start">stand moved too close</text><text x="17.000" y="55.900" data-process="photocopy-toner" font-family="'Nimbus Roman',serif" font-size="3.6830" font-weight="600" letter-spacing="0.0282" fill="#403E39" fill-opacity="1.000" text-anchor="start">ACTION</text><line x1="48" y1="57.25" x2="193" y2="57.25" data-process="photocopy-toner" stroke="#5E5A52" stroke-opacity="0.31" stroke-width="0.17"/><text x="49.400" y="55.900" font-family="'Nimbus Sans',serif" font-size="4.2757" font-weight="400" letter-spacing="0.0000" fill="#232321" fill-opacity="1.000" text-anchor="start">reset position</text><text x="17.000" y="70.800" data-process="photocopy-toner" font-family="'Nimbus Roman',serif" font-size="3.5560" font-weight="600" letter-spacing="0.0282" fill="#403E39" fill-opacity="1.000" text-anchor="start">OBSERVATIONS</text><line x1="17" y1="73" x2="193" y2="73" data-process="photocopy-toner" stroke="#4F4B44" stroke-opacity="0.42" stroke-width="0.24"/><line x1="17" y1="73.72" x2="193" y2="73.72" data-process="photocopy-toner" stroke="#6B665D" stroke-opacity="0.17" stroke-width="0.14"/><line x1="17" y1="80.07" x2="193" y2="80.07" data-process="photocopy-toner" stroke="#716C63" stroke-opacity="0.18" stroke-width="0.15"/><line x1="17" y1="86.41999999999999" x2="193" y2="86.41999999999999" data-process="photocopy-toner" stroke="#716C63" stroke-opacity="0.18" stroke-width="0.15"/><line x1="17" y1="92.76999999999998" x2="193" y2="92.76999999999998" data-process="photocopy-toner" stroke="#716C63" stroke-opacity="0.18" stroke-width="0.15"/><line x1="17" y1="99.11999999999998" x2="193" y2="99.11999999999998" data-process="photocopy-toner" stroke="#716C63" stroke-opacity="0.18" stroke-width="0.15"/><line x1="17" y1="105.46999999999997" x2="193" y2="105.46999999999997" data-process="photocopy-toner" stroke="#716C63" stroke-opacity="0.18" stroke-width="0.15"/><line x1="17" y1="111.81999999999996" x2="193" y2="111.81999999999996" data-process="photocopy-toner" stroke="#716C63" stroke-opacity="0.18" stroke-width="0.15"/><line x1="17" y1="118.16999999999996" x2="193" y2="118.16999999999996" data-process="photocopy-toner" stroke="#716C63" stroke-opacity="0.18" stroke-width="0.15"/><line x1="17" y1="124.51999999999995" x2="193" y2="124.51999999999995" data-process="photocopy-toner" stroke="#716C63" stroke-opacity="0.18" stroke-width="0.15"/><line x1="17" y1="130.86999999999995" x2="193" y2="130.86999999999995" data-process="photocopy-toner" stroke="#716C63" stroke-opacity="0.18" stroke-width="0.15"/><line x1="17" y1="137.21999999999994" x2="193" y2="137.21999999999994" data-process="photocopy-toner" stroke="#716C63" stroke-opacity="0.18" stroke-width="0.15"/><line x1="17" y1="143.56999999999994" x2="193" y2="143.56999999999994" data-process="photocopy-toner" stroke="#716C63" stroke-opacity="0.18" stroke-width="0.15"/><line x1="17" y1="149.91999999999993" x2="193" y2="149.91999999999993" data-process="photocopy-toner" stroke="#716C63" stroke-opacity="0.18" stroke-width="0.15"/><line x1="17" y1="156.26999999999992" x2="193" y2="156.26999999999992" data-process="photocopy-toner" stroke="#716C63" stroke-opacity="0.18" stroke-width="0.15"/><line x1="17" y1="162.61999999999992" x2="193" y2="162.61999999999992" data-process="photocopy-toner" stroke="#716C63" stroke-opacity="0.18" stroke-width="0.15"/><line x1="17" y1="168.9699999999999" x2="193" y2="168.9699999999999" data-process="photocopy-toner" stroke="#716C63" stroke-opacity="0.18" stroke-width="0.15"/><line x1="17" y1="175.3199999999999" x2="193" y2="175.3199999999999" data-process="photocopy-toner" stroke="#716C63" stroke-opacity="0.18" stroke-width="0.15"/><line x1="17" y1="181.6699999999999" x2="193" y2="181.6699999999999" data-process="photocopy-toner" stroke="#716C63" stroke-opacity="0.18" stroke-width="0.15"/><line x1="17" y1="188.0199999999999" x2="193" y2="188.0199999999999" data-process="photocopy-toner" stroke="#716C63" stroke-opacity="0.18" stroke-width="0.15"/><line x1="17" y1="194.3699999999999" x2="193" y2="194.3699999999999" data-process="photocopy-toner" stroke="#716C63" stroke-opacity="0.18" stroke-width="0.15"/><line x1="17" y1="200.71999999999989" x2="193" y2="200.71999999999989" data-process="photocopy-toner" stroke="#716C63" stroke-opacity="0.18" stroke-width="0.15"/><line x1="17" y1="207.06999999999988" x2="193" y2="207.06999999999988" data-process="photocopy-toner" stroke="#716C63" stroke-opacity="0.18" stroke-width="0.15"/><line x1="17" y1="213.41999999999987" x2="193" y2="213.41999999999987" data-process="photocopy-toner" stroke="#716C63" stroke-opacity="0.18" stroke-width="0.15"/><line x1="17" y1="219.76999999999987" x2="193" y2="219.76999999999987" data-process="photocopy-toner" stroke="#716C63" stroke-opacity="0.18" stroke-width="0.15"/><line x1="17" y1="226.11999999999986" x2="193" y2="226.11999999999986" data-process="photocopy-toner" stroke="#716C63" stroke-opacity="0.18" stroke-width="0.15"/><line x1="17" y1="232.46999999999986" x2="193" y2="232.46999999999986" data-process="photocopy-toner" stroke="#716C63" stroke-opacity="0.18" stroke-width="0.15"/><line x1="17" y1="238.81999999999985" x2="193" y2="238.81999999999985" data-process="photocopy-toner" stroke="#716C63" stroke-opacity="0.18" stroke-width="0.15"/><line x1="17" y1="245.16999999999985" x2="193" y2="245.16999999999985" data-process="photocopy-toner" stroke="#716C63" stroke-opacity="0.18" stroke-width="0.15"/><line x1="17" y1="251.51999999999984" x2="193" y2="251.51999999999984" data-process="photocopy-toner" stroke="#716C63" stroke-opacity="0.18" stroke-width="0.15"/><line x1="17" y1="257.86999999999983" x2="193" y2="257.86999999999983" data-process="photocopy-toner" stroke="#716C63" stroke-opacity="0.18" stroke-width="0.15"/><line x1="17" y1="264.21999999999986" x2="193" y2="264.21999999999986" data-process="photocopy-toner" stroke="#716C63" stroke-opacity="0.18" stroke-width="0.15"/><line x1="17" y1="282" x2="193" y2="282" data-process="photocopy-toner" stroke="#56534E" stroke-opacity="0.237" stroke-width="0.18"/><text x="17.000" y="286.400" data-process="photocopy-toner" font-family="'Nimbus Roman',serif" font-size="2.3636" font-weight="400" letter-spacing="0.0000" fill="#56534E" fill-opacity="0.525" text-anchor="start">W. ELLERY / WORKS · WEST YORKSHIRE</text><text x="193.000" y="286.400" data-process="photocopy-toner" font-family="'Nimbus Roman',serif" font-size="2.3636" font-weight="400" letter-spacing="0.0000" fill="#56534E" fill-opacity="0.525" text-anchor="end">SHEET 1 OF 1</text></g><g id="process-manual" data-process="biro"></g><g id="process-handling" data-process="handling"><rect x="3" y="98.38" width="204" height="1.35" data-process="handling" fill="#6A645A" fill-opacity="0.024"/><line x1="2.5" y1="98.76" x2="207.5" y2="98.76" data-process="handling" stroke="#5D574D" stroke-opacity="0.0979" stroke-width="0.2"/><line x1="2.5" y1="99.17" x2="207.5" y2="99.17" data-process="handling" stroke="#FFFFFF" stroke-opacity="0.1413" stroke-width="0.22"/><line x1="6" y1="99.58" x2="204" y2="99.58" data-process="handling" stroke="#81796C" stroke-opacity="0.0407" stroke-width="0.12"/><rect x="3" y="197.38" width="204" height="1.35" data-process="handling" fill="#6A645A" fill-opacity="0.021"/><line x1="2.5" y1="198.24" x2="207.5" y2="198.24" data-process="handling" stroke="#5D574D" stroke-opacity="0.08410000000000001" stroke-width="0.2"/><line x1="2.5" y1="197.83" x2="207.5" y2="197.83" data-process="handling" stroke="#FFFFFF" stroke-opacity="0.1227" stroke-width="0.22"/><line x1="6" y1="197.42" x2="204" y2="197.42" data-process="handling" stroke="#81796C" stroke-opacity="0.0353" stroke-width="0.12"/><circle cx="16" cy="278" r="30" data-process="handling" fill="#8A806B" fill-opacity="0.021" stroke="#766B57" stroke-opacity="0.064" stroke-width=".34"/><circle cx="19" cy="274" r="22.20" data-process="handling" fill="none" stroke="#8B8068" stroke-opacity="0.038" stroke-width=".22"/><circle cx="22" cy="271" r="12.90" data-process="handling" fill="none" stroke="#A39A87" stroke-opacity="0.030" stroke-width=".16"/><line x1="1.2" y1="38" x2="4.2" y2="38.45" data-process="handling" stroke="#6B6458" stroke-opacity="0.03" stroke-width="0.17"/><line x1="205.8" y1="46" x2="208.4" y2="45.5" data-process="handling" stroke="#FFFFFF" stroke-opacity="0.0296" stroke-width="0.16"/><line x1="1.75" y1="69.4" x2="4.75" y2="69.85000000000001" data-process="handling" stroke="#6B6458" stroke-opacity="0.03" stroke-width="0.17"/><line x1="205.25" y1="77.4" x2="207.85" y2="76.9" data-process="handling" stroke="#FFFFFF" stroke-opacity="0.0296" stroke-width="0.16"/><line x1="2.3" y1="100.8" x2="5.300000000000001" y2="101.25" data-process="handling" stroke="#6B6458" stroke-opacity="0.03" stroke-width="0.17"/><line x1="204.70000000000002" y1="108.8" x2="207.3" y2="108.3" data-process="handling" stroke="#FFFFFF" stroke-opacity="0.0296" stroke-width="0.16"/><line x1="1.2" y1="132.2" x2="4.2" y2="132.64999999999998" data-process="handling" stroke="#6B6458" stroke-opacity="0.03" stroke-width="0.17"/><line x1="205.8" y1="140.2" x2="208.4" y2="139.7" data-process="handling" stroke="#FFFFFF" stroke-opacity="0.0296" stroke-width="0.16"/><line x1="1.75" y1="163.6" x2="4.75" y2="164.04999999999998" data-process="handling" stroke="#6B6458" stroke-opacity="0.03" stroke-width="0.17"/><line x1="205.25" y1="171.6" x2="207.85" y2="171.1" data-process="handling" stroke="#FFFFFF" stroke-opacity="0.0296" stroke-width="0.16"/><line x1="2.3" y1="195" x2="5.300000000000001" y2="195.45" data-process="handling" stroke="#6B6458" stroke-opacity="0.03" stroke-width="0.17"/><line x1="204.70000000000002" y1="203" x2="207.3" y2="202.5" data-process="handling" stroke="#FFFFFF" stroke-opacity="0.0296" stroke-width="0.16"/><line x1="1.2" y1="226.39999999999998" x2="4.2" y2="226.84999999999997" data-process="handling" stroke="#6B6458" stroke-opacity="0.03" stroke-width="0.17"/><line x1="205.8" y1="234.39999999999998" x2="208.4" y2="233.89999999999998" data-process="handling" stroke="#FFFFFF" stroke-opacity="0.0296" stroke-width="0.16"/><line x1="210" y1="286" x2="209.5" y2="284.8" data-process="handling" stroke="#756E62" stroke-opacity="0.055" stroke-width="0.13"/><line x1="208.992" y1="283.3" x2="209.5" y2="282.1" data-process="handling" stroke="#FFFFFF" stroke-opacity="0.073" stroke-width="0.13"/><line x1="207.984" y1="280.6" x2="209.5" y2="279.40000000000003" data-process="handling" stroke="#756E62" stroke-opacity="0.091" stroke-width="0.13"/><line x1="206.976" y1="277.9" x2="209.5" y2="276.7" data-process="handling" stroke="#FFFFFF" stroke-opacity="0.10899999999999999" stroke-width="0.13"/><line x1="205.968" y1="275.2" x2="209.5" y2="274" data-process="handling" stroke="#756E62" stroke-opacity="0.127" stroke-width="0.13"/><line x1="204.96" y1="272.5" x2="209.5" y2="271.3" data-process="handling" stroke="#FFFFFF" stroke-opacity="0.145" stroke-width="0.13"/></g><g id="reproduction-defects" data-process="photocopy-toner"><rect x="153.75" y="0" width="0.095" height="297" fill="#222" fill-opacity="0.005"/><circle cx="127.33" cy="276.67" r="0.089" fill="#242424" fill-opacity="0.009"/><circle cx="15.36" cy="250.06" r="0.097" fill="#242424" fill-opacity="0.015"/><circle cx="104.99" cy="110.92" r="0.082" fill="#242424" fill-opacity="0.008"/><circle cx="52.00" cy="8.91" r="0.124" fill="#242424" fill-opacity="0.008"/><circle cx="68.71" cy="155.70" r="0.117" fill="#242424" fill-opacity="0.014"/><circle cx="149.93" cy="202.07" r="0.130" fill="#242424" fill-opacity="0.014"/><circle cx="107.37" cy="59.33" r="0.073" fill="#242424" fill-opacity="0.010"/></g></svg>