<?xml version="1.0" encoding="UTF-8"?>
<svg xmlns="http://www.w3.org/2000/svg" width="2480" height="3508" viewBox="0 0 210 297" data-format="A4" data-physical-width-mm="210" data-physical-height-mm="297" data-process-ppi="600" data-canonical-ppi="300" data-entry-process="impact-24-nlq"><g id="paper-stock"><defs><linearGradient id="edgeTone" x1="0" x2="1" y1="0" y2="1"><stop offset="0" stop-color="#5B574F" stop-opacity="0.010"/><stop offset=".08" stop-color="#FFFFFF" stop-opacity="0"/><stop offset=".90" stop-color="#FFFFFF" stop-opacity="0"/><stop offset="1" stop-color="#4E4B45" stop-opacity="0.013"/></linearGradient><filter id="stockGrain" x="0" y="0" width="100%" height="100%"><feTurbulence type="fractalNoise" baseFrequency="0.045 0.11" numOctaves="2" seed="5412"/><feColorMatrix type="matrix" values="0 0 0 0 0.35  0 0 0 0 0.33  0 0 0 0 0.29  0 0 0 .010 0"/></filter></defs><rect width="210" height="297" fill="#F2F0E8"/><rect width="210" height="297" filter="url(#stockGrain)" opacity=".40"/><path d="M -5.45 4.47 C 55 4.31, 155 4.40, 202.92 4.61" stroke="#6D685F" stroke-opacity="0.0066" stroke-width="0.035" fill="none"/><path d="M -4.87 111.21 C 55 111.20, 155 110.98, 197.88 111.25" stroke="#6D685F" stroke-opacity="0.0092" stroke-width="0.050" fill="none"/><path d="M -0.36 170.83 C 55 170.91, 155 171.09, 197.28 170.72" stroke="#6D685F" stroke-opacity="0.0057" stroke-width="0.082" fill="none"/><path d="M 12.33 203.55 C 55 203.28, 155 203.36, 209.90 203.56" stroke="#6D685F" stroke-opacity="0.0063" stroke-width="0.060" fill="none"/><path d="M -9.56 273.96 C 55 274.29, 155 274.00, 198.05 273.80" stroke="#6D685F" stroke-opacity="0.0049" stroke-width="0.056" fill="none"/><path d="M -0.49 37.58 C 55 37.67, 155 37.87, 197.72 37.53" stroke="#6D685F" stroke-opacity="0.0074" stroke-width="0.048" fill="none"/><path d="M 10.96 127.26 C 55 127.05, 155 127.40, 201.07 127.14" stroke="#6D685F" stroke-opacity="0.0077" stroke-width="0.055" fill="none"/><path d="M 15.74 9.45 C 55 9.34, 155 9.52, 209.46 9.41" stroke="#6D685F" stroke-opacity="0.0093" stroke-width="0.077" fill="none"/><path d="M -3.38 250.91 C 55 250.96, 155 251.01, 203.95 250.77" stroke="#6D685F" stroke-opacity="0.0093" stroke-width="0.040" fill="none"/><path d="M -2.91 30.26 C 55 29.90, 155 30.04, 205.72 30.34" stroke="#6D685F" stroke-opacity="0.0062" stroke-width="0.080" fill="none"/><path d="M 11.77 27.87 C 55 27.95, 155 27.55, 201.66 27.86" stroke="#6D685F" stroke-opacity="0.0041" stroke-width="0.073" fill="none"/><path d="M 19.55 107.15 C 55 106.91, 155 107.48, 214.99 107.02" stroke="#6D685F" stroke-opacity="0.0091" stroke-width="0.057" fill="none"/><path d="M -6.72 76.69 C 55 76.97, 155 77.01, 220.79 76.71" stroke="#6D685F" stroke-opacity="0.0065" stroke-width="0.070" fill="none"/><path d="M -8.60 241.84 C 55 242.14, 155 241.69, 221.85 241.75" stroke="#6D685F" stroke-opacity="0.0088" stroke-width="0.051" fill="none"/><path d="M 9.79 48.49 C 55 48.57, 155 48.15, 198.67 48.66" stroke="#6D685F" stroke-opacity="0.0053" stroke-width="0.048" fill="none"/><path d="M 2.97 267.35 C 55 267.14, 155 267.73, 202.85 267.42" stroke="#6D685F" stroke-opacity="0.0081" stroke-width="0.055" fill="none"/><path d="M 14.99 77.46 C 55 77.60, 155 77.20, 211.20 77.34" stroke="#6D685F" stroke-opacity="0.0071" stroke-width="0.049" fill="none"/><path d="M 6.40 8.02 C 55 8.23, 155 8.28, 190.55 7.93" stroke="#6D685F" stroke-opacity="0.0094" stroke-width="0.062" fill="none"/><path d="M 19.05 13.33 C 55 13.49, 155 13.18, 219.59 13.53" stroke="#6D685F" stroke-opacity="0.0086" stroke-width="0.083" fill="none"/><path d="M 0.91 171.58 C 55 171.28, 155 171.61, 211.75 171.47" stroke="#6D685F" stroke-opacity="0.0087" stroke-width="0.042" fill="none"/><path d="M -0.12 189.85 C 55 190.13, 155 189.83, 193.19 189.96" stroke="#6D685F" stroke-opacity="0.0087" stroke-width="0.062" fill="none"/><path d="M 19.61 118.86 C 55 118.71, 155 118.67, 211.75 118.97" stroke="#6D685F" stroke-opacity="0.0087" stroke-width="0.064" fill="none"/><path d="M -5.73 42.99 C 55 43.17, 155 42.77, 191.27 43.13" stroke="#6D685F" stroke-opacity="0.0087" stroke-width="0.037" fill="none"/><path d="M 10.84 155.51 C 55 155.66, 155 155.59, 218.46 155.50" stroke="#6D685F" stroke-opacity="0.0052" stroke-width="0.046" fill="none"/><path d="M -0.96 189.96 C 55 189.65, 155 190.02, 216.91 189.89" stroke="#6D685F" stroke-opacity="0.0079" stroke-width="0.070" fill="none"/><path d="M 10.89 236.87 C 55 236.81, 155 236.83, 209.48 236.71" stroke="#6D685F" stroke-opacity="0.0076" stroke-width="0.052" fill="none"/><rect width="210" height="297" fill="url(#edgeTone)"/></g><g id="process-content" data-process="impact-24-nlq" transform="rotate(0.000 105 148.5)"><g id="ellery-works-seal" data-process="preprinted-stationery">
      <circle cx="24" cy="12.8" r="7.2" fill="none" stroke="#263A4B" stroke-opacity="0.780" stroke-width=".34"/>
      <circle cx="24" cy="12.8" r="6.2" fill="none" stroke="#263A4B" stroke-opacity="0.540" stroke-width=".19"/>
      <text x="24.000" y="13.800" data-process="preprinted-stationery" font-family="'Nimbus Roman',serif" font-size="3.0339" font-weight="700" letter-spacing="0.0000" fill="#263A4B" fill-opacity="0.880" text-anchor="middle">WE</text>
      <text x="24.000" y="18.000" data-process="preprinted-stationery" font-family="'Nimbus Roman',serif" font-size="1.4817" font-weight="600" letter-spacing="0.0000" fill="#263A4B" fill-opacity="0.580" text-anchor="middle">WORKS</text>
    </g><text x="34.000" y="11.800" data-process="preprinted-stationery" font-family="'Nimbus Roman',serif" font-size="5.7150" font-weight="700" letter-spacing="0.0106" fill="#263A4B" fill-opacity="0.960" text-anchor="start">W. ELLERY / WORKS</text><text x="34.000" y="17.000" data-process="preprinted-stationery" font-family="'Nimbus Roman',serif" font-size="2.9633" font-weight="600" letter-spacing="0.0423" fill="#263A4B" fill-opacity="0.780" text-anchor="start">ACOUSTIC RECORDING · TECHNICAL SERVICES</text><text x="193.000" y="10.000" data-process="preprinted-stationery" font-family="'Nimbus Roman',serif" font-size="2.6458" font-weight="400" letter-spacing="0.0000" fill="#263A4B" fill-opacity="0.730" text-anchor="end">Calder Works, Bradford Road</text><text x="193.000" y="14.000" data-process="preprinted-stationery" font-family="'Nimbus Roman',serif" font-size="2.6458" font-weight="400" letter-spacing="0.0000" fill="#263A4B" fill-opacity="0.730" text-anchor="end">Brighouse, West Yorkshire  HD6 4AA</text><text x="193.000" y="18.000" data-process="preprinted-stationery" font-family="'Nimbus Roman',serif" font-size="2.5047" font-weight="400" letter-spacing="0.0000" fill="#263A4B" fill-opacity="0.680" text-anchor="end">Telephone 01484 214 417   Fax 01484 214 418</text><line x1="17" y1="23" x2="193" y2="23" data-process="preprinted-stationery" stroke="#263A4B" stroke-opacity="0.42" stroke-width="0.26"/><text x="17.000" y="32.400" data-process="preprinted-stationery" font-family="'Nimbus Roman',serif" font-size="4.1628" font-weight="700" letter-spacing="0.0088" fill="#2C2A26" fill-opacity="1.000" text-anchor="start">EQUIPMENT ISSUE / RETURN</text><text x="17.000" y="44.200" data-process="preprinted-stationery" font-family="'Nimbus Roman',serif" font-size="3.1044" font-weight="600" letter-spacing="0.0282" fill="#403E39" fill-opacity="1.000" text-anchor="start">REF</text><text x="49.000" y="44.200" data-process="preprinted-stationery" font-family="'Nimbus Roman',serif" font-size="3.1044" font-weight="600" letter-spacing="0.0282" fill="#403E39" fill-opacity="1.000" text-anchor="start">ITEM / STATUS</text><line x1="17" y1="46.1" x2="193" y2="46.1" data-process="preprinted-stationery" stroke="#494846" stroke-opacity="0.38" stroke-width="0.2"/><line x1="17" y1="55" x2="193" y2="55" data-process="preprinted-stationery" stroke="#494846" stroke-opacity="0.17" stroke-width="0.14"/><text x="19.000" y="53.800" data-process="preprinted-stationery" font-family="'Nimbus Roman',serif" font-size="2.0461" font-weight="600" letter-spacing="0.0282" fill="#403E39" fill-opacity="1.000" text-anchor="start">ITEM 1</text><text x="49.000" y="53.800" font-family="'Nimbus Mono PS',monospace" font-size="2.6811" font-weight="400" letter-spacing="0.0000" fill="#252525" fill-opacity="1.000" text-anchor="start">recorder</text><line x1="17" y1="64" x2="193" y2="64" data-process="preprinted-stationery" stroke="#494846" stroke-opacity="0.17" stroke-width="0.14"/><text x="19.000" y="62.800" data-process="preprinted-stationery" font-family="'Nimbus Roman',serif" font-size="2.0461" font-weight="600" letter-spacing="0.0282" fill="#403E39" fill-opacity="1.000" text-anchor="start">ITEM 2</text><text x="49.000" y="62.800" font-family="'Nimbus Mono PS',monospace" font-size="2.6811" font-weight="400" letter-spacing="0.0000" fill="#252525" fill-opacity="1.000" text-anchor="start">headphones</text><line x1="17" y1="73" x2="193" y2="73" data-process="preprinted-stationery" stroke="#494846" stroke-opacity="0.17" stroke-width="0.14"/><text x="19.000" y="71.800" data-process="preprinted-stationery" font-family="'Nimbus Roman',serif" font-size="2.0461" font-weight="600" letter-spacing="0.0282" fill="#403E39" fill-opacity="1.000" text-anchor="start">ITEM 3</text><text x="49.000" y="71.800" font-family="'Nimbus Mono PS',monospace" font-size="2.6811" font-weight="400" letter-spacing="0.0000" fill="#252525" fill-opacity="1.000" text-anchor="start">torch</text><line x1="17" y1="82" x2="193" y2="82" data-process="preprinted-stationery" stroke="#494846" stroke-opacity="0.17" stroke-width="0.14"/><text x="19.000" y="80.800" data-process="preprinted-stationery" font-family="'Nimbus Roman',serif" font-size="2.0461" font-weight="600" letter-spacing="0.0282" fill="#403E39" fill-opacity="1.000" text-anchor="start">STATUS</text><text x="49.000" y="80.800" font-family="'Nimbus Mono PS',monospace" font-size="2.6811" font-weight="400" letter-spacing="0.0000" fill="#252525" fill-opacity="1.000" text-anchor="start">all signed back</text><text x="17.000" y="93.800" data-process="preprinted-stationery" font-family="'Nimbus Roman',serif" font-size="3.5560" font-weight="600" letter-spacing="0.0282" fill="#403E39" fill-opacity="1.000" text-anchor="start">NOTES / RETURN</text><line x1="17" y1="96" x2="193" y2="96" data-process="preprinted-stationery" stroke="#4F4B44" stroke-opacity="0.42" stroke-width="0.24"/><line x1="17" y1="96.72" x2="193" y2="96.72" data-process="preprinted-stationery" stroke="#6B665D" stroke-opacity="0.17" stroke-width="0.14"/><line x1="17" y1="103.07" x2="193" y2="103.07" data-process="preprinted-stationery" stroke="#716C63" stroke-opacity="0.18" stroke-width="0.15"/><line x1="17" y1="109.41999999999999" x2="193" y2="109.41999999999999" data-process="preprinted-stationery" stroke="#716C63" stroke-opacity="0.18" stroke-width="0.15"/><line x1="17" y1="115.76999999999998" x2="193" y2="115.76999999999998" data-process="preprinted-stationery" stroke="#716C63" stroke-opacity="0.18" stroke-width="0.15"/><line x1="17" y1="122.11999999999998" x2="193" y2="122.11999999999998" data-process="preprinted-stationery" stroke="#716C63" stroke-opacity="0.18" stroke-width="0.15"/><line x1="17" y1="128.46999999999997" x2="193" y2="128.46999999999997" data-process="preprinted-stationery" stroke="#716C63" stroke-opacity="0.18" stroke-width="0.15"/><line x1="17" y1="134.81999999999996" x2="193" y2="134.81999999999996" data-process="preprinted-stationery" stroke="#716C63" stroke-opacity="0.18" stroke-width="0.15"/><line x1="17" y1="141.16999999999996" x2="193" y2="141.16999999999996" data-process="preprinted-stationery" stroke="#716C63" stroke-opacity="0.18" stroke-width="0.15"/><line x1="17" y1="147.51999999999995" x2="193" y2="147.51999999999995" data-process="preprinted-stationery" stroke="#716C63" stroke-opacity="0.18" stroke-width="0.15"/><line x1="17" y1="153.86999999999995" x2="193" y2="153.86999999999995" data-process="preprinted-stationery" stroke="#716C63" stroke-opacity="0.18" stroke-width="0.15"/><line x1="17" y1="160.21999999999994" x2="193" y2="160.21999999999994" data-process="preprinted-stationery" stroke="#716C63" stroke-opacity="0.18" stroke-width="0.15"/><line x1="17" y1="166.56999999999994" x2="193" y2="166.56999999999994" data-process="preprinted-stationery" stroke="#716C63" stroke-opacity="0.18" stroke-width="0.15"/><line x1="17" y1="172.91999999999993" x2="193" y2="172.91999999999993" data-process="preprinted-stationery" stroke="#716C63" stroke-opacity="0.18" stroke-width="0.15"/><line x1="17" y1="179.26999999999992" x2="193" y2="179.26999999999992" data-process="preprinted-stationery" stroke="#716C63" stroke-opacity="0.18" stroke-width="0.15"/><line x1="17" y1="185.61999999999992" x2="193" y2="185.61999999999992" data-process="preprinted-stationery" stroke="#716C63" stroke-opacity="0.18" stroke-width="0.15"/><line x1="17" y1="191.9699999999999" x2="193" y2="191.9699999999999" data-process="preprinted-stationery" stroke="#716C63" stroke-opacity="0.18" stroke-width="0.15"/><line x1="17" y1="198.3199999999999" x2="193" y2="198.3199999999999" data-process="preprinted-stationery" stroke="#716C63" stroke-opacity="0.18" stroke-width="0.15"/><line x1="17" y1="204.6699999999999" x2="193" y2="204.6699999999999" data-process="preprinted-stationery" stroke="#716C63" stroke-opacity="0.18" stroke-width="0.15"/><line x1="17" y1="211.0199999999999" x2="193" y2="211.0199999999999" data-process="preprinted-stationery" stroke="#716C63" stroke-opacity="0.18" stroke-width="0.15"/><line x1="17" y1="217.3699999999999" x2="193" y2="217.3699999999999" data-process="preprinted-stationery" stroke="#716C63" stroke-opacity="0.18" stroke-width="0.15"/><line x1="17" y1="223.71999999999989" x2="193" y2="223.71999999999989" data-process="preprinted-stationery" stroke="#716C63" stroke-opacity="0.18" stroke-width="0.15"/><line x1="17" y1="230.06999999999988" x2="193" y2="230.06999999999988" data-process="preprinted-stationery" stroke="#716C63" stroke-opacity="0.18" stroke-width="0.15"/><line x1="17" y1="236.41999999999987" x2="193" y2="236.41999999999987" data-process="preprinted-stationery" stroke="#716C63" stroke-opacity="0.18" stroke-width="0.15"/><line x1="17" y1="242.76999999999987" x2="193" y2="242.76999999999987" data-process="preprinted-stationery" stroke="#716C63" stroke-opacity="0.18" stroke-width="0.15"/><line x1="17" y1="249.11999999999986" x2="193" y2="249.11999999999986" data-process="preprinted-stationery" stroke="#716C63" stroke-opacity="0.18" stroke-width="0.15"/><line x1="17" y1="255.46999999999986" x2="193" y2="255.46999999999986" data-process="preprinted-stationery" stroke="#716C63" stroke-opacity="0.18" stroke-width="0.15"/><line x1="17" y1="261.8199999999999" x2="193" y2="261.8199999999999" data-process="preprinted-stationery" stroke="#716C63" stroke-opacity="0.18" stroke-width="0.15"/><line x1="17" y1="282" x2="193" y2="282" data-process="preprinted-stationery" stroke="#56534E" stroke-opacity="0.24" stroke-width="0.18"/><text x="17.000" y="286.400" data-process="preprinted-stationery" font-family="'Nimbus Roman',serif" font-size="2.3636" font-weight="400" letter-spacing="0.0000" fill="#56534E" fill-opacity="0.540" text-anchor="start">W. ELLERY / WORKS · WEST YORKSHIRE</text><text x="193.000" y="286.400" data-process="preprinted-stationery" font-family="'Nimbus Roman',serif" font-size="2.3636" font-weight="400" letter-spacing="0.0000" fill="#56534E" fill-opacity="0.540" text-anchor="end">SHEET 1 OF 1</text></g><g id="process-manual" data-process="biro"></g><g id="process-handling" data-process="handling"><rect x="3" y="147.88" width="204" height="1.35" data-process="handling" fill="#6A645A" fill-opacity="0.020"/><line x1="2.5" y1="148.26" x2="207.5" y2="148.26" data-process="handling" stroke="#5D574D" stroke-opacity="0.0795" stroke-width="0.2"/><line x1="2.5" y1="148.67" x2="207.5" y2="148.67" data-process="handling" stroke="#FFFFFF" stroke-opacity="0.1165" stroke-width="0.22"/><line x1="6" y1="149.08" x2="204" y2="149.08" data-process="handling" stroke="#81796C" stroke-opacity="0.0335" stroke-width="0.12"/><line x1="17.8" y1="5.3" x2="17.8" y2="20.6" data-process="handling" stroke="#5F594F" stroke-opacity="0.10300000000000001" stroke-width="0.2"/><line x1="20.1" y1="6.4" x2="20.1" y2="18.8" data-process="handling" stroke="#FFFFFF" stroke-opacity="0.06386" stroke-width="0.22"/><line x1="22" y1="7.2" x2="22" y2="17.7" data-process="handling" stroke="#777066" stroke-opacity="0.04326" stroke-width="0.13"/><circle cx="16" cy="278" r="22" data-process="handling" fill="#8A806B" fill-opacity="0.016" stroke="#766B57" stroke-opacity="0.053" stroke-width=".34"/><circle cx="19" cy="274" r="16.28" data-process="handling" fill="none" stroke="#8B8068" stroke-opacity="0.031" stroke-width=".22"/><circle cx="22" cy="271" r="9.46" data-process="handling" fill="none" stroke="#A39A87" stroke-opacity="0.024" stroke-width=".16"/><line x1="1.2" y1="38" x2="4.2" y2="38.45" data-process="handling" stroke="#6B6458" stroke-opacity="0.024" stroke-width="0.17"/><line x1="205.8" y1="46" x2="208.4" y2="45.5" data-process="handling" stroke="#FFFFFF" stroke-opacity="0.0248" stroke-width="0.16"/><line x1="1.75" y1="69.4" x2="4.75" y2="69.85000000000001" data-process="handling" stroke="#6B6458" stroke-opacity="0.024" stroke-width="0.17"/><line x1="205.25" y1="77.4" x2="207.85" y2="76.9" data-process="handling" stroke="#FFFFFF" stroke-opacity="0.0248" stroke-width="0.16"/><line x1="2.3" y1="100.8" x2="5.300000000000001" y2="101.25" data-process="handling" stroke="#6B6458" stroke-opacity="0.024" stroke-width="0.17"/><line x1="204.70000000000002" y1="108.8" x2="207.3" y2="108.3" data-process="handling" stroke="#FFFFFF" stroke-opacity="0.0248" stroke-width="0.16"/><line x1="1.2" y1="132.2" x2="4.2" y2="132.64999999999998" data-process="handling" stroke="#6B6458" stroke-opacity="0.024" stroke-width="0.17"/><line x1="205.8" y1="140.2" x2="208.4" y2="139.7" data-process="handling" stroke="#FFFFFF" stroke-opacity="0.0248" stroke-width="0.16"/><line x1="1.75" y1="163.6" x2="4.75" y2="164.04999999999998" data-process="handling" stroke="#6B6458" stroke-opacity="0.024" stroke-width="0.17"/><line x1="205.25" y1="171.6" x2="207.85" y2="171.1" data-process="handling" stroke="#FFFFFF" stroke-opacity="0.0248" stroke-width="0.16"/><line x1="2.3" y1="195" x2="5.300000000000001" y2="195.45" data-process="handling" stroke="#6B6458" stroke-opacity="0.024" stroke-width="0.17"/><line x1="204.70000000000002" y1="203" x2="207.3" y2="202.5" data-process="handling" stroke="#FFFFFF" stroke-opacity="0.0248" stroke-width="0.16"/><line x1="1.2" y1="226.39999999999998" x2="4.2" y2="226.84999999999997" data-process="handling" stroke="#6B6458" stroke-opacity="0.024" stroke-width="0.17"/><line x1="205.8" y1="234.39999999999998" x2="208.4" y2="233.89999999999998" data-process="handling" stroke="#FFFFFF" stroke-opacity="0.0248" stroke-width="0.16"/></g><g id="reproduction-defects" data-process="offset-1c"></g></svg>