<?xml version="1.0" encoding="UTF-8"?>
<svg xmlns="http://www.w3.org/2000/svg" width="2480" height="3508" viewBox="0 0 210 297" data-format="A4" data-physical-width-mm="210" data-physical-height-mm="297" data-process-ppi="600" data-canonical-ppi="300" data-entry-process="photocopy-toner"><g id="paper-stock"><defs><linearGradient id="edgeTone" x1="0" x2="1" y1="0" y2="1"><stop offset="0" stop-color="#5B574F" stop-opacity="0.028"/><stop offset=".08" stop-color="#FFFFFF" stop-opacity="0"/><stop offset=".90" stop-color="#FFFFFF" stop-opacity="0"/><stop offset="1" stop-color="#4E4B45" stop-opacity="0.035"/></linearGradient><filter id="stockGrain" x="0" y="0" width="100%" height="100%"><feTurbulence type="fractalNoise" baseFrequency="0.045 0.11" numOctaves="2" seed="1258"/><feColorMatrix type="matrix" values="0 0 0 0 0.35  0 0 0 0 0.33  0 0 0 0 0.29  0 0 0 .010 0"/></filter></defs><rect width="210" height="297" fill="#E8E7E2"/><rect width="210" height="297" filter="url(#stockGrain)" opacity=".40"/><path d="M -2.33 67.98 C 55 68.07, 155 68.07, 217.75 68.18" stroke="#6D685F" stroke-opacity="0.0066" stroke-width="0.080" fill="none"/><path d="M 15.69 142.81 C 55 143.10, 155 142.82, 215.36 143.03" stroke="#6D685F" stroke-opacity="0.0075" stroke-width="0.072" fill="none"/><path d="M -5.71 54.22 C 55 54.46, 155 54.09, 213.05 54.01" stroke="#6D685F" stroke-opacity="0.0057" stroke-width="0.084" fill="none"/><path d="M -0.28 148.47 C 55 148.30, 155 148.24, 208.92 148.30" stroke="#6D685F" stroke-opacity="0.0098" stroke-width="0.040" fill="none"/><path d="M 11.73 246.08 C 55 245.94, 155 246.14, 209.76 246.01" stroke="#6D685F" stroke-opacity="0.0087" stroke-width="0.039" fill="none"/><path d="M 8.36 121.14 C 55 121.36, 155 121.25, 207.53 120.94" stroke="#6D685F" stroke-opacity="0.0085" stroke-width="0.074" fill="none"/><path d="M 13.38 9.25 C 55 9.06, 155 9.29, 201.43 9.06" stroke="#6D685F" stroke-opacity="0.0090" stroke-width="0.081" fill="none"/><path d="M -3.03 229.93 C 55 230.23, 155 229.91, 197.14 229.75" stroke="#6D685F" stroke-opacity="0.0069" stroke-width="0.082" fill="none"/><path d="M -3.16 176.12 C 55 176.10, 155 175.76, 194.55 176.06" stroke="#6D685F" stroke-opacity="0.0097" stroke-width="0.075" fill="none"/><path d="M 0.67 51.94 C 55 51.61, 155 51.80, 220.15 51.77" stroke="#6D685F" stroke-opacity="0.0046" stroke-width="0.045" fill="none"/><path d="M 10.49 104.45 C 55 104.09, 155 104.82, 197.60 104.23" stroke="#6D685F" stroke-opacity="0.0094" stroke-width="0.052" fill="none"/><path d="M 8.26 91.09 C 55 91.31, 155 90.98, 190.47 91.28" stroke="#6D685F" stroke-opacity="0.0080" stroke-width="0.084" fill="none"/><path d="M 19.54 238.09 C 55 238.37, 155 238.02, 202.98 238.15" stroke="#6D685F" stroke-opacity="0.0050" stroke-width="0.054" fill="none"/><path d="M -4.57 37.65 C 55 37.57, 155 37.36, 195.07 37.61" stroke="#6D685F" stroke-opacity="0.0045" stroke-width="0.065" fill="none"/><path d="M 16.75 129.05 C 55 129.15, 155 128.99, 218.27 129.02" stroke="#6D685F" stroke-opacity="0.0063" stroke-width="0.059" fill="none"/><path d="M 10.43 214.87 C 55 214.79, 155 214.64, 209.66 214.78" stroke="#6D685F" stroke-opacity="0.0090" stroke-width="0.049" fill="none"/><path d="M -3.47 148.53 C 55 148.21, 155 148.52, 192.27 148.35" stroke="#6D685F" stroke-opacity="0.0083" stroke-width="0.071" fill="none"/><path d="M 17.44 277.73 C 55 278.00, 155 278.04, 211.47 277.74" stroke="#6D685F" stroke-opacity="0.0069" stroke-width="0.045" fill="none"/><path d="M 0.70 249.68 C 55 250.00, 155 249.79, 192.21 249.48" stroke="#6D685F" stroke-opacity="0.0051" stroke-width="0.071" fill="none"/><path d="M 6.04 167.02 C 55 167.28, 155 166.75, 219.80 167.20" stroke="#6D685F" stroke-opacity="0.0061" stroke-width="0.048" fill="none"/><path d="M -8.00 265.99 C 55 266.23, 155 266.31, 209.88 265.86" stroke="#6D685F" stroke-opacity="0.0083" stroke-width="0.072" fill="none"/><path d="M 15.67 118.38 C 55 118.69, 155 118.14, 220.07 118.18" stroke="#6D685F" stroke-opacity="0.0083" stroke-width="0.046" fill="none"/><path d="M 0.27 236.11 C 55 236.34, 155 235.91, 190.82 236.05" stroke="#6D685F" stroke-opacity="0.0043" stroke-width="0.053" fill="none"/><path d="M 4.49 55.30 C 55 55.66, 155 55.67, 205.84 55.18" stroke="#6D685F" stroke-opacity="0.0094" stroke-width="0.063" fill="none"/><path d="M -1.57 169.53 C 55 169.55, 155 169.36, 216.43 169.48" stroke="#6D685F" stroke-opacity="0.0094" stroke-width="0.084" fill="none"/><path d="M -4.29 138.71 C 55 138.90, 155 138.54, 220.44 138.64" stroke="#6D685F" stroke-opacity="0.0052" stroke-width="0.035" fill="none"/><rect width="210" height="297" fill="url(#edgeTone)"/></g><g id="process-content" data-process="photocopy-toner" transform="rotate(-0.426 105 148.5)"><g id="ellery-works-seal" data-process="photocopy-toner">
      <circle cx="24" cy="12.8" r="7.2" fill="none" stroke="#2E2E2D" stroke-opacity="0.660" stroke-width=".34"/>
      <circle cx="24" cy="12.8" r="6.2" fill="none" stroke="#2E2E2D" stroke-opacity="0.420" stroke-width=".19"/>
      <text x="24.000" y="13.800" data-process="photocopy-toner" font-family="'Nimbus Roman',serif" font-size="3.0339" font-weight="700" letter-spacing="0.0000" fill="#2E2E2D" fill-opacity="0.760" text-anchor="middle">WE</text>
      <text x="24.000" y="18.000" data-process="photocopy-toner" font-family="'Nimbus Roman',serif" font-size="1.4817" font-weight="600" letter-spacing="0.0000" fill="#2E2E2D" fill-opacity="0.460" text-anchor="middle">WORKS</text>
    </g><text x="34.000" y="11.800" data-process="photocopy-toner" font-family="'Nimbus Roman',serif" font-size="5.7150" font-weight="700" letter-spacing="0.0106" fill="#2E2E2D" fill-opacity="0.840" text-anchor="start">W. ELLERY / WORKS</text><text x="34.000" y="17.000" data-process="photocopy-toner" font-family="'Nimbus Roman',serif" font-size="2.9633" font-weight="600" letter-spacing="0.0423" fill="#2E2E2D" fill-opacity="0.660" text-anchor="start">ACOUSTIC RECORDING · TECHNICAL SERVICES</text><text x="193.000" y="10.000" data-process="photocopy-toner" font-family="'Nimbus Roman',serif" font-size="2.6458" font-weight="400" letter-spacing="0.0000" fill="#2E2E2D" fill-opacity="0.610" text-anchor="end">Calder Works, Bradford Road</text><text x="193.000" y="14.000" data-process="photocopy-toner" font-family="'Nimbus Roman',serif" font-size="2.6458" font-weight="400" letter-spacing="0.0000" fill="#2E2E2D" fill-opacity="0.610" text-anchor="end">Brighouse, West Yorkshire  HD6 4AA</text><text x="193.000" y="18.000" data-process="photocopy-toner" font-family="'Nimbus Roman',serif" font-size="2.5047" font-weight="400" letter-spacing="0.0000" fill="#2E2E2D" fill-opacity="0.560" text-anchor="end">Telephone 01484 214 417   Fax 01484 214 418</text><line x1="17" y1="23" x2="193" y2="23" data-process="photocopy-toner" stroke="#2E2E2D" stroke-opacity="0.384" stroke-width="0.26"/><text x="17.000" y="32.400" data-process="photocopy-toner" font-family="'Nimbus Roman',serif" font-size="4.1628" font-weight="700" letter-spacing="0.0088" fill="#2C2A26" fill-opacity="1.000" text-anchor="start">FAULT / REMEDIAL WORKS REPORT</text><text x="17.000" y="44.900" data-process="photocopy-toner" font-family="'Nimbus Roman',serif" font-size="3.6830" font-weight="600" letter-spacing="0.0282" fill="#403E39" fill-opacity="1.000" text-anchor="start">FAULT</text><line x1="46" y1="46.25" x2="193" y2="46.25" data-process="photocopy-toner" stroke="#5E5A52" stroke-opacity="0.31" stroke-width="0.17"/><text x="47.400" y="44.900" font-family="'Nimbus Sans',serif" font-size="4.2757" font-weight="400" letter-spacing="0.0000" fill="#232321" fill-opacity="1.000" text-anchor="start"></text><text x="17.000" y="61.900" data-process="photocopy-toner" font-family="'Nimbus Roman',serif" font-size="3.6830" font-weight="600" letter-spacing="0.0282" fill="#403E39" fill-opacity="1.000" text-anchor="start">CAUSE</text><line x1="46" y1="63.25" x2="193" y2="63.25" data-process="photocopy-toner" stroke="#5E5A52" stroke-opacity="0.31" stroke-width="0.17"/><text x="47.400" y="61.900" font-family="'Nimbus Sans',serif" font-size="4.2757" font-weight="400" letter-spacing="0.0000" fill="#232321" fill-opacity="1.000" text-anchor="start"></text><text x="17.000" y="72.900" data-process="photocopy-toner" font-family="'Nimbus Roman',serif" font-size="3.6830" font-weight="600" letter-spacing="0.0282" fill="#403E39" fill-opacity="1.000" text-anchor="start">ACTION</text><line x1="46" y1="74.25" x2="193" y2="74.25" data-process="photocopy-toner" stroke="#5E5A52" stroke-opacity="0.31" stroke-width="0.17"/><text x="47.400" y="72.900" font-family="'Nimbus Sans',serif" font-size="4.2757" font-weight="400" letter-spacing="0.0000" fill="#232321" fill-opacity="1.000" text-anchor="start">not a works item</text><text x="17.000" y="89.900" data-process="photocopy-toner" font-family="'Nimbus Roman',serif" font-size="3.6830" font-weight="600" letter-spacing="0.0282" fill="#403E39" fill-opacity="1.000" text-anchor="start">RESULT</text><line x1="46" y1="91.25" x2="193" y2="91.25" data-process="photocopy-toner" stroke="#5E5A52" stroke-opacity="0.31" stroke-width="0.17"/><text x="47.400" y="89.900" font-family="'Nimbus Sans',serif" font-size="4.2757" font-weight="400" letter-spacing="0.0000" fill="#232321" fill-opacity="1.000" text-anchor="start"></text><text x="17.000" y="106.900" data-process="photocopy-toner" font-family="'Nimbus Roman',serif" font-size="3.6830" font-weight="600" letter-spacing="0.0282" fill="#403E39" fill-opacity="1.000" text-anchor="start">STATUS</text><line x1="46" y1="108.25" x2="193" y2="108.25" data-process="photocopy-toner" stroke="#5E5A52" stroke-opacity="0.31" stroke-width="0.17"/><text x="47.400" y="106.900" font-family="'Nimbus Sans',serif" font-size="4.2757" font-weight="400" letter-spacing="0.0000" fill="#232321" fill-opacity="1.000" text-anchor="start"></text><text x="17.000" y="121.800" data-process="photocopy-toner" font-family="'Nimbus Roman',serif" font-size="3.5560" font-weight="600" letter-spacing="0.0282" fill="#403E39" fill-opacity="1.000" text-anchor="start">ADDITIONAL NOTES</text><line x1="17" y1="124" x2="193" y2="124" data-process="photocopy-toner" stroke="#4F4B44" stroke-opacity="0.42" stroke-width="0.24"/><line x1="17" y1="124.72" x2="193" y2="124.72" data-process="photocopy-toner" stroke="#6B665D" stroke-opacity="0.17" stroke-width="0.14"/><line x1="17" y1="131.07" x2="193" y2="131.07" data-process="photocopy-toner" stroke="#716C63" stroke-opacity="0.18" stroke-width="0.15"/><line x1="17" y1="137.42" x2="193" y2="137.42" data-process="photocopy-toner" stroke="#716C63" stroke-opacity="0.18" stroke-width="0.15"/><line x1="17" y1="143.76999999999998" x2="193" y2="143.76999999999998" data-process="photocopy-toner" stroke="#716C63" stroke-opacity="0.18" stroke-width="0.15"/><line x1="17" y1="150.11999999999998" x2="193" y2="150.11999999999998" data-process="photocopy-toner" stroke="#716C63" stroke-opacity="0.18" stroke-width="0.15"/><line x1="17" y1="156.46999999999997" x2="193" y2="156.46999999999997" data-process="photocopy-toner" stroke="#716C63" stroke-opacity="0.18" stroke-width="0.15"/><line x1="17" y1="162.81999999999996" x2="193" y2="162.81999999999996" data-process="photocopy-toner" stroke="#716C63" stroke-opacity="0.18" stroke-width="0.15"/><line x1="17" y1="169.16999999999996" x2="193" y2="169.16999999999996" data-process="photocopy-toner" stroke="#716C63" stroke-opacity="0.18" stroke-width="0.15"/><line x1="17" y1="175.51999999999995" x2="193" y2="175.51999999999995" data-process="photocopy-toner" stroke="#716C63" stroke-opacity="0.18" stroke-width="0.15"/><line x1="17" y1="181.86999999999995" x2="193" y2="181.86999999999995" data-process="photocopy-toner" stroke="#716C63" stroke-opacity="0.18" stroke-width="0.15"/><line x1="17" y1="188.21999999999994" x2="193" y2="188.21999999999994" data-process="photocopy-toner" stroke="#716C63" stroke-opacity="0.18" stroke-width="0.15"/><line x1="17" y1="194.56999999999994" x2="193" y2="194.56999999999994" data-process="photocopy-toner" stroke="#716C63" stroke-opacity="0.18" stroke-width="0.15"/><line x1="17" y1="200.91999999999993" x2="193" y2="200.91999999999993" data-process="photocopy-toner" stroke="#716C63" stroke-opacity="0.18" stroke-width="0.15"/><line x1="17" y1="207.26999999999992" x2="193" y2="207.26999999999992" data-process="photocopy-toner" stroke="#716C63" stroke-opacity="0.18" stroke-width="0.15"/><line x1="17" y1="213.61999999999992" x2="193" y2="213.61999999999992" data-process="photocopy-toner" stroke="#716C63" stroke-opacity="0.18" stroke-width="0.15"/><line x1="17" y1="219.9699999999999" x2="193" y2="219.9699999999999" data-process="photocopy-toner" stroke="#716C63" stroke-opacity="0.18" stroke-width="0.15"/><line x1="17" y1="226.3199999999999" x2="193" y2="226.3199999999999" data-process="photocopy-toner" stroke="#716C63" stroke-opacity="0.18" stroke-width="0.15"/><line x1="17" y1="232.6699999999999" x2="193" y2="232.6699999999999" data-process="photocopy-toner" stroke="#716C63" stroke-opacity="0.18" stroke-width="0.15"/><line x1="17" y1="239.0199999999999" x2="193" y2="239.0199999999999" data-process="photocopy-toner" stroke="#716C63" stroke-opacity="0.18" stroke-width="0.15"/><line x1="17" y1="245.3699999999999" x2="193" y2="245.3699999999999" data-process="photocopy-toner" stroke="#716C63" stroke-opacity="0.18" stroke-width="0.15"/><line x1="17" y1="251.71999999999989" x2="193" y2="251.71999999999989" data-process="photocopy-toner" stroke="#716C63" stroke-opacity="0.18" stroke-width="0.15"/><line x1="17" y1="258.0699999999999" x2="193" y2="258.0699999999999" data-process="photocopy-toner" stroke="#716C63" stroke-opacity="0.18" stroke-width="0.15"/><text x="21.000" y="131.070" font-family="'Nimbus Mono PS',monospace" font-size="4.2333" font-weight="400" letter-spacing="0.0000" fill="#242321" fill-opacity="0.940" text-anchor="start">That is not this building.</text><line x1="17" y1="282" x2="193" y2="282" data-process="photocopy-toner" stroke="#56534E" stroke-opacity="0.216" stroke-width="0.18"/><text x="17.000" y="286.400" data-process="photocopy-toner" font-family="'Nimbus Roman',serif" font-size="2.3636" font-weight="400" letter-spacing="0.0000" fill="#56534E" fill-opacity="0.420" text-anchor="start">W. ELLERY / WORKS · WEST YORKSHIRE</text><text x="193.000" y="286.400" data-process="photocopy-toner" font-family="'Nimbus Roman',serif" font-size="2.3636" font-weight="400" letter-spacing="0.0000" fill="#56534E" fill-opacity="0.420" text-anchor="end">SHEET 1 OF 1</text></g><g id="process-manual" data-process="biro"></g><g id="process-handling" data-process="handling"><rect x="3" y="147.88" width="204" height="1.35" data-process="handling" fill="#6A645A" fill-opacity="0.024"/><line x1="2.5" y1="148.26" x2="207.5" y2="148.26" data-process="handling" stroke="#5D574D" stroke-opacity="0.09675" stroke-width="0.2"/><line x1="2.5" y1="148.67" x2="207.5" y2="148.67" data-process="handling" stroke="#FFFFFF" stroke-opacity="0.13975" stroke-width="0.22"/><line x1="6" y1="149.08" x2="204" y2="149.08" data-process="handling" stroke="#81796C" stroke-opacity="0.04025" stroke-width="0.12"/><circle cx="194" cy="278" r="28" data-process="handling" fill="#8A806B" fill-opacity="0.022" stroke="#766B57" stroke-opacity="0.066" stroke-width=".34"/><circle cx="191" cy="274" r="20.72" data-process="handling" fill="none" stroke="#8B8068" stroke-opacity="0.040" stroke-width=".22"/><circle cx="188" cy="271" r="12.04" data-process="handling" fill="none" stroke="#A39A87" stroke-opacity="0.031" stroke-width=".16"/><line x1="1.2" y1="38" x2="4.2" y2="38.45" data-process="handling" stroke="#6B6458" stroke-opacity="0.036" stroke-width="0.17"/><line x1="205.8" y1="46" x2="208.4" y2="45.5" data-process="handling" stroke="#FFFFFF" stroke-opacity="0.0344" stroke-width="0.16"/><line x1="1.75" y1="69.4" x2="4.75" y2="69.85000000000001" data-process="handling" stroke="#6B6458" stroke-opacity="0.036" stroke-width="0.17"/><line x1="205.25" y1="77.4" x2="207.85" y2="76.9" data-process="handling" stroke="#FFFFFF" stroke-opacity="0.0344" stroke-width="0.16"/><line x1="2.3" y1="100.8" x2="5.300000000000001" y2="101.25" data-process="handling" stroke="#6B6458" stroke-opacity="0.036" stroke-width="0.17"/><line x1="204.70000000000002" y1="108.8" x2="207.3" y2="108.3" data-process="handling" stroke="#FFFFFF" stroke-opacity="0.0344" stroke-width="0.16"/><line x1="1.2" y1="132.2" x2="4.2" y2="132.64999999999998" data-process="handling" stroke="#6B6458" stroke-opacity="0.036" stroke-width="0.17"/><line x1="205.8" y1="140.2" x2="208.4" y2="139.7" data-process="handling" stroke="#FFFFFF" stroke-opacity="0.0344" stroke-width="0.16"/><line x1="1.75" y1="163.6" x2="4.75" y2="164.04999999999998" data-process="handling" stroke="#6B6458" stroke-opacity="0.036" stroke-width="0.17"/><line x1="205.25" y1="171.6" x2="207.85" y2="171.1" data-process="handling" stroke="#FFFFFF" stroke-opacity="0.0344" stroke-width="0.16"/><line x1="2.3" y1="195" x2="5.300000000000001" y2="195.45" data-process="handling" stroke="#6B6458" stroke-opacity="0.036" stroke-width="0.17"/><line x1="204.70000000000002" y1="203" x2="207.3" y2="202.5" data-process="handling" stroke="#FFFFFF" stroke-opacity="0.0344" stroke-width="0.16"/><line x1="1.2" y1="226.39999999999998" x2="4.2" y2="226.84999999999997" data-process="handling" stroke="#6B6458" stroke-opacity="0.036" stroke-width="0.17"/><line x1="205.8" y1="234.39999999999998" x2="208.4" y2="233.89999999999998" data-process="handling" stroke="#FFFFFF" stroke-opacity="0.0344" stroke-width="0.16"/><line x1="210" y1="286" x2="209.5" y2="284.8" data-process="handling" stroke="#756E62" stroke-opacity="0.055" stroke-width="0.13"/><line x1="208.704" y1="283.3" x2="209.5" y2="282.1" data-process="handling" stroke="#FFFFFF" stroke-opacity="0.073" stroke-width="0.13"/><line x1="207.408" y1="280.6" x2="209.5" y2="279.40000000000003" data-process="handling" stroke="#756E62" stroke-opacity="0.091" stroke-width="0.13"/><line x1="206.112" y1="277.9" x2="209.5" y2="276.7" data-process="handling" stroke="#FFFFFF" stroke-opacity="0.10899999999999999" stroke-width="0.13"/><line x1="204.816" y1="275.2" x2="209.01600000000002" y2="274" data-process="handling" stroke="#756E62" stroke-opacity="0.127" stroke-width="0.13"/><line x1="203.52" y1="272.5" x2="208.17000000000002" y2="271.3" data-process="handling" stroke="#FFFFFF" stroke-opacity="0.145" stroke-width="0.13"/></g><g id="reproduction-defects" data-process="photocopy-toner"><rect x="176.71" y="0" width="0.200" height="297" fill="#222" fill-opacity="0.016"/><circle cx="196.51" cy="115.57" r="0.081" fill="#242424" fill-opacity="0.020"/><circle cx="174.99" cy="274.01" r="0.125" fill="#242424" fill-opacity="0.024"/><circle cx="69.51" cy="10.28" r="0.091" fill="#242424" fill-opacity="0.023"/><circle cx="29.75" cy="168.36" r="0.108" fill="#242424" fill-opacity="0.023"/><circle cx="207.43" cy="18.56" r="0.084" fill="#242424" fill-opacity="0.024"/><circle cx="9.76" cy="182.78" r="0.136" fill="#242424" fill-opacity="0.019"/><circle cx="100.55" cy="98.67" r="0.119" fill="#242424" fill-opacity="0.026"/><circle cx="111.73" cy="73.80" r="0.048" fill="#242424" fill-opacity="0.019"/><circle cx="64.01" cy="16.01" r="0.092" fill="#242424" fill-opacity="0.022"/><circle cx="69.96" cy="41.55" r="0.139" fill="#242424" fill-opacity="0.020"/><circle cx="29.45" cy="215.64" r="0.130" fill="#242424" fill-opacity="0.026"/><circle cx="139.81" cy="39.92" r="0.051" fill="#242424" fill-opacity="0.020"/><circle cx="184.85" cy="118.69" r="0.082" fill="#242424" fill-opacity="0.019"/><circle cx="173.76" cy="262.08" r="0.065" fill="#242424" fill-opacity="0.022"/><circle cx="139.74" cy="72.72" r="0.070" fill="#242424" fill-opacity="0.019"/><circle cx="116.41" cy="49.10" r="0.078" fill="#242424" fill-opacity="0.019"/><circle cx="175.79" cy="188.03" r="0.093" fill="#242424" fill-opacity="0.024"/><circle cx="155.50" cy="188.92" r="0.082" fill="#242424" fill-opacity="0.023"/><circle cx="166.69" cy="111.10" r="0.122" fill="#242424" fill-opacity="0.024"/><circle cx="5.32" cy="64.74" r="0.092" fill="#242424" fill-opacity="0.021"/><circle cx="177.99" cy="153.18" r="0.039" fill="#242424" fill-opacity="0.018"/><circle cx="84.69" cy="134.78" r="0.061" fill="#242424" fill-opacity="0.018"/><circle cx="5.31" cy="283.86" r="0.083" fill="#242424" fill-opacity="0.019"/><circle cx="44.31" cy="259.96" r="0.100" fill="#242424" fill-opacity="0.025"/><circle cx="150.68" cy="261.79" r="0.060" fill="#242424" fill-opacity="0.020"/><circle cx="58.22" cy="17.85" r="0.052" fill="#242424" fill-opacity="0.023"/><circle cx="22.67" cy="87.02" r="0.062" fill="#242424" fill-opacity="0.023"/><circle cx="113.98" cy="91.96" r="0.108" fill="#242424" fill-opacity="0.019"/><circle cx="113.33" cy="266.04" r="0.086" fill="#242424" fill-opacity="0.025"/><circle cx="13.85" cy="108.68" r="0.116" fill="#242424" fill-opacity="0.021"/><circle cx="103.22" cy="35.29" r="0.126" fill="#242424" fill-opacity="0.019"/><circle cx="122.27" cy="229.58" r="0.055" fill="#242424" fill-opacity="0.019"/><circle cx="48.90" cy="281.83" r="0.097" fill="#242424" fill-opacity="0.025"/><circle cx="20.16" cy="185.28" r="0.060" fill="#242424" fill-opacity="0.022"/><circle cx="142.23" cy="176.80" r="0.111" fill="#242424" fill-opacity="0.020"/><rect x="0" y="0" width="210" height="297" fill="#333" fill-opacity="0.022"/></g></svg>