<?xml version="1.0" encoding="UTF-8"?>
<svg xmlns="http://www.w3.org/2000/svg" width="2480" height="3508" viewBox="0 0 210 297" data-format="A4" data-physical-width-mm="210" data-physical-height-mm="297" data-process-ppi="600" data-canonical-ppi="300" data-entry-process="photocopy-toner"><g id="paper-stock"><defs><linearGradient id="edgeTone" x1="0" x2="1" y1="0" y2="1"><stop offset="0" stop-color="#5B574F" stop-opacity="0.028"/><stop offset=".08" stop-color="#FFFFFF" stop-opacity="0"/><stop offset=".90" stop-color="#FFFFFF" stop-opacity="0"/><stop offset="1" stop-color="#4E4B45" stop-opacity="0.035"/></linearGradient><filter id="stockGrain" x="0" y="0" width="100%" height="100%"><feTurbulence type="fractalNoise" baseFrequency="0.045 0.11" numOctaves="2" seed="7809"/><feColorMatrix type="matrix" values="0 0 0 0 0.35  0 0 0 0 0.33  0 0 0 0 0.29  0 0 0 .010 0"/></filter></defs><rect width="210" height="297" fill="#E8E7E2"/><rect width="210" height="297" filter="url(#stockGrain)" opacity=".40"/><path d="M 7.29 203.92 C 55 204.31, 155 204.05, 216.17 203.94" stroke="#6D685F" stroke-opacity="0.0041" stroke-width="0.069" fill="none"/><path d="M 17.72 276.21 C 55 276.19, 155 276.45, 199.68 276.29" stroke="#6D685F" stroke-opacity="0.0087" stroke-width="0.083" fill="none"/><path d="M -2.67 22.35 C 55 22.38, 155 22.10, 215.04 22.29" stroke="#6D685F" stroke-opacity="0.0080" stroke-width="0.082" fill="none"/><path d="M 4.85 255.68 C 55 255.92, 155 255.38, 216.01 255.79" stroke="#6D685F" stroke-opacity="0.0064" stroke-width="0.048" fill="none"/><path d="M 19.69 37.37 C 55 37.02, 155 37.20, 213.41 37.33" stroke="#6D685F" stroke-opacity="0.0096" stroke-width="0.065" fill="none"/><path d="M -0.18 98.10 C 55 98.48, 155 98.29, 198.20 98.20" stroke="#6D685F" stroke-opacity="0.0061" stroke-width="0.051" fill="none"/><path d="M 1.01 188.93 C 55 189.20, 155 189.08, 194.15 188.77" stroke="#6D685F" stroke-opacity="0.0053" stroke-width="0.080" fill="none"/><path d="M -2.83 54.48 C 55 54.43, 155 54.82, 203.24 54.69" stroke="#6D685F" stroke-opacity="0.0051" stroke-width="0.040" fill="none"/><path d="M 11.01 187.22 C 55 187.55, 155 187.38, 193.14 187.25" stroke="#6D685F" stroke-opacity="0.0096" stroke-width="0.067" fill="none"/><path d="M 16.99 167.85 C 55 167.57, 155 167.73, 218.40 167.86" stroke="#6D685F" stroke-opacity="0.0057" stroke-width="0.057" fill="none"/><path d="M 19.00 131.88 C 55 131.72, 155 132.22, 197.39 131.84" stroke="#6D685F" stroke-opacity="0.0049" stroke-width="0.074" fill="none"/><path d="M 3.15 83.31 C 55 83.01, 155 83.63, 200.13 83.45" stroke="#6D685F" stroke-opacity="0.0069" stroke-width="0.044" fill="none"/><path d="M -3.68 105.26 C 55 105.58, 155 105.33, 196.98 105.44" stroke="#6D685F" stroke-opacity="0.0069" stroke-width="0.047" fill="none"/><path d="M -7.97 213.73 C 55 213.54, 155 213.80, 211.12 213.89" stroke="#6D685F" stroke-opacity="0.0064" stroke-width="0.049" fill="none"/><path d="M 3.67 201.89 C 55 201.90, 155 201.67, 221.72 201.79" stroke="#6D685F" stroke-opacity="0.0049" stroke-width="0.043" fill="none"/><path d="M 3.56 117.64 C 55 117.85, 155 117.33, 213.96 117.78" stroke="#6D685F" stroke-opacity="0.0069" stroke-width="0.080" fill="none"/><path d="M 16.14 128.24 C 55 128.08, 155 128.37, 206.87 128.22" stroke="#6D685F" stroke-opacity="0.0074" stroke-width="0.045" fill="none"/><path d="M 4.41 87.42 C 55 87.53, 155 87.24, 215.85 87.60" stroke="#6D685F" stroke-opacity="0.0096" stroke-width="0.058" fill="none"/><path d="M -3.27 108.59 C 55 108.87, 155 108.31, 208.12 108.75" stroke="#6D685F" stroke-opacity="0.0093" stroke-width="0.054" fill="none"/><path d="M 18.12 123.89 C 55 124.12, 155 123.88, 211.61 123.69" stroke="#6D685F" stroke-opacity="0.0086" stroke-width="0.070" fill="none"/><path d="M 5.34 86.38 C 55 86.55, 155 86.20, 216.96 86.36" stroke="#6D685F" stroke-opacity="0.0091" stroke-width="0.045" fill="none"/><path d="M 0.60 83.60 C 55 83.82, 155 83.41, 209.51 83.47" stroke="#6D685F" stroke-opacity="0.0059" stroke-width="0.060" fill="none"/><path d="M 7.34 213.10 C 55 213.36, 155 212.75, 197.55 213.11" stroke="#6D685F" stroke-opacity="0.0085" stroke-width="0.067" fill="none"/><path d="M 3.72 108.54 C 55 108.77, 155 108.57, 212.47 108.64" stroke="#6D685F" stroke-opacity="0.0065" stroke-width="0.043" fill="none"/><path d="M -9.89 264.68 C 55 264.78, 155 264.69, 216.06 264.79" stroke="#6D685F" stroke-opacity="0.0069" stroke-width="0.084" fill="none"/><path d="M 17.49 129.10 C 55 129.48, 155 129.48, 193.90 128.98" stroke="#6D685F" stroke-opacity="0.0086" stroke-width="0.048" fill="none"/><rect width="210" height="297" fill="url(#edgeTone)"/></g><g id="process-content" data-process="photocopy-toner" transform="rotate(-0.225 105 148.5)"><g id="ellery-works-seal" data-process="photocopy-toner">
      <circle cx="24" cy="12.8" r="7.2" fill="none" stroke="#2E2E2D" stroke-opacity="0.660" stroke-width=".34"/>
      <circle cx="24" cy="12.8" r="6.2" fill="none" stroke="#2E2E2D" stroke-opacity="0.420" stroke-width=".19"/>
      <text x="24.000" y="13.800" data-process="photocopy-toner" font-family="'Nimbus Roman',serif" font-size="3.0339" font-weight="700" letter-spacing="0.0000" fill="#2E2E2D" fill-opacity="0.760" text-anchor="middle">WE</text>
      <text x="24.000" y="18.000" data-process="photocopy-toner" font-family="'Nimbus Roman',serif" font-size="1.4817" font-weight="600" letter-spacing="0.0000" fill="#2E2E2D" fill-opacity="0.460" text-anchor="middle">WORKS</text>
    </g><text x="17.000" y="11.800" data-process="photocopy-toner" font-family="'Nimbus Roman',serif" font-size="4.5861" font-weight="700" letter-spacing="0.0106" fill="#2E2E2D" fill-opacity="0.840" text-anchor="start">W. ELLERY / WORKS</text><line x1="17" y1="18.2" x2="193" y2="18.2" data-process="photocopy-toner" stroke="#2E2E2D" stroke-opacity="0.384" stroke-width="0.26"/><text x="17.000" y="27.600" data-process="photocopy-toner" font-family="'Nimbus Roman',serif" font-size="3.8100" font-weight="700" letter-spacing="0.0088" fill="#2C2A26" fill-opacity="1.000" text-anchor="start">FIELD NOTE</text><text x="193.000" y="25.500" font-family="'Nimbus Mono PS',monospace" font-size="1.9756" font-weight="400" letter-spacing="0.0000" fill="#252525" fill-opacity="0.460" text-anchor="end">KITCHEN-02</text><line x1="17" y1="31" x2="193" y2="31" data-process="photocopy-toner" stroke="#5B574F" stroke-opacity="0.3" stroke-width="0.18"/><line x1="29" y1="37.35" x2="193" y2="37.35" data-process="photocopy-toner" stroke="#716C63" stroke-opacity="0.18" stroke-width="0.15"/><line x1="29" y1="43.7" x2="193" y2="43.7" data-process="photocopy-toner" stroke="#716C63" stroke-opacity="0.18" stroke-width="0.15"/><line x1="29" y1="50.050000000000004" x2="193" y2="50.050000000000004" data-process="photocopy-toner" stroke="#716C63" stroke-opacity="0.18" stroke-width="0.15"/><line x1="29" y1="56.400000000000006" x2="193" y2="56.400000000000006" data-process="photocopy-toner" stroke="#716C63" stroke-opacity="0.18" stroke-width="0.15"/><line x1="29" y1="62.75000000000001" x2="193" y2="62.75000000000001" data-process="photocopy-toner" stroke="#716C63" stroke-opacity="0.18" stroke-width="0.15"/><line x1="29" y1="69.10000000000001" x2="193" y2="69.10000000000001" data-process="photocopy-toner" stroke="#716C63" stroke-opacity="0.18" stroke-width="0.15"/><line x1="29" y1="75.45" x2="193" y2="75.45" data-process="photocopy-toner" stroke="#716C63" stroke-opacity="0.18" stroke-width="0.15"/><line x1="29" y1="81.8" x2="193" y2="81.8" data-process="photocopy-toner" stroke="#716C63" stroke-opacity="0.18" stroke-width="0.15"/><line x1="29" y1="88.14999999999999" x2="193" y2="88.14999999999999" data-process="photocopy-toner" stroke="#716C63" stroke-opacity="0.18" stroke-width="0.15"/><line x1="29" y1="94.49999999999999" x2="193" y2="94.49999999999999" data-process="photocopy-toner" stroke="#716C63" stroke-opacity="0.18" stroke-width="0.15"/><line x1="29" y1="100.84999999999998" x2="193" y2="100.84999999999998" data-process="photocopy-toner" stroke="#716C63" stroke-opacity="0.18" stroke-width="0.15"/><line x1="29" y1="107.19999999999997" x2="193" y2="107.19999999999997" data-process="photocopy-toner" stroke="#716C63" stroke-opacity="0.18" stroke-width="0.15"/><line x1="29" y1="113.54999999999997" x2="193" y2="113.54999999999997" data-process="photocopy-toner" stroke="#716C63" stroke-opacity="0.18" stroke-width="0.15"/><line x1="29" y1="119.89999999999996" x2="193" y2="119.89999999999996" data-process="photocopy-toner" stroke="#716C63" stroke-opacity="0.18" stroke-width="0.15"/><line x1="29" y1="126.24999999999996" x2="193" y2="126.24999999999996" data-process="photocopy-toner" stroke="#716C63" stroke-opacity="0.18" stroke-width="0.15"/><line x1="29" y1="132.59999999999997" x2="193" y2="132.59999999999997" data-process="photocopy-toner" stroke="#716C63" stroke-opacity="0.18" stroke-width="0.15"/><line x1="29" y1="138.94999999999996" x2="193" y2="138.94999999999996" data-process="photocopy-toner" stroke="#716C63" stroke-opacity="0.18" stroke-width="0.15"/><line x1="29" y1="145.29999999999995" x2="193" y2="145.29999999999995" data-process="photocopy-toner" stroke="#716C63" stroke-opacity="0.18" stroke-width="0.15"/><line x1="29" y1="151.64999999999995" x2="193" y2="151.64999999999995" data-process="photocopy-toner" stroke="#716C63" stroke-opacity="0.18" stroke-width="0.15"/><line x1="29" y1="157.99999999999994" x2="193" y2="157.99999999999994" data-process="photocopy-toner" stroke="#716C63" stroke-opacity="0.18" stroke-width="0.15"/><line x1="29" y1="164.34999999999994" x2="193" y2="164.34999999999994" data-process="photocopy-toner" stroke="#716C63" stroke-opacity="0.18" stroke-width="0.15"/><line x1="29" y1="170.69999999999993" x2="193" y2="170.69999999999993" data-process="photocopy-toner" stroke="#716C63" stroke-opacity="0.18" stroke-width="0.15"/><line x1="29" y1="177.04999999999993" x2="193" y2="177.04999999999993" data-process="photocopy-toner" stroke="#716C63" stroke-opacity="0.18" stroke-width="0.15"/><line x1="29" y1="183.39999999999992" x2="193" y2="183.39999999999992" data-process="photocopy-toner" stroke="#716C63" stroke-opacity="0.18" stroke-width="0.15"/><line x1="29" y1="189.74999999999991" x2="193" y2="189.74999999999991" data-process="photocopy-toner" stroke="#716C63" stroke-opacity="0.18" stroke-width="0.15"/><line x1="29" y1="196.0999999999999" x2="193" y2="196.0999999999999" data-process="photocopy-toner" stroke="#716C63" stroke-opacity="0.18" stroke-width="0.15"/><line x1="29" y1="202.4499999999999" x2="193" y2="202.4499999999999" data-process="photocopy-toner" stroke="#716C63" stroke-opacity="0.18" stroke-width="0.15"/><line x1="29" y1="208.7999999999999" x2="193" y2="208.7999999999999" data-process="photocopy-toner" stroke="#716C63" stroke-opacity="0.18" stroke-width="0.15"/><line x1="29" y1="215.1499999999999" x2="193" y2="215.1499999999999" data-process="photocopy-toner" stroke="#716C63" stroke-opacity="0.18" stroke-width="0.15"/><line x1="29" y1="221.4999999999999" x2="193" y2="221.4999999999999" data-process="photocopy-toner" stroke="#716C63" stroke-opacity="0.18" stroke-width="0.15"/><line x1="29" y1="227.84999999999988" x2="193" y2="227.84999999999988" data-process="photocopy-toner" stroke="#716C63" stroke-opacity="0.18" stroke-width="0.15"/><line x1="29" y1="234.19999999999987" x2="193" y2="234.19999999999987" data-process="photocopy-toner" stroke="#716C63" stroke-opacity="0.18" stroke-width="0.15"/><line x1="29" y1="240.54999999999987" x2="193" y2="240.54999999999987" data-process="photocopy-toner" stroke="#716C63" stroke-opacity="0.18" stroke-width="0.15"/><line x1="29" y1="246.89999999999986" x2="193" y2="246.89999999999986" data-process="photocopy-toner" stroke="#716C63" stroke-opacity="0.18" stroke-width="0.15"/><line x1="29" y1="253.24999999999986" x2="193" y2="253.24999999999986" data-process="photocopy-toner" stroke="#716C63" stroke-opacity="0.18" stroke-width="0.15"/><line x1="29" y1="259.59999999999985" x2="193" y2="259.59999999999985" data-process="photocopy-toner" stroke="#716C63" stroke-opacity="0.18" stroke-width="0.15"/><line x1="29" y1="265.9499999999999" x2="193" y2="265.9499999999999" data-process="photocopy-toner" stroke="#716C63" stroke-opacity="0.18" stroke-width="0.15"/><line x1="29" y1="31" x2="29" y2="270" data-process="photocopy-toner" stroke="#716C63" stroke-opacity="0.2" stroke-width="0.16"/><text x="33.000" y="37.350" font-family="'Nimbus Mono PS',monospace" font-size="4.2333" font-weight="400" letter-spacing="0.0000" fill="#242321" fill-opacity="0.940" text-anchor="start">You know how Dad did that.</text><text x="33.000" y="43.700" font-family="'Nimbus Mono PS',monospace" font-size="4.2333" font-weight="400" letter-spacing="0.0000" fill="#242321" fill-opacity="0.940" text-anchor="start">There is nobody here who knows that.</text><line x1="17" y1="282" x2="193" y2="282" data-process="photocopy-toner" stroke="#56534E" stroke-opacity="0.216" stroke-width="0.18"/><text x="17.000" y="286.400" data-process="photocopy-toner" font-family="'Nimbus Roman',serif" font-size="2.3636" font-weight="400" letter-spacing="0.0000" fill="#56534E" fill-opacity="0.420" text-anchor="start">W. ELLERY / WORKS · WEST YORKSHIRE</text><text x="193.000" y="286.400" data-process="photocopy-toner" font-family="'Nimbus Roman',serif" font-size="2.3636" font-weight="400" letter-spacing="0.0000" fill="#56534E" fill-opacity="0.420" text-anchor="end">SHEET 1 OF 1</text></g><g id="process-manual" data-process="biro"></g><g id="process-handling" data-process="handling"><rect x="3" y="150.38" width="204" height="1.35" data-process="handling" fill="#6A645A" fill-opacity="0.021"/><line x1="2.5" y1="150.76" x2="207.5" y2="150.76" data-process="handling" stroke="#5D574D" stroke-opacity="0.08410000000000001" stroke-width="0.2"/><line x1="2.5" y1="151.17" x2="207.5" y2="151.17" data-process="handling" stroke="#FFFFFF" stroke-opacity="0.1227" stroke-width="0.22"/><line x1="6" y1="151.58" x2="204" y2="151.58" data-process="handling" stroke="#81796C" stroke-opacity="0.0353" stroke-width="0.12"/><circle cx="16" cy="278" r="34" data-process="handling" fill="#8A806B" fill-opacity="0.026" stroke="#766B57" stroke-opacity="0.074" stroke-width=".34"/><circle cx="19" cy="274" r="25.16" data-process="handling" fill="none" stroke="#8B8068" stroke-opacity="0.046" stroke-width=".22"/><circle cx="22" cy="271" r="14.62" data-process="handling" fill="none" stroke="#A39A87" stroke-opacity="0.035" stroke-width=".16"/><line x1="1.2" y1="38" x2="4.2" y2="38.45" data-process="handling" stroke="#6B6458" stroke-opacity="0.039" stroke-width="0.17"/><line x1="205.8" y1="46" x2="208.4" y2="45.5" data-process="handling" stroke="#FFFFFF" stroke-opacity="0.0368" stroke-width="0.16"/><line x1="1.75" y1="69.4" x2="4.75" y2="69.85000000000001" data-process="handling" stroke="#6B6458" stroke-opacity="0.039" stroke-width="0.17"/><line x1="205.25" y1="77.4" x2="207.85" y2="76.9" data-process="handling" stroke="#FFFFFF" stroke-opacity="0.0368" stroke-width="0.16"/><line x1="2.3" y1="100.8" x2="5.300000000000001" y2="101.25" data-process="handling" stroke="#6B6458" stroke-opacity="0.039" stroke-width="0.17"/><line x1="204.70000000000002" y1="108.8" x2="207.3" y2="108.3" data-process="handling" stroke="#FFFFFF" stroke-opacity="0.0368" stroke-width="0.16"/><line x1="1.2" y1="132.2" x2="4.2" y2="132.64999999999998" data-process="handling" stroke="#6B6458" stroke-opacity="0.039" stroke-width="0.17"/><line x1="205.8" y1="140.2" x2="208.4" y2="139.7" data-process="handling" stroke="#FFFFFF" stroke-opacity="0.0368" stroke-width="0.16"/><line x1="1.75" y1="163.6" x2="4.75" y2="164.04999999999998" data-process="handling" stroke="#6B6458" stroke-opacity="0.039" stroke-width="0.17"/><line x1="205.25" y1="171.6" x2="207.85" y2="171.1" data-process="handling" stroke="#FFFFFF" stroke-opacity="0.0368" stroke-width="0.16"/><line x1="2.3" y1="195" x2="5.300000000000001" y2="195.45" data-process="handling" stroke="#6B6458" stroke-opacity="0.039" stroke-width="0.17"/><line x1="204.70000000000002" y1="203" x2="207.3" y2="202.5" data-process="handling" stroke="#FFFFFF" stroke-opacity="0.0368" stroke-width="0.16"/><line x1="1.2" y1="226.39999999999998" x2="4.2" y2="226.84999999999997" data-process="handling" stroke="#6B6458" stroke-opacity="0.039" stroke-width="0.17"/><line x1="205.8" y1="234.39999999999998" x2="208.4" y2="233.89999999999998" data-process="handling" stroke="#FFFFFF" stroke-opacity="0.0368" stroke-width="0.16"/><line x1="210" y1="286" x2="209.5" y2="284.8" data-process="handling" stroke="#756E62" stroke-opacity="0.055" stroke-width="0.13"/><line x1="207.84" y1="283.3" x2="209.5" y2="282.1" data-process="handling" stroke="#FFFFFF" stroke-opacity="0.073" stroke-width="0.13"/><line x1="205.68" y1="280.6" x2="208.98000000000002" y2="279.40000000000003" data-process="handling" stroke="#756E62" stroke-opacity="0.091" stroke-width="0.13"/><line x1="203.52" y1="277.9" x2="207.27" y2="276.7" data-process="handling" stroke="#FFFFFF" stroke-opacity="0.10899999999999999" stroke-width="0.13"/><line x1="201.36" y1="275.2" x2="205.56000000000003" y2="274" data-process="handling" stroke="#756E62" stroke-opacity="0.127" stroke-width="0.13"/><line x1="199.2" y1="272.5" x2="203.85" y2="271.3" data-process="handling" stroke="#FFFFFF" stroke-opacity="0.145" stroke-width="0.13"/></g><g id="reproduction-defects" data-process="photocopy-toner"><rect x="32.66" y="0" width="0.200" height="297" fill="#222" fill-opacity="0.016"/><circle cx="155.73" cy="161.23" r="0.078" fill="#242424" fill-opacity="0.020"/><circle cx="137.49" cy="275.58" r="0.145" fill="#242424" fill-opacity="0.021"/><circle cx="27.95" cy="156.70" r="0.104" fill="#242424" fill-opacity="0.018"/><circle cx="117.29" cy="250.03" r="0.105" fill="#242424" fill-opacity="0.021"/><circle cx="5.33" cy="163.02" r="0.125" fill="#242424" fill-opacity="0.026"/><circle cx="28.25" cy="73.95" r="0.084" fill="#242424" fill-opacity="0.021"/><circle cx="119.15" cy="32.67" r="0.078" fill="#242424" fill-opacity="0.024"/><circle cx="202.55" cy="192.19" r="0.076" fill="#242424" fill-opacity="0.025"/><circle cx="103.91" cy="216.41" r="0.120" fill="#242424" fill-opacity="0.024"/><circle cx="165.48" cy="56.81" r="0.138" fill="#242424" fill-opacity="0.025"/><circle cx="101.17" cy="264.60" r="0.138" fill="#242424" fill-opacity="0.021"/><circle cx="142.69" cy="27.97" r="0.129" fill="#242424" fill-opacity="0.021"/><circle cx="76.77" cy="270.49" r="0.088" fill="#242424" fill-opacity="0.020"/><circle cx="125.68" cy="186.52" r="0.130" fill="#242424" fill-opacity="0.021"/><circle cx="96.40" cy="137.63" r="0.101" fill="#242424" fill-opacity="0.018"/><circle cx="91.11" cy="163.44" r="0.088" fill="#242424" fill-opacity="0.025"/><circle cx="98.97" cy="228.08" r="0.135" fill="#242424" fill-opacity="0.025"/><circle cx="29.12" cy="6.71" r="0.082" fill="#242424" fill-opacity="0.025"/><circle cx="73.72" cy="211.79" r="0.141" fill="#242424" fill-opacity="0.025"/><circle cx="81.28" cy="118.82" r="0.141" fill="#242424" fill-opacity="0.019"/><circle cx="61.20" cy="20.06" r="0.064" fill="#242424" fill-opacity="0.024"/><circle cx="203.04" cy="218.79" r="0.075" fill="#242424" fill-opacity="0.022"/><circle cx="44.63" cy="80.56" r="0.049" fill="#242424" fill-opacity="0.024"/><circle cx="201.25" cy="87.90" r="0.118" fill="#242424" fill-opacity="0.026"/><circle cx="30.94" cy="101.33" r="0.108" fill="#242424" fill-opacity="0.023"/><circle cx="171.25" cy="97.89" r="0.062" fill="#242424" fill-opacity="0.019"/><circle cx="38.83" cy="175.84" r="0.041" fill="#242424" fill-opacity="0.019"/><circle cx="22.58" cy="118.98" r="0.115" fill="#242424" fill-opacity="0.024"/><circle cx="104.73" cy="148.49" r="0.145" fill="#242424" fill-opacity="0.020"/><circle cx="178.73" cy="240.15" r="0.073" fill="#242424" fill-opacity="0.023"/><circle cx="157.26" cy="134.17" r="0.123" fill="#242424" fill-opacity="0.021"/><circle cx="104.43" cy="218.55" r="0.070" fill="#242424" fill-opacity="0.019"/><circle cx="188.48" cy="260.00" r="0.068" fill="#242424" fill-opacity="0.019"/><circle cx="95.62" cy="290.00" r="0.090" fill="#242424" fill-opacity="0.020"/><circle cx="102.67" cy="43.07" r="0.059" fill="#242424" fill-opacity="0.025"/><rect x="0" y="0" width="210" height="297" fill="#333" fill-opacity="0.022"/></g></svg>