<?xml version="1.0" encoding="UTF-8"?>
<svg xmlns="http://www.w3.org/2000/svg" width="2480" height="3508" viewBox="0 0 210 297" data-format="A4" data-physical-width-mm="210" data-physical-height-mm="297" data-process-ppi="600" data-canonical-ppi="300" data-entry-process="photocopy-toner"><g id="paper-stock"><defs><linearGradient id="edgeTone" x1="0" x2="1" y1="0" y2="1"><stop offset="0" stop-color="#5B574F" stop-opacity="0.013"/><stop offset=".08" stop-color="#FFFFFF" stop-opacity="0"/><stop offset=".90" stop-color="#FFFFFF" stop-opacity="0"/><stop offset="1" stop-color="#4E4B45" stop-opacity="0.016"/></linearGradient><filter id="stockGrain" x="0" y="0" width="100%" height="100%"><feTurbulence type="fractalNoise" baseFrequency="0.045 0.11" numOctaves="2" seed="160"/><feColorMatrix type="matrix" values="0 0 0 0 0.35  0 0 0 0 0.33  0 0 0 0 0.29  0 0 0 .010 0"/></filter></defs><rect width="210" height="297" fill="#ECEBE6"/><rect width="210" height="297" filter="url(#stockGrain)" opacity=".40"/><path d="M 9.07 222.37 C 55 222.27, 155 222.22, 215.98 222.41" stroke="#6D685F" stroke-opacity="0.0065" stroke-width="0.045" fill="none"/><path d="M 19.20 9.28 C 55 9.21, 155 9.61, 192.02 9.35" stroke="#6D685F" stroke-opacity="0.0074" stroke-width="0.078" fill="none"/><path d="M 3.34 24.65 C 55 24.82, 155 24.86, 203.79 24.60" stroke="#6D685F" stroke-opacity="0.0043" stroke-width="0.036" fill="none"/><path d="M -2.45 61.29 C 55 61.67, 155 61.22, 208.37 61.37" stroke="#6D685F" stroke-opacity="0.0061" stroke-width="0.055" fill="none"/><path d="M 12.76 259.15 C 55 259.27, 155 259.13, 223.87 258.99" stroke="#6D685F" stroke-opacity="0.0046" stroke-width="0.055" fill="none"/><path d="M 19.82 107.42 C 55 107.69, 155 107.50, 202.53 107.33" stroke="#6D685F" stroke-opacity="0.0084" stroke-width="0.070" fill="none"/><path d="M 1.21 296.44 C 55 296.74, 155 296.62, 202.02 296.23" stroke="#6D685F" stroke-opacity="0.0073" stroke-width="0.059" fill="none"/><path d="M 18.01 247.74 C 55 247.87, 155 247.59, 194.42 247.96" stroke="#6D685F" stroke-opacity="0.0084" stroke-width="0.053" fill="none"/><path d="M 5.45 151.67 C 55 151.71, 155 152.05, 212.42 151.65" stroke="#6D685F" stroke-opacity="0.0078" stroke-width="0.070" fill="none"/><path d="M -3.85 69.22 C 55 68.98, 155 69.61, 202.71 69.27" stroke="#6D685F" stroke-opacity="0.0050" stroke-width="0.041" fill="none"/><path d="M -2.03 257.11 C 55 256.73, 155 257.39, 218.40 256.91" stroke="#6D685F" stroke-opacity="0.0071" stroke-width="0.080" fill="none"/><path d="M 9.89 206.47 C 55 206.38, 155 206.53, 201.97 206.60" stroke="#6D685F" stroke-opacity="0.0087" stroke-width="0.049" fill="none"/><path d="M -0.86 241.19 C 55 240.81, 155 241.23, 211.83 241.05" stroke="#6D685F" stroke-opacity="0.0076" stroke-width="0.048" fill="none"/><path d="M -5.66 289.66 C 55 289.38, 155 289.58, 196.36 289.47" stroke="#6D685F" stroke-opacity="0.0045" stroke-width="0.056" fill="none"/><path d="M -9.39 158.19 C 55 158.38, 155 158.16, 214.26 158.06" stroke="#6D685F" stroke-opacity="0.0060" stroke-width="0.071" fill="none"/><path d="M 2.72 123.06 C 55 122.87, 155 123.21, 204.54 123.11" stroke="#6D685F" stroke-opacity="0.0044" stroke-width="0.072" fill="none"/><path d="M -3.20 212.78 C 55 212.65, 155 213.09, 194.08 212.69" stroke="#6D685F" stroke-opacity="0.0053" stroke-width="0.084" fill="none"/><path d="M 19.55 118.40 C 55 118.43, 155 118.22, 211.55 118.28" stroke="#6D685F" stroke-opacity="0.0055" stroke-width="0.044" fill="none"/><path d="M 10.53 161.90 C 55 162.07, 155 161.83, 216.33 161.98" stroke="#6D685F" stroke-opacity="0.0094" stroke-width="0.057" fill="none"/><path d="M -0.33 168.91 C 55 168.61, 155 168.67, 216.55 168.97" stroke="#6D685F" stroke-opacity="0.0092" stroke-width="0.054" fill="none"/><path d="M -3.74 113.09 C 55 113.39, 155 113.06, 194.73 112.93" stroke="#6D685F" stroke-opacity="0.0052" stroke-width="0.083" fill="none"/><path d="M 4.89 206.59 C 55 206.21, 155 206.55, 207.51 206.70" stroke="#6D685F" stroke-opacity="0.0071" stroke-width="0.080" fill="none"/><path d="M 8.25 206.10 C 55 206.29, 155 205.77, 195.54 205.94" stroke="#6D685F" stroke-opacity="0.0084" stroke-width="0.077" fill="none"/><path d="M -4.67 146.95 C 55 146.99, 155 147.24, 218.94 146.78" stroke="#6D685F" stroke-opacity="0.0094" stroke-width="0.061" fill="none"/><path d="M 0.46 137.09 C 55 137.48, 155 137.27, 214.42 136.97" stroke="#6D685F" stroke-opacity="0.0046" stroke-width="0.043" fill="none"/><path d="M 19.17 279.12 C 55 279.22, 155 279.07, 207.64 279.21" stroke="#6D685F" stroke-opacity="0.0067" stroke-width="0.071" fill="none"/><rect width="210" height="297" fill="url(#edgeTone)"/></g><g id="process-content" data-process="photocopy-toner" transform="rotate(0.104 105 148.5)"><g id="ellery-works-seal" data-process="photocopy-toner">
      <circle cx="24" cy="12.8" r="7.2" fill="none" stroke="#2E2E2D" stroke-opacity="0.765" stroke-width=".34"/>
      <circle cx="24" cy="12.8" r="6.2" fill="none" stroke="#2E2E2D" stroke-opacity="0.525" stroke-width=".19"/>
      <text x="24.000" y="13.800" data-process="photocopy-toner" font-family="'Nimbus Roman',serif" font-size="3.0339" font-weight="700" letter-spacing="0.0000" fill="#2E2E2D" fill-opacity="0.865" text-anchor="middle">WE</text>
      <text x="24.000" y="18.000" data-process="photocopy-toner" font-family="'Nimbus Roman',serif" font-size="1.4817" font-weight="600" letter-spacing="0.0000" fill="#2E2E2D" fill-opacity="0.565" text-anchor="middle">WORKS</text>
    </g><text x="34.000" y="11.800" data-process="photocopy-toner" font-family="'Nimbus Roman',serif" font-size="5.7150" font-weight="700" letter-spacing="0.0106" fill="#2E2E2D" fill-opacity="0.945" text-anchor="start">W. ELLERY / WORKS</text><text x="34.000" y="17.000" data-process="photocopy-toner" font-family="'Nimbus Roman',serif" font-size="2.9633" font-weight="600" letter-spacing="0.0423" fill="#2E2E2D" fill-opacity="0.765" text-anchor="start">ACOUSTIC RECORDING · TECHNICAL SERVICES</text><text x="193.000" y="10.000" data-process="photocopy-toner" font-family="'Nimbus Roman',serif" font-size="2.6458" font-weight="400" letter-spacing="0.0000" fill="#2E2E2D" fill-opacity="0.715" text-anchor="end">Calder Works, Bradford Road</text><text x="193.000" y="14.000" data-process="photocopy-toner" font-family="'Nimbus Roman',serif" font-size="2.6458" font-weight="400" letter-spacing="0.0000" fill="#2E2E2D" fill-opacity="0.715" text-anchor="end">Brighouse, West Yorkshire  HD6 4AA</text><text x="193.000" y="18.000" data-process="photocopy-toner" font-family="'Nimbus Roman',serif" font-size="2.5047" font-weight="400" letter-spacing="0.0000" fill="#2E2E2D" fill-opacity="0.665" text-anchor="end">Telephone 01484 214 417   Fax 01484 214 418</text><line x1="17" y1="23" x2="193" y2="23" data-process="photocopy-toner" stroke="#2E2E2D" stroke-opacity="0.4155" stroke-width="0.26"/><text x="17.000" y="32.400" data-process="photocopy-toner" font-family="'Nimbus Roman',serif" font-size="4.1628" font-weight="700" letter-spacing="0.0088" fill="#2C2A26" fill-opacity="1.000" text-anchor="start">EQUIPMENT ISSUE / RETURN</text><text x="17.000" y="44.200" data-process="photocopy-toner" font-family="'Nimbus Roman',serif" font-size="3.1044" font-weight="600" letter-spacing="0.0282" fill="#403E39" fill-opacity="1.000" text-anchor="start">REF</text><text x="49.000" y="44.200" data-process="photocopy-toner" font-family="'Nimbus Roman',serif" font-size="3.1044" font-weight="600" letter-spacing="0.0282" fill="#403E39" fill-opacity="1.000" text-anchor="start">ITEM / STATUS</text><line x1="17" y1="46.1" x2="193" y2="46.1" data-process="photocopy-toner" stroke="#494846" stroke-opacity="0.38" stroke-width="0.2"/><line x1="17" y1="55" x2="193" y2="55" data-process="photocopy-toner" stroke="#494846" stroke-opacity="0.17" stroke-width="0.14"/><text x="19.000" y="53.800" data-process="photocopy-toner" font-family="'Nimbus Roman',serif" font-size="2.0461" font-weight="600" letter-spacing="0.0282" fill="#403E39" fill-opacity="1.000" text-anchor="start">ITEM 1</text><text x="49.000" y="53.800" font-family="'Nimbus Mono PS',monospace" font-size="2.6811" font-weight="400" letter-spacing="0.0000" fill="#252525" fill-opacity="1.000" text-anchor="start">recorder case</text><line x1="17" y1="64" x2="193" y2="64" data-process="photocopy-toner" stroke="#494846" stroke-opacity="0.17" stroke-width="0.14"/><text x="19.000" y="62.800" data-process="photocopy-toner" font-family="'Nimbus Roman',serif" font-size="2.0461" font-weight="600" letter-spacing="0.0282" fill="#403E39" fill-opacity="1.000" text-anchor="start">ITEM 2</text><text x="49.000" y="62.800" font-family="'Nimbus Mono PS',monospace" font-size="2.6811" font-weight="400" letter-spacing="0.0000" fill="#252525" fill-opacity="1.000" text-anchor="start">wind cover</text><line x1="17" y1="73" x2="193" y2="73" data-process="photocopy-toner" stroke="#494846" stroke-opacity="0.17" stroke-width="0.14"/><text x="19.000" y="71.800" data-process="photocopy-toner" font-family="'Nimbus Roman',serif" font-size="2.0461" font-weight="600" letter-spacing="0.0282" fill="#403E39" fill-opacity="1.000" text-anchor="start">ITEM 3</text><text x="49.000" y="71.800" font-family="'Nimbus Mono PS',monospace" font-size="2.6811" font-weight="400" letter-spacing="0.0000" fill="#252525" fill-opacity="1.000" text-anchor="start">chalk</text><line x1="17" y1="82" x2="193" y2="82" data-process="photocopy-toner" stroke="#494846" stroke-opacity="0.17" stroke-width="0.14"/><text x="19.000" y="80.800" data-process="photocopy-toner" font-family="'Nimbus Roman',serif" font-size="2.0461" font-weight="600" letter-spacing="0.0282" fill="#403E39" fill-opacity="1.000" text-anchor="start">STATUS</text><text x="49.000" y="80.800" font-family="'Nimbus Mono PS',monospace" font-size="2.6811" font-weight="400" letter-spacing="0.0000" fill="#252525" fill-opacity="1.000" text-anchor="start">keys not part of kit</text><text x="17.000" y="93.800" data-process="photocopy-toner" font-family="'Nimbus Roman',serif" font-size="3.5560" font-weight="600" letter-spacing="0.0282" fill="#403E39" fill-opacity="1.000" text-anchor="start">NOTES / RETURN</text><line x1="17" y1="96" x2="193" y2="96" data-process="photocopy-toner" stroke="#4F4B44" stroke-opacity="0.42" stroke-width="0.24"/><line x1="17" y1="96.72" x2="193" y2="96.72" data-process="photocopy-toner" stroke="#6B665D" stroke-opacity="0.17" stroke-width="0.14"/><line x1="17" y1="103.07" x2="193" y2="103.07" data-process="photocopy-toner" stroke="#716C63" stroke-opacity="0.18" stroke-width="0.15"/><line x1="17" y1="109.41999999999999" x2="193" y2="109.41999999999999" data-process="photocopy-toner" stroke="#716C63" stroke-opacity="0.18" stroke-width="0.15"/><line x1="17" y1="115.76999999999998" x2="193" y2="115.76999999999998" data-process="photocopy-toner" stroke="#716C63" stroke-opacity="0.18" stroke-width="0.15"/><line x1="17" y1="122.11999999999998" x2="193" y2="122.11999999999998" data-process="photocopy-toner" stroke="#716C63" stroke-opacity="0.18" stroke-width="0.15"/><line x1="17" y1="128.46999999999997" x2="193" y2="128.46999999999997" data-process="photocopy-toner" stroke="#716C63" stroke-opacity="0.18" stroke-width="0.15"/><line x1="17" y1="134.81999999999996" x2="193" y2="134.81999999999996" data-process="photocopy-toner" stroke="#716C63" stroke-opacity="0.18" stroke-width="0.15"/><line x1="17" y1="141.16999999999996" x2="193" y2="141.16999999999996" data-process="photocopy-toner" stroke="#716C63" stroke-opacity="0.18" stroke-width="0.15"/><line x1="17" y1="147.51999999999995" x2="193" y2="147.51999999999995" data-process="photocopy-toner" stroke="#716C63" stroke-opacity="0.18" stroke-width="0.15"/><line x1="17" y1="153.86999999999995" x2="193" y2="153.86999999999995" data-process="photocopy-toner" stroke="#716C63" stroke-opacity="0.18" stroke-width="0.15"/><line x1="17" y1="160.21999999999994" x2="193" y2="160.21999999999994" data-process="photocopy-toner" stroke="#716C63" stroke-opacity="0.18" stroke-width="0.15"/><line x1="17" y1="166.56999999999994" x2="193" y2="166.56999999999994" data-process="photocopy-toner" stroke="#716C63" stroke-opacity="0.18" stroke-width="0.15"/><line x1="17" y1="172.91999999999993" x2="193" y2="172.91999999999993" data-process="photocopy-toner" stroke="#716C63" stroke-opacity="0.18" stroke-width="0.15"/><line x1="17" y1="179.26999999999992" x2="193" y2="179.26999999999992" data-process="photocopy-toner" stroke="#716C63" stroke-opacity="0.18" stroke-width="0.15"/><line x1="17" y1="185.61999999999992" x2="193" y2="185.61999999999992" data-process="photocopy-toner" stroke="#716C63" stroke-opacity="0.18" stroke-width="0.15"/><line x1="17" y1="191.9699999999999" x2="193" y2="191.9699999999999" data-process="photocopy-toner" stroke="#716C63" stroke-opacity="0.18" stroke-width="0.15"/><line x1="17" y1="198.3199999999999" x2="193" y2="198.3199999999999" data-process="photocopy-toner" stroke="#716C63" stroke-opacity="0.18" stroke-width="0.15"/><line x1="17" y1="204.6699999999999" x2="193" y2="204.6699999999999" data-process="photocopy-toner" stroke="#716C63" stroke-opacity="0.18" stroke-width="0.15"/><line x1="17" y1="211.0199999999999" x2="193" y2="211.0199999999999" data-process="photocopy-toner" stroke="#716C63" stroke-opacity="0.18" stroke-width="0.15"/><line x1="17" y1="217.3699999999999" x2="193" y2="217.3699999999999" data-process="photocopy-toner" stroke="#716C63" stroke-opacity="0.18" stroke-width="0.15"/><line x1="17" y1="223.71999999999989" x2="193" y2="223.71999999999989" data-process="photocopy-toner" stroke="#716C63" stroke-opacity="0.18" stroke-width="0.15"/><line x1="17" y1="230.06999999999988" x2="193" y2="230.06999999999988" data-process="photocopy-toner" stroke="#716C63" stroke-opacity="0.18" stroke-width="0.15"/><line x1="17" y1="236.41999999999987" x2="193" y2="236.41999999999987" data-process="photocopy-toner" stroke="#716C63" stroke-opacity="0.18" stroke-width="0.15"/><line x1="17" y1="242.76999999999987" x2="193" y2="242.76999999999987" data-process="photocopy-toner" stroke="#716C63" stroke-opacity="0.18" stroke-width="0.15"/><line x1="17" y1="249.11999999999986" x2="193" y2="249.11999999999986" data-process="photocopy-toner" stroke="#716C63" stroke-opacity="0.18" stroke-width="0.15"/><line x1="17" y1="255.46999999999986" x2="193" y2="255.46999999999986" data-process="photocopy-toner" stroke="#716C63" stroke-opacity="0.18" stroke-width="0.15"/><line x1="17" y1="261.8199999999999" x2="193" y2="261.8199999999999" data-process="photocopy-toner" stroke="#716C63" stroke-opacity="0.18" stroke-width="0.15"/><line x1="17" y1="282" x2="193" y2="282" data-process="photocopy-toner" stroke="#56534E" stroke-opacity="0.237" stroke-width="0.18"/><text x="17.000" y="286.400" data-process="photocopy-toner" font-family="'Nimbus Roman',serif" font-size="2.3636" font-weight="400" letter-spacing="0.0000" fill="#56534E" fill-opacity="0.525" text-anchor="start">W. ELLERY / WORKS · WEST YORKSHIRE</text><text x="193.000" y="286.400" data-process="photocopy-toner" font-family="'Nimbus Roman',serif" font-size="2.3636" font-weight="400" letter-spacing="0.0000" fill="#56534E" fill-opacity="0.525" text-anchor="end">SHEET 1 OF 1</text></g><g id="process-manual" data-process="biro"></g><g id="process-handling" data-process="handling"><rect x="3" y="147.88" width="204" height="1.35" data-process="handling" fill="#6A645A" fill-opacity="0.020"/><line x1="2.5" y1="148.26" x2="207.5" y2="148.26" data-process="handling" stroke="#5D574D" stroke-opacity="0.0795" stroke-width="0.2"/><line x1="2.5" y1="148.67" x2="207.5" y2="148.67" data-process="handling" stroke="#FFFFFF" stroke-opacity="0.1165" stroke-width="0.22"/><line x1="6" y1="149.08" x2="204" y2="149.08" data-process="handling" stroke="#81796C" stroke-opacity="0.0335" stroke-width="0.12"/><line x1="17.8" y1="5.3" x2="17.8" y2="20.6" data-process="handling" stroke="#5F594F" stroke-opacity="0.10300000000000001" stroke-width="0.2"/><line x1="20.1" y1="6.4" x2="20.1" y2="18.8" data-process="handling" stroke="#FFFFFF" stroke-opacity="0.06386" stroke-width="0.22"/><line x1="22" y1="7.2" x2="22" y2="17.7" data-process="handling" stroke="#777066" stroke-opacity="0.04326" stroke-width="0.13"/><circle cx="16" cy="278" r="22" data-process="handling" fill="#8A806B" fill-opacity="0.016" stroke="#766B57" stroke-opacity="0.053" stroke-width=".34"/><circle cx="19" cy="274" r="16.28" data-process="handling" fill="none" stroke="#8B8068" stroke-opacity="0.031" stroke-width=".22"/><circle cx="22" cy="271" r="9.46" data-process="handling" fill="none" stroke="#A39A87" stroke-opacity="0.024" stroke-width=".16"/><line x1="1.2" y1="38" x2="4.2" y2="38.45" data-process="handling" stroke="#6B6458" stroke-opacity="0.024" stroke-width="0.17"/><line x1="205.8" y1="46" x2="208.4" y2="45.5" data-process="handling" stroke="#FFFFFF" stroke-opacity="0.0248" stroke-width="0.16"/><line x1="1.75" y1="69.4" x2="4.75" y2="69.85000000000001" data-process="handling" stroke="#6B6458" stroke-opacity="0.024" stroke-width="0.17"/><line x1="205.25" y1="77.4" x2="207.85" y2="76.9" data-process="handling" stroke="#FFFFFF" stroke-opacity="0.0248" stroke-width="0.16"/><line x1="2.3" y1="100.8" x2="5.300000000000001" y2="101.25" data-process="handling" stroke="#6B6458" stroke-opacity="0.024" stroke-width="0.17"/><line x1="204.70000000000002" y1="108.8" x2="207.3" y2="108.3" data-process="handling" stroke="#FFFFFF" stroke-opacity="0.0248" stroke-width="0.16"/><line x1="1.2" y1="132.2" x2="4.2" y2="132.64999999999998" data-process="handling" stroke="#6B6458" stroke-opacity="0.024" stroke-width="0.17"/><line x1="205.8" y1="140.2" x2="208.4" y2="139.7" data-process="handling" stroke="#FFFFFF" stroke-opacity="0.0248" stroke-width="0.16"/><line x1="1.75" y1="163.6" x2="4.75" y2="164.04999999999998" data-process="handling" stroke="#6B6458" stroke-opacity="0.024" stroke-width="0.17"/><line x1="205.25" y1="171.6" x2="207.85" y2="171.1" data-process="handling" stroke="#FFFFFF" stroke-opacity="0.0248" stroke-width="0.16"/><line x1="2.3" y1="195" x2="5.300000000000001" y2="195.45" data-process="handling" stroke="#6B6458" stroke-opacity="0.024" stroke-width="0.17"/><line x1="204.70000000000002" y1="203" x2="207.3" y2="202.5" data-process="handling" stroke="#FFFFFF" stroke-opacity="0.0248" stroke-width="0.16"/><line x1="1.2" y1="226.39999999999998" x2="4.2" y2="226.84999999999997" data-process="handling" stroke="#6B6458" stroke-opacity="0.024" stroke-width="0.17"/><line x1="205.8" y1="234.39999999999998" x2="208.4" y2="233.89999999999998" data-process="handling" stroke="#FFFFFF" stroke-opacity="0.0248" stroke-width="0.16"/></g><g id="reproduction-defects" data-process="photocopy-toner"><rect x="54.31" y="0" width="0.095" height="297" fill="#222" fill-opacity="0.005"/><circle cx="58.64" cy="110.61" r="0.133" fill="#242424" fill-opacity="0.011"/><circle cx="133.60" cy="167.23" r="0.072" fill="#242424" fill-opacity="0.015"/><circle cx="61.99" cy="212.72" r="0.091" fill="#242424" fill-opacity="0.008"/><circle cx="70.18" cy="87.24" r="0.143" fill="#242424" fill-opacity="0.010"/><circle cx="82.69" cy="280.88" r="0.071" fill="#242424" fill-opacity="0.008"/><circle cx="98.93" cy="2.06" r="0.142" fill="#242424" fill-opacity="0.015"/><circle cx="128.29" cy="283.26" r="0.110" fill="#242424" fill-opacity="0.014"/></g></svg>